<svg id="Ebene_1" data-name="Ebene 1" xmlns="http://www.w3.org/2000/svg" viewBox="0 0 128 128"><title>Icon</title><path d="M25.23,94q0-24.3,0-48.61l-1.5,1.5,21.88-.55a1.52,1.52,0,0,0,1.5-1.5c-.26-7.68-.37-15.31-.21-23l-1.5,1.5L73.11,20.5,71.61,19c-.06,4.47-.16,9-.21,13.42a1.5,1.5,0,0,0,1.5,1.5,74.6,74.6,0,0,1,24.4.86l-1.1-1.44c-.07,6.46-.1,12.92-.17,19.38a1.5,1.5,0,0,0,3,0c.07-6.46.1-12.92.17-19.38a1.51,1.51,0,0,0-1.1-1.45,77.27,77.27,0,0,0-25.2-1l1.5,1.5c0-4.47.15-9,.21-13.42a1.51,1.51,0,0,0-1.5-1.5L45.43,20.35a1.54,1.54,0,0,0-1.5,1.5c-.16,7.68,0,15.31.21,23l1.5-1.5-21.88.55a1.52,1.52,0,0,0-1.5,1.5q0,24.3,0,48.61a1.5,1.5,0,0,0,3,0Z"/><path d="M48.32,71.29c7.26-9.52,19.42-16.24,31.35-11.36,6,2.45,9.72,7.44,11.42,13.58,1.48,5.33.63,10.06.8,15.39,0,1.93,3.06,1.94,3,0-.22-7,.71-13.07-2.16-19.84A21.82,21.82,0,0,0,80,56.83c-13.26-4.9-26.29,2.48-34.27,12.94-1.17,1.54,1.44,3,2.59,1.52Z"/><path d="M47.05,71.43a19.4,19.4,0,0,1,10-6.29c6.24-1.45,9.55,3.33,11.31,8.5,1.92,5.62,1.18,11.49,1,17.31l1.5-1.5-17.06.47c-1.36,0-2.2,2.16-.76,2.79a100.05,100.05,0,0,1,16.62,9.19,92.14,92.14,0,0,1,8.55,6.68c1.15,1,2.56,2.82,4.23,3.13a5,5,0,0,0,3.31-1c3.37-1.87,6.51-4.68,9.64-6.93L113.07,91.1c1.09-.79.87-2.92-.75-2.8L92.55,89.77c-1.91.15-1.93,3.15,0,3l19.77-1.47-.76-2.79-15.26,11-7.23,5.2a27.05,27.05,0,0,1-4,2.88c-2,.93-2.19.76-4.06-.52-3.89-2.65-7.27-6.06-11.23-8.69a100.33,100.33,0,0,0-15.19-8.22l-.76,2.8,17.06-.47a1.53,1.53,0,0,0,1.5-1.5c.22-8.58,1.18-18.48-4.92-25.54-6.38-7.39-17.2-2.06-22.53,3.9-1.29,1.43.83,3.56,2.12,2.12Z"/></svg>