<svg id="Ebene_1" data-name="Ebene 1" xmlns="http://www.w3.org/2000/svg" viewBox="0 0 128 128"><title>Icon</title><path d="M105,31H45a5,5,0,0,0-5,5V49a3,3,0,0,0-.31,0H30.57a4.31,4.31,0,0,0-3.79,2.26l-4.56,8.48A4.31,4.31,0,0,1,18.43,62H17.31A4.31,4.31,0,0,0,13,66.31V84.68A4.3,4.3,0,0,0,17.31,89h7.17a10,10,0,0,1,19.76.94A4.78,4.78,0,0,0,45,90H75.48A8.23,8.23,0,1,0,90.8,90H105a5,5,0,0,0,5-5V36A5,5,0,0,0,105,31ZM40,62.48A1.52,1.52,0,0,1,38.48,64h-9A1.52,1.52,0,0,1,28,62.48l3-6A1.77,1.77,0,0,1,32.52,55h6A1.52,1.52,0,0,1,40,56.52ZM100,76H50V41h50Z"/><path d="M34.28,84.76A8.23,8.23,0,1,0,42.51,93,8.22,8.22,0,0,0,34.28,84.76Z"/></svg>