<svg id="Ebene_1" data-name="Ebene 1" xmlns="http://www.w3.org/2000/svg" viewBox="0 0 128 128"><title>Icon</title><path d="M64,13.6A50.4,50.4,0,1,0,114.4,64,50.39,50.39,0,0,0,64,13.6Zm21.6,64A13.17,13.17,0,0,1,72.45,90.75H68.21L69.4,99.1H58.6l1.19-8.35h-12V80H72.45A2.35,2.35,0,0,0,74.8,77.6V71a2.36,2.36,0,0,0-2.35-2.36H57A13.17,13.17,0,0,1,43.87,55.51V50.4A13.17,13.17,0,0,1,57,37.25h2.76L58.6,28.9H69.4l-1.19,8.35h12v10.8H57a2.36,2.36,0,0,0-2.36,2.35v5.11A2.36,2.36,0,0,0,57,57.86H72.45A13.17,13.17,0,0,1,85.6,71Z"/></svg>