<svg id="Ebene_1" data-name="Ebene 1" xmlns="http://www.w3.org/2000/svg" viewBox="0 0 128 128"><title>Icon</title><path d="M65.33,104.84q.18-41.41-1-82.8c-.06-1.93-3.06-1.94-3,0q1.17,41.39,1,82.8a1.5,1.5,0,0,0,3,0Z"/><path d="M60.11,22.58c.43,9-9.58,15.89-14.63,22.43-4.57,5.93-8.26,12.79-8.81,20.39C35.68,79,47.26,91,61,90.59c14-.41,24.92-12.3,25.4-26C87,46,69.11,37.7,63.28,21.79c-.66-1.8-3.56-1-2.89.8A47.24,47.24,0,0,0,69.5,37.8c5.09,5.77,10.8,10.93,12.92,18.63,4.11,15-6.51,31.86-23,31.15a21.45,21.45,0,0,1-17.6-11.09c-3.95-7.31-2.2-16,1.58-23,3.4-6.28,8.44-11.29,13.12-16.59,3.65-4.13,6.81-8.55,6.54-14.29-.09-1.92-3.09-1.93-3,0Z"/><path d="M65.33,73.58l8.61-7.79,4.31-3.89c1.12-1,3.13-3.61,4.61-4l-1.46-.39.41.34-.39-1.46-.11.44c-.46,1.88,2.43,2.68,2.89.8l.11-.44a1.48,1.48,0,0,0-.38-1.46c-2.66-2.2-5.45,1.9-7.26,3.54L63.2,71.46c-1.43,1.29.7,3.41,2.13,2.12Z"/><path d="M63.81,69A105.5,105.5,0,0,1,40.57,57c-1.6-1.09-3.1,1.51-1.51,2.59A108.72,108.72,0,0,0,63,71.84c1.81.66,2.6-2.24.79-2.89Z"/></svg>