<svg id="Ebene_1" data-name="Ebene 1" xmlns="http://www.w3.org/2000/svg" viewBox="0 0 128 128"><title>Icon</title><path d="M35.53,101A531.82,531.82,0,0,1,37,28.17l-1.1,1.44a31,31,0,0,1,9.3-.62l-1.5-1.5.08,34.79a1.51,1.51,0,0,0,1.89,1.45c1.92-.67,5.62-2.32,7.6-1.08.66.41,1.84,2.41,2.27,2.95a107,107,0,0,0,7.8,8.69,1.52,1.52,0,0,0,2.56-1.07l.88-13-2.56,1.06L77,75.05A1.52,1.52,0,0,0,79.6,74l.62-16.74L78,58.53a61.42,61.42,0,0,1,9.36,8.13c3.61,3.9,5,6.65,5,11.81q0,12.27,0,24.52a1.5,1.5,0,0,0,3,0l0-16c0-4.32.6-9.13-.18-13.4-1.35-7.37-10-13.58-15.71-17.62a1.52,1.52,0,0,0-2.26,1.3L76.6,74l2.56-1.06L66.33,59.12a1.52,1.52,0,0,0-2.56,1.06l-.88,13,2.56-1.06c-1.77-1.77-3.49-3.59-5.13-5.48s-3.66-6-5.57-7.05c-2.65-1.52-7.2.27-9.88,1.21l1.9,1.44-.08-34.79a1.54,1.54,0,0,0-1.5-1.5,33.53,33.53,0,0,0-10.09.73A1.54,1.54,0,0,0,34,28.17,531.82,531.82,0,0,0,32.53,101c.09,1.92,3.09,1.93,3,0Z"/><path d="M33,103.8q30.87.51,61.72,1.66c1.93.07,1.93-2.93,0-3Q63.84,101.32,33,100.8a1.5,1.5,0,0,0,0,3Z"/></svg>