<svg id="Ebene_1" data-name="Ebene 1" xmlns="http://www.w3.org/2000/svg" viewBox="0 0 128 128"><title>Icon</title><path d="M42.4,44.12l0-8.25c0-2.26-.58-2.72,3.06-3,.82-.06,2.3.44,3.15.47l-1.5-1.5.11,11.92a1.52,1.52,0,0,0,1.5,1.5c10.54-.68,21.11-.35,31.66-.63a1.52,1.52,0,0,0,1.5-1.5l-.24-11.8-1.1,1.45a31.43,31.43,0,0,1,7.61-.66l-1.5-1.5,1.26,11.82a1.52,1.52,0,0,0,1.5,1.5,77.91,77.91,0,0,1,12.87.23l-1.5-1.5.75,8.63,1.5-1.5L89.68,48.56a1.51,1.51,0,0,0-1.5,1.5c-.21,4.24-.35,8.48-.56,12.72a1.52,1.52,0,0,0,1.5,1.5l13,0-1.5-1.5.29,9.81,1.89-1.44a43,43,0,0,0-14.34-2.14,1.51,1.51,0,0,0-1.5,1.5,109,109,0,0,1,.46,11.71,1.5,1.5,0,0,0,1.5,1.5,55.27,55.27,0,0,1,12.53.12l-1.5-1.5-.37,6.91,1.5-1.5a42.81,42.81,0,0,0-13.5,1.67,1.54,1.54,0,0,0-1,1.85,34.69,34.69,0,0,1,.79,8.37l1.1-1.45a36.87,36.87,0,0,1-8.4.11l1.5,1.5.1-9.5a1.54,1.54,0,0,0-1.5-1.5,283.83,283.83,0,0,0-28.58-.51c-2,.07-5.45-.49-6.94,1.27-1.77,2.09-.34,6.81-.16,9.16l1.5-1.5a21.62,21.62,0,0,1-8.7-1.18l1.1,1.45a48.85,48.85,0,0,1,.06-8.38,1.49,1.49,0,0,0-1.1-1.45,33.68,33.68,0,0,0-10.51,0l1.9,1.45c.27-2.23,0-5.71,2.18-6.45s6.47.58,8.56,1a1.51,1.51,0,0,0,1.9-1.45,74.15,74.15,0,0,1-.16-11.83,1.52,1.52,0,0,0-1.5-1.5l-11.4-.39,1.5,1.5q0-4.25,0-8.49L28.22,63l11.87-.51a1.52,1.52,0,0,0,1.5-1.5c-.19-3.46-.21-6.93-.4-10.4a1.52,1.52,0,0,0-1.5-1.5L27.28,50l1.5,1.5.31-3.9c.9-2,2.31-2.82,4.22-2.38,2.22-.42,5,0,7.22,0a1.5,1.5,0,0,0,0-3l-8.12,0c-1.31,0-3.59-.33-4.79.48C25.3,44.3,26,49.29,25.78,51.54a1.5,1.5,0,0,0,1.5,1.5l12.41-.91-1.5-1.5c.19,3.47.21,6.94.4,10.4l1.5-1.5L28.22,60a1.54,1.54,0,0,0-1.5,1.5q0,4.25,0,8.49a1.54,1.54,0,0,0,1.5,1.5l11.4.39-1.5-1.5a74.17,74.17,0,0,0,.16,11.83l1.9-1.44c-3.17-.67-9.14-2.45-12.09-.73-2.63,1.54-2.14,6.5-2.45,9-.13,1.07,1.06,1.57,1.9,1.44a28.33,28.33,0,0,1,8.91,0l-1.1-1.44a48.86,48.86,0,0,0-.06,8.38A1.58,1.58,0,0,0,36.43,99a23.41,23.41,0,0,0,9.5,1.28,1.52,1.52,0,0,0,1.5-1.5,28.82,28.82,0,0,1-.38-4.88c-.62-1.25-.32-1.92.88-2a4.09,4.09,0,0,1,2.75-.48,90.1,90.1,0,0,1,9.3-.19c6.71,0,13.42.22,20.13.67l-1.5-1.5-.1,9.5a1.54,1.54,0,0,0,1.5,1.5,40.34,40.34,0,0,0,9.19-.21,1.52,1.52,0,0,0,1.11-1.45,38.16,38.16,0,0,0-.9-9.17l-1,1.85a40.12,40.12,0,0,1,12.7-1.57,1.52,1.52,0,0,0,1.5-1.5l.37-6.91a1.54,1.54,0,0,0-1.5-1.5,55.27,55.27,0,0,0-12.53-.12l1.5,1.5a109,109,0,0,0-.46-11.71l-1.5,1.5a40.4,40.4,0,0,1,13.55,2,1.52,1.52,0,0,0,1.9-1.45l-.29-9.81a1.53,1.53,0,0,0-1.5-1.5l-13,0,1.5,1.5c.21-4.24.35-8.48.56-12.72l-1.5,1.5L103,52.79a1.5,1.5,0,0,0,1.5-1.5l-.75-8.63a1.54,1.54,0,0,0-1.5-1.5,77.91,77.91,0,0,0-12.87-.23l1.5,1.5L89.62,30.61a1.54,1.54,0,0,0-1.5-1.5,35,35,0,0,0-8.41.76,1.53,1.53,0,0,0-1.1,1.45l.24,11.8,1.5-1.5c-10.55.28-21.12,0-31.66.63l1.5,1.5-.11-11.92a1.52,1.52,0,0,0-1.5-1.5c-2.91-.08-6.76-2.25-8.7,1.07-1.78,3.06-.49,9.27-.48,12.72a1.5,1.5,0,0,0,3,0Z"/><path d="M50,52c9.87,1,20,1.79,29.87.84l-1.45-1.1a36.83,36.83,0,0,1,1.21,10.4l1.5-1.5c-5.28.4-10.44-.46-15.72-.47s-10.71.38-15.91-.78l1.1,1.44c.12-3.09.12-6.18.23-9.26.08-1.93-2.92-1.93-3,0-.11,3.08-.11,6.17-.23,9.26a1.52,1.52,0,0,0,1.11,1.45c5,1.11,10.13.91,15.2.89,5.76,0,11.47.91,17.22.47a1.54,1.54,0,0,0,1.5-1.5,40.26,40.26,0,0,0-1.31-11.2,1.53,1.53,0,0,0-1.45-1.1c-9.91,1-20,.17-29.87-.84-1.92-.2-1.91,2.8,0,3Z"/><path d="M48.55,72c10.53.41,21.07-.09,31.59.33l-1.44-1.9A29.78,29.78,0,0,0,78.07,81l1.5-1.5c-6.28.16-12.57.29-18.85.43-3,.07-6.07.13-9.1.21-2.25,0-2.21,0-2.35-2.18s0-4.43-.25-6.67c-.2-1.9-3.21-1.92-3,0,.38,3.49-.45,7.34.2,10.71a1.46,1.46,0,0,0,1.05,1c4.56,1,10.38,0,15-.14,5.75-.13,11.51-.25,17.26-.4a1.51,1.51,0,0,0,1.5-1.5,27.17,27.17,0,0,1,.52-9.76,1.52,1.52,0,0,0-1.45-1.9c-10.52-.42-21.06.08-31.59-.33-1.93-.08-1.93,2.92,0,3Z"/></svg>