<svg id="Ebene_1" data-name="Ebene 1" xmlns="http://www.w3.org/2000/svg" viewBox="0 0 128 128"><title>Icon</title><path d="M42,82.67c-3.54-4.84-9.86-3.39-13.69.4-4,4-3.66,11.53,1.69,14.13,4.41,2.15,11.54,1.08,14.5-3.06,3.39-4.75.67-12-4.46-14.12-1.78-.75-2.55,2.15-.8,2.89,4,1.7,5.16,8.27,1.45,10.78A10.65,10.65,0,0,1,33,95a5.71,5.71,0,0,1-3.49-8.83c1.91-2.9,7.32-5.54,9.89-2,1.13,1.54,3.73,0,2.59-1.52Z"/><path d="M23.78,85.59q.36-10.36.28-20.73c0-2.85-1.14-7.8.87-9.82s8-1,10.86-1l9.84,0c1.72,0,4.6.49,6.2-.47,3.18-1.91,1.61-9.05,1.35-11.8-.18-1.91-3.18-1.93-3,0,.31,3.28,1.55,7.93-2.59,9.26-2.91.94-7.74,0-10.81,0-3.28,0-6.56,0-9.84,0-1.5,0-3.18-.1-4.45.85-3.1,2.31-1.47,8.79-1.43,11.92q.11,10.86-.28,21.72c-.06,1.93,2.94,1.93,3,0Z"/><path d="M53.27,42.19l23.86.69,10.94.32c5.34.15,11.1,0,11.37,7.25.26,7.14-.45,14.26-.46,21.4,0,3.44,1.9,10-2.62,11.34-2,.61-4.62-.14-6.81.41-1.87.47-1.08,3.36.79,2.89,5.8-1.45,12.18,1.12,11.92-7.21-.32-10.45,1.13-21.22,0-31.62-.82-7.87-7.75-7.27-14.22-7.46l-34.8-1c-1.93,0-1.93,3,0,3Z"/><path d="M83.53,80.34c-5.37-4.07-11.47.43-13.58,5.73-1,2.48-1.52,5.17.45,7.29a14.6,14.6,0,0,0,8.47,4.2,9.49,9.49,0,0,0,11-9.31C90,82.92,85.34,78,80,80.77c-1.72.9-.2,3.49,1.51,2.59,4.43-2.32,6.09,4.06,5,7.16-1.31,3.81-5.51,4.75-9,3.7A12.93,12.93,0,0,1,74,92.46c-2.43-1.67-1.89-4.44-.62-6.7,1.79-3.16,5.3-5.36,8.63-2.83,1.54,1.17,3-1.44,1.52-2.59Z"/><path d="M46,89.51c3.92-1,8.2-.45,12.21-.61,3.76-.16,7.5-.44,11.25-.71,1.91-.14,1.93-3.14,0-3-4.37.32-8.74.64-13.12.78-3.73.11-7.5-.26-11.14.65-1.87.47-1.08,3.36.8,2.89Z"/><path d="M50.34,41.75q-.18,19.11,1.38,38.15a1.54,1.54,0,0,0,1.5,1.5c7.85.13,15.47-.76,23.27-1.3,3.21-.22,6.43.07,9.64,0,4.25-.17,8.33-.85,12.57-.12,1.89.33,2.7-2.57.8-2.89-6.84-1.18-14.52-.23-21.45,0-8.31.26-16.47,1.52-24.83,1.38l1.5,1.5q-1.56-19-1.38-38.15a1.5,1.5,0,0,0-3,0Z"/><path d="M24.94,58.38q-.07,4.92.13,9.82a1.52,1.52,0,0,0,1.5,1.5q6.38-.67,12.76-.82a1.51,1.51,0,0,0,1.5-1.5l-.63-8.59a1.53,1.53,0,0,0-1.5-1.5l-11.89-.21a1.5,1.5,0,0,0,0,3l11.89.21-1.5-1.5.63,8.59,1.5-1.5q-6.39.15-12.76.82l1.5,1.5q-.21-4.9-.13-9.82c0-1.93-3-1.93-3,0Z"/><path d="M22.81,88.63a6.9,6.9,0,0,1,2.71.29c1.85.57,2.64-2.32.8-2.89a9.48,9.48,0,0,0-3.51-.4,1.54,1.54,0,0,0-1.5,1.5,1.51,1.51,0,0,0,1.5,1.5Z"/></svg>