<svg id="Ebene_1" data-name="Ebene 1" xmlns="http://www.w3.org/2000/svg" viewBox="0 0 128 128"><title>Icon</title><path d="M55.35,97.94c5.4-.49,11.67-1.9,17-.71,6.54,1.46,7.84,6.48,7.45,12.39-.12,1.95,2.8,1.88,3,0,.66-6.12,2.87-13.35-.43-19A18.06,18.06,0,0,0,71.14,82c-1.88-.46-2.68,2.44-.8,2.89a14,14,0,0,1,10.36,10c1.06,4.6-.36,10-.87,14.73h3c.36-5.5-.27-10.73-5.46-13.7-6.45-3.7-15.09-1.61-22-1-1.91.18-1.93,3.18,0,3Z"/><path d="M32.52,74.06A100.28,100.28,0,0,1,57.2,20.43l-2.56-1.06a230.25,230.25,0,0,1-5.41,41.74c-.42,1.88,2.48,2.68,2.9.79a235.18,235.18,0,0,0,5.51-42.53,1.52,1.52,0,0,0-2.56-1.06A103.69,103.69,0,0,0,29.52,74.06c-.25,1.9,2.75,1.89,3,0Z"/><path d="M53.14,22Q46.24,50.4,37,78.11c-.61,1.83,2.28,2.62,2.89.79Q49.13,51.19,56,22.8c.45-1.87-2.44-2.67-2.9-.8Z"/><path d="M29.64,73.33a42.39,42.39,0,0,0,4,17.28c.81,1.75,3.4.22,2.59-1.52a38.49,38.49,0,0,1-3.62-15.76c0-1.93-3-1.93-3,0Z"/><path d="M51.65,68.1a5.5,5.5,0,0,1,5.79-6.48,1.52,1.52,0,0,0,1.45-1.9Q59.24,53,64.25,55c1.19.4,2-.81,1.85-1.85-.65-3.85,1.9-6.72,5.57-7.26a1.47,1.47,0,0,0,1.1-1.44l4.55-2.72a1.52,1.52,0,0,0,2.2-.9,8.35,8.35,0,0,1,1.44-3c.71-1.67,2.11-1.84,4.22-.51a1.52,1.52,0,0,0,2.74.36q2.86-5.12,4.91,2.88a1.51,1.51,0,0,0,.76,2.79q2.79,6.39-2.1,5.34c-1.73-.15-2,2.47-.39,3q4.4,6.36-1.14,6a1.53,1.53,0,0,0-1.84,1.85c-.26,3.48-1.92,4.87-5,4.18a1.51,1.51,0,0,0-1.69,2.2q2.51,6.83-5.43,5.85a1.5,1.5,0,0,0-1.51,2.59l-3.23,3a12.8,12.8,0,0,0-1.64.13c-.94.31-2,.34-3,.63a1.51,1.51,0,0,0,.4,3q-1.44,3.52-4.48,2a1.51,1.51,0,0,0-1.16,2.75q-2.65,3.33-5.67,1.63a1.52,1.52,0,0,0-1.9,1.45l-5.29,2.36c-1.49-1.19-3.63.92-2.12,2.12,4.5,3.57,10,1.27,10.41-4.48l-1.9,1.44c3,1.06,7,2,9.09-1.12a4.13,4.13,0,0,0-1.1-6l-1.16,2.74c3,.68,7.4,1.06,8.61-2.6A3.87,3.87,0,0,0,67,78l.4,3c3.37-1,7.75,0,9.77-3.66,1.21-2.16.86-4.3-1.22-5.62l-1.51,2.59c6.77,3.06,13-3.26,9.53-10l-1.69,2.2A6.81,6.81,0,0,0,91,58.64l-1.84,1.85c8,1.09,10.61-9.37,2.72-11.76l-.4,3c8.54.73,10.81-11.32,2.1-11.34l.76,2.8c3.29-2.15,4.14-7.1.78-9.73s-7.92-.58-9.8,2.75l2.74.36a4.74,4.74,0,0,0-5.75-3.36c-3.27.72-4.65,4.06-5.69,6.88l2.2-.89c-4.4-3.12-9.66-.08-9.06,5.31L70.87,43c-5.44.8-8.56,5.66-7.67,11l1.85-1.85c-5.72-2-10.43,2.67-9,8.41l1.44-1.9a8.41,8.41,0,0,0-8.79,9.48c.23,1.89,3.24,1.92,3,0Z"/><path d="M35.5,93.76a19,19,0,0,0,11.92,2.76c1.9-.19,1.92-3.19,0-3A16.35,16.35,0,0,1,37,91.17c-1.65-1-3.16,1.58-1.51,2.59Z"/></svg>