<svg id="Ebene_1" data-name="Ebene 1" xmlns="http://www.w3.org/2000/svg" viewBox="0 0 128 128"><title>Icon</title><path d="M41.55,42.21c4.31-11,16.93-13.32,27.42-13.3,5.86,0,12.5.67,16.91,5,5.79,5.66,3.93,12.92-2.27,17.12-6.81,4.62-14.68,6.2-19.34,13.59a24.63,24.63,0,0,0-2.48,20.94c.61,1.82,3.5,1,2.89-.8a21.65,21.65,0,0,1,1.83-18c3.57-6,9.45-8.18,15.35-11.22C90,51.31,96,43.16,90.16,34.38c-6.09-9.1-19-9.18-28.75-8.08s-19,5.56-22.75,15.11c-.71,1.8,2.19,2.58,2.89.8Z"/><path d="M65.09,94.49c-2,.28-4.12.73-5.44,2.37a4.3,4.3,0,0,0-.23,5.31,3.76,3.76,0,0,0,5.13.4c1.93-1.36,2.24-3.75,2.38-5.93.13-1.93-2.87-1.92-3,0-.07,1-.08,2.47-.87,3.29-.38.39-1.17.79-1.43.12s.45-1.52,1-1.85a9.2,9.2,0,0,1,3.24-.81,1.53,1.53,0,0,0,1-1.85,1.55,1.55,0,0,0-1.85-1.05Z"/></svg>