<svg id="Ebene_1" data-name="Ebene 1" xmlns="http://www.w3.org/2000/svg" viewBox="0 0 128 128"><title>Icon</title><path d="M36.62,48.27a485,485,0,0,0,3.93,54.4,1.54,1.54,0,0,0,1.5,1.5,365.88,365.88,0,0,0,40.83.27,1.54,1.54,0,0,0,1.5-1.5l3.05-26.4,1.46-12.71L89.57,58c.16-1.33,0-6.87,1.06-7.71L88.27,50l.25.36.54-2.05-.26.17c-1.6,1.07-.1,3.67,1.51,2.59l.27-.17a1.51,1.51,0,0,0,.53-2.05l-.25-.37a1.53,1.53,0,0,0-2.35-.3c-2,1.55-1.46,5.69-1.71,7.88L85,71.65l-3.61,31.29,1.5-1.5a365.88,365.88,0,0,1-40.83-.27l1.5,1.5a485,485,0,0,1-3.93-54.4c0-1.92-3-1.93-3,0Z"/><path d="M31.71,44.78c-.69-1,4.39-2.68,5.17-2.83a31.26,31.26,0,0,1,3.87-.2q3.87-.18,7.74-.27,8.22-.21,16.45,0,7.74.16,15.47.65c2.57.17,5.15.36,7.72.58L92,43c.75.08,4.58-.14,2.31,1.6-1.06.81-6.28-.23-7.68-.3-2.57-.13-5.13-.3-7.69-.47-5.12-.35-10.24-.75-15.37-1C52.7,42.16,41.85,42,31,43.38c-1.89.24-1.91,3.24,0,3,16-2,31.92-.6,47.88.48,3.84.26,7.68.5,11.53.65,2.1.08,5,.61,7-.29,2.5-1.11,3.89-4.44,1.13-6.23-2-1.32-6.32-.93-8.54-1.14q-6.26-.57-12.54-.92-11.6-.65-23.22-.55c-3.27,0-32-1.69-25.17,7.91,1.11,1.56,3.71.06,2.59-1.51Z"/><path d="M55.24,36.57c-2.92-5.53,6.93-4,9.17-3.94l9.93.48-1.5-1.5-.61,7.06c-.17,1.92,2.83,1.91,3,0l.61-7.06a1.5,1.5,0,0,0-1.5-1.5l-10.69-.52c-2.6-.13-5.85-.82-8.36.18-3.4,1.35-4.22,5.32-2.64,8.32.9,1.7,3.49.19,2.59-1.52Z"/><path d="M61.27,56.07l.58,16c.15,4.11-.63,9.63.81,13.48a1.56,1.56,0,0,0,1.84,1l.41-.06a1.44,1.44,0,0,0,1-1l.06-.34c.35-1.88-2.54-2.69-2.89-.79l.57-.66,1.85,1c-1.51-4-.61-10.26-.76-14.56l-.52-14.15c-.07-1.92-3.07-1.93-3,0Z"/><path d="M75.83,83.13l1.23-27.08c.09-1.93-2.91-1.92-3,0L72.83,83.13c-.09,1.93,2.91,1.92,3,0Z"/><path d="M47.41,55.67,49.7,85.8c.15,1.92,3.15,1.93,3,0L50.41,55.67c-.15-1.91-3.15-1.93-3,0Z"/></svg>