<svg id="Ebene_1" data-name="Ebene 1" xmlns="http://www.w3.org/2000/svg" viewBox="0 0 128 128"><title>Icon</title><path d="M83.36,28.55c-7,0-14,.12-21,.51-4.13.24-10.93-.6-13.79,3.25C45.24,36.82,44,44,42.2,49.27q-3.64,10.6-7.05,21.3a1.51,1.51,0,0,0,1.44,1.9l15.27-1.28-1.45-1.9a321.29,321.29,0,0,0-10.82,37.84,1.51,1.51,0,0,0,2.51,1.46L92.85,59.44a1.52,1.52,0,0,0-1.06-2.56q-11-.52-22-.38l1.45,1.9Q76.44,44,82.86,30.22c.81-1.74-1.78-3.26-2.59-1.51Q73.7,42.9,68.37,57.6a1.51,1.51,0,0,0,1.45,1.9q11-.15,22,.38l-1.06-2.56L40,106.47l2.5,1.46A324.61,324.61,0,0,1,53.3,70.09a1.51,1.51,0,0,0-1.44-1.9L36.59,69.47,38,71.37Q43.23,55.1,49,39c2.74-7.66,10.39-6.84,17.19-7.15,5.73-.26,11.46-.35,17.19-.32a1.5,1.5,0,0,0,0-3Z"/></svg>