<svg id="Ebene_1" data-name="Ebene 1" xmlns="http://www.w3.org/2000/svg" viewBox="0 0 128 128"><title>Icon</title><path d="M107,29.16c-5-8.29-19.11-8.94-26.91-4.51C70.9,29.91,66.36,44,74.7,51.7c8,7.37,21,10.66,29.68,2.45,7.15-6.8,11.79-20.72,2-27.22-1.61-1.07-3.11,1.53-1.51,2.59,8.65,5.71,2.44,19.56-4.53,24.09-7.6,4.92-17.31,1.65-23.47-4-4.6-4.24-4.41-9.39-1.62-14.69,2-3.8,4.55-7.26,8.79-8.66,6.33-2.11,16.64-1.89,20.46,4.45A1.5,1.5,0,0,0,107,29.16Z"/><path d="M12.86,68.38q10.5,18.9,20.34,38.15a1.48,1.48,0,0,0,1.3.74L80,105.87a1.52,1.52,0,0,0,1.3-2.26Q68.1,84.73,55.84,65.24l-2.59,1.51.75,1c1.13,1.53,3.74,0,2.59-1.52l-.75-1c-1.11-1.52-3.64-.16-2.59,1.51q12.25,19.48,25.43,38.37L80,102.87l-21.74.67-10.88.33c-2.9.09-8.16,1.29-10.87.34s-4-5.62-5.19-7.93Q28.58,91,25.8,85.85q-5.09-9.54-10.35-19c-.93-1.68-3.53-.17-2.59,1.52Z"/><path d="M13.76,68l39.16-.68c1.92,0,1.93-3,0-3L13.76,65c-1.93,0-1.93,3,0,3Z"/><path d="M60.23,102.2,38.58,66.54c-1-1.65-3.6-.14-2.59,1.51l21.65,35.67c1,1.65,3.6.14,2.59-1.52Z"/><path d="M50.14,21.34c3.58.4,8.16,1.09,10.21,4.57,2.13,3.64.28,6.55-2.57,8.57-3.55,2.51-8.23,3.15-12.19,4.9-1.66.72-.4,3,1.15,2.74,5-.91,13.67-1.57,13.76,5.67.08,5.61-6.31,7.89-10.61,9.43L51,60c5.59-2.45,13-5.48,18.6-1.38S73,69.41,70.94,74.75l2.9.79c3.1-12.7,21.15-9.79,20.29,3.24-.13,1.94,2.83,1.91,3,0,.35-4,1.74-8.3,5.37-10.54,4.57-2.83,11-.42,10.79,5.4-.08,1.93,2.92,1.93,3,0A9.32,9.32,0,0,0,105.66,64c-7.46,1-10.94,8-11.53,14.79h3c.46-6.9-4.25-13.69-11.34-14.69-6.93-1-13.25,4.11-14.85,10.66a1.5,1.5,0,0,0,2.9.79c2.52-6.46,4.29-14.7-2.32-19.39-6.79-4.82-15.17-1.77-22,1.22-1.55.68-.44,3.31,1.15,2.74,6-2.16,14.41-6.18,12.89-14C62,37.89,52.25,38.07,46,39.22L47.1,42C53.16,39.3,63.76,38,64.3,29.44c.49-7.73-8.09-10.42-14.16-11.1-1.92-.22-1.9,2.78,0,3Z"/></svg>