<svg id="Ebene_1" data-name="Ebene 1" xmlns="http://www.w3.org/2000/svg" viewBox="0 0 128 128"><title>Icon</title><path d="M28.65,56.1l78.12.2L105.48,54Q96.89,66.1,89.31,78.82c-1,1.69-2.2,5.2-3.7,6.41-2,1.59-4.92,1.07-7.33,1.16L62.82,87c-5,.18-10.44,1-15.45.58-3.35-.28-3.52-.9-5.17-3.81q-1.77-3.1-3.64-6.17a267.43,267.43,0,0,0-15.82-23c-1.16-1.52-3.76,0-2.59,1.51A266.21,266.21,0,0,1,42.21,90a1.51,1.51,0,0,0,1.3.75l23.18-.88,10.62-.4c2.22-.09,7.24.61,9.27-.46,1.73-.91,2.51-3.8,3.46-5.44q2.77-4.82,5.7-9.52c3.91-6.29,8-12.43,12.33-18.46a1.51,1.51,0,0,0-1.3-2.25l-78.12-.2a1.5,1.5,0,0,0,0,3Z"/><path d="M49.59,92.67c-3.17-.81-7.87-1.06-8.84,3C39.94,99,43.12,102,46,102.82s6.31.11,7.78-2.63A3.58,3.58,0,0,0,53.34,96c-1.33-1.48-3.23-1.48-4.92-2.26s-3.27,1.78-1.52,2.59c.92.42,3.63.69,4.14,1.59,1.17,2-2.81,2.29-3.67,2.13-1.43-.28-3.3-1.33-3.65-2.86-.68-2.9,3.62-2,5.07-1.65,1.87.48,2.67-2.42.8-2.89Z"/><path d="M82.51,92C79.25,90.87,75,93,73.65,96.1s1.14,5.72,4.06,6.34,6.89-.52,8.1-3.53c1.11-2.76-.9-6.4-4.07-6.12-1.91.17-1.92,3.17,0,3,2.09-.18,1.36,2.44.18,3.16a5.07,5.07,0,0,1-3.88.49c-4.3-1.27.9-5.5,3.67-4.5,1.82.65,2.61-2.25.8-2.9Z"/><path d="M27.25,50.84c3.06-4.13,6.37-8.66,11.2-10.83,4.5-2,10.31-1.49,13,3.05a1.52,1.52,0,0,0,2.59,0c6.71-9.66,16.5-18.93,27.75-9.39,6.44,5.47,11.64,11.56,19,16a1.5,1.5,0,0,0,1.51-2.59A76,76,0,0,1,87.71,35.13c-3.38-3.39-7-6.9-11.73-8.25-11-3.13-19,6.74-24.49,14.67h2.59c-2.83-4.71-8.3-6.48-13.59-5.38-7.1,1.46-11.76,7.66-15.83,13.15-1.15,1.56,1.45,3,2.59,1.52Z"/></svg>