<svg id="Ebene_1" data-name="Ebene 1" xmlns="http://www.w3.org/2000/svg" viewBox="0 0 128 128"><title>Icon</title><path d="M13.74,51.43l9.27.08-1.44-1.1c3.95,14.13,11,27.18,15.58,41.08a1.54,1.54,0,0,0,1.45,1.1,537.05,537.05,0,0,1,56.88-1.35,1.47,1.47,0,0,0,1.29-.75,147.48,147.48,0,0,0,7-19.62c1.07-3.56,2.13-7.12,3.31-10.65.56-1.67,1.13-3.34,1.77-5,1.53-4,2.8-5.45,7.43-3.36,1.75.79,3.28-1.79,1.52-2.59-2.29-1-6.37-2.48-8.78-1-1.86,1.14-2.87,5.57-3.58,7.53-3.17,8.62-5.3,17.59-8.4,26.24-.61,1.7-1.32,5.1-2.85,5.9-1.91,1-6.06.07-8.14,0q-7.71-.11-15.42,0c-10.68.18-21.34.76-32,1.57l1.45,1.1C35.42,76.8,28.41,63.74,24.46,49.61A1.54,1.54,0,0,0,23,48.51l-9.27-.08a1.5,1.5,0,0,0,0,3Z"/><path d="M30,54.31c3.79,5.71,9.18,9.06,14.85,3.57,1.68-1.63,3-3.9,5.05-5.13,4.25-2.55,7.76-.3,10.91,2.49,2.22,2,4.48,4.18,7.64,4.14,3.53,0,5.59-2.77,8-4.94,3.43-3.11,7.32-4.18,11-.9,1.4,1.24,2.36,2.8,4.06,3.69,3.68,1.94,12.78-1.76,9.24-6.53A1.53,1.53,0,0,0,99.11,50a2,2,0,0,0-1.53,1.61,1.54,1.54,0,0,0,.69,1.69l.27.15a1.5,1.5,0,0,0,1.51-2.59l-.26-.15.69,1.69-.57.49-1.7-.69q-.84,4.29-6.37,1.57c-.62-.6-1.21-1.23-1.78-1.88a16,16,0,0,0-2.14-2,8.37,8.37,0,0,0-6.39-1.48,14.57,14.57,0,0,0-7.2,4c-1.18,1.08-2.19,2.62-3.64,3.36-3.35,1.71-5.15-.28-7.27-2.13-3.87-3.37-7.89-6.39-13.3-4.25C43.13,52.06,40,64,32.61,52.79c-1.07-1.6-3.67-.09-2.59,1.52Z"/></svg>