<svg id="Ebene_1" data-name="Ebene 1" xmlns="http://www.w3.org/2000/svg" viewBox="0 0 128 128"><title>Icon</title><path d="M112,74V35.73A7.74,7.74,0,0,0,104.27,28H83.17a7.75,7.75,0,0,0-7.3,5.18L70,50H47.73A7.74,7.74,0,0,0,40,57.73V65H30.39V50.15A2.15,2.15,0,0,0,28.24,48H24a2.16,2.16,0,0,0-2.15,2.1A94.37,94.37,0,0,1,11.7,90.85,2.14,2.14,0,0,0,13.61,94H28.24a2.15,2.15,0,0,0,2.15-2.15V75.11h8.28A11.45,11.45,0,0,0,35,83.5v1.24a11.53,11.53,0,0,0,11.5,11.5h59A11.53,11.53,0,0,0,117,84.74V83.5A11.52,11.52,0,0,0,112,74ZM50,60H71.6a7.74,7.74,0,0,0,7.3-5.18L84.78,38H102V72H50Zm-.82,29a5.51,5.51,0,1,1,5.51-5.51A5.51,5.51,0,0,1,49.18,89Zm17.66,0a5.51,5.51,0,1,1,5.51-5.51A5.51,5.51,0,0,1,66.84,89ZM84.5,89A5.51,5.51,0,1,1,90,83.49,5.51,5.51,0,0,1,84.5,89Zm17.67,0a5.51,5.51,0,1,1,5.51-5.51A5.52,5.52,0,0,1,102.17,89Z"/><path d="M96.13,44H88.8c-1,0-1.88,1.78-1.88,2.71L83.23,57.29c0,1.49.84,2.71,1.87,2.71h11c1,0,1.87-1.22,1.87-2.71V46.71C98,45.22,97.16,44,96.13,44Z"/></svg>