<svg id="Ebene_1" data-name="Ebene 1" xmlns="http://www.w3.org/2000/svg" viewBox="0 0 128 128"><title>Icon</title><path d="M51.18,105.29q0-26.92,1.23-53.82c.09-1.93-2.91-1.92-3,0q-1.21,26.9-1.23,53.82a1.5,1.5,0,0,0,3,0Z"/><path d="M48,107.22l14,.69a1.5,1.5,0,0,0,1.5-1.5c-2.32-18.07-.18-36.42,1-54.51l-1.9,1.45,1.36.57c1.78.75,2.56-2.16.8-2.89l-1.36-.57c-1-.41-1.84.59-1.9,1.44C60.26,70,58.12,88.34,60.44,106.41l1.5-1.5-14-.69c-1.93-.1-1.92,2.9,0,3Z"/><path d="M94.43,46.47a496.79,496.79,0,0,1-62,6.46l1.5,1.5a89.19,89.19,0,0,1,.42-12l-1.5,1.5c22.37.57,44.3-5.4,66.67-4.78l-1.29-2.26C96.9,39,97.05,45.4,95,46.21c-1.77.7-1,3.61.8,2.9,5.09-2,2.61-6.81,5-10.71a1.52,1.52,0,0,0-1.3-2.26c-22.37-.62-44.3,5.35-66.67,4.78a1.54,1.54,0,0,0-1.5,1.5,89.19,89.19,0,0,0-.42,12,1.52,1.52,0,0,0,1.5,1.5,505.85,505.85,0,0,0,62.85-6.56c1.9-.32,1.09-3.21-.8-2.9Z"/><path d="M85.36,50.44c0,5.41,0,10.83.14,16.24a11.14,11.14,0,0,0,.56,3.42c.11.34.57.51.66.78s.33.27.5.4q2,1.41-1.94,4.1c-1.7-.93-3.21,1.66-1.52,2.59,3.71,2,8.8.11,8.31-4.71a6.43,6.43,0,0,0-1.18-2.93,9.2,9.2,0,0,0-1.19-1.06,3.23,3.23,0,0,1-1.21-3.55c-.78-4.82-.09-10.38-.13-15.28a1.5,1.5,0,0,0-3,0Z"/><path d="M54.36,40.88,60.83,22H57.94L62.4,39.63c.47,1.87,3.37,1.08,2.89-.8L60.83,21.22a1.51,1.51,0,0,0-2.89,0L51.46,40.08c-.62,1.83,2.27,2.62,2.9.8Z"/><path d="M37.56,44.23l11.92-9.12a66.7,66.7,0,0,1,6-4.55c3.4-2,6.43-1,10.16-.13l31.66,7.68c1.87.45,2.67-2.44.79-2.9-12.44-3-24.87-6.53-37.41-9.07-4.38-.89-6.23,1.45-9.7,4.1L36,41.64c-1.51,1.16,0,3.76,1.52,2.59Z"/></svg>