<svg id="Ebene_1" data-name="Ebene 1" xmlns="http://www.w3.org/2000/svg" viewBox="0 0 128 128"><title>Icon</title><path d="M19.19,107l9.65-54.13L31.25,39.3a53.28,53.28,0,0,1,1-5.8c1.07-3.47,2-3.13,5.47-3.19l26.58-.42-1.5-1.5a51.09,51.09,0,0,0,2.53,19.86c.61,1.82,3.51,1,2.9-.8a48.74,48.74,0,0,1-2.43-19.06,1.52,1.52,0,0,0-1.5-1.5l-15.19.24c-4.9.08-10.36-.52-15.19.24-1.94.31-3.09.51-4,2.44-1.86,4-1.86,10.11-2.64,14.49l-11,61.87c-.34,1.88,2.55,2.69,2.89.79Z"/><path d="M51.71,65.41l.56,41.53c0,1.93,3,1.94,3,0l-.56-41.53c0-1.93-3-1.94-3,0Z"/><path d="M52.07,67q23.81,0,47.59-1.17l-1.5-1.5c-.69,5.75.27,9.26,4,13.61,4.79,5.62,9.61,11.2,14.42,16.8,1.26,1.46,3.38-.67,2.12-2.12L108,80.16c-1.71-2-3.61-3.92-5.14-6-2.21-3.1-2.16-6.17-1.72-9.82a1.5,1.5,0,0,0-1.5-1.5Q75.87,63.92,52.07,64a1.5,1.5,0,0,0,0,3Z"/><path d="M112.61,99.85A179.72,179.72,0,0,1,96.76,84.11c-1.1-1.24-2.71.13-2.51,1.46a161.33,161.33,0,0,1,1.81,20.59c0,1.92,3,1.93,3,0a168.29,168.29,0,0,0-1.91-21.39l-2.51,1.46A178.37,178.37,0,0,0,110.49,102c1.45,1.27,3.58-.84,2.12-2.12Z"/><path d="M73.58,62.28,68,47.13c-.67-1.8-3.57-1-2.9.79l5.62,15.16c.66,1.79,3.56,1,2.89-.8Z"/><path d="M64.59,79.19A19.7,19.7,0,0,1,81,79.27c4.27,2.19,1.69,4.26,1.56,8.3a28.49,28.49,0,0,0,.31,4.13c.47,4.24-1.93,5.85-5.37,7.77-2.91,1.62-5,3-6.81,5.86l2.74.36c-1.65-5.53-9.93-6.8-9.23-13,.2-1.83,1.4-3.43,1.29-5.37,0-1-2.43-6-1.87-6.17,1.79-.67,1-3.57-.8-2.9a3.51,3.51,0,0,0-2.63,3.49c0,1.23.62,1.78,1,2.88a11.87,11.87,0,0,1,.35,6.65c-.46,2.52-1.32,4.39.05,6.84,2.08,3.74,7.66,4,9,8.42a1.53,1.53,0,0,0,2.75.36c2.5-3.83,4.87-3.8,8.57-5.73,1.7-.88,3.11-1.74,3.85-3.62.85-2.13.29-4.41.06-6.6A17.46,17.46,0,0,1,86,84.26a19.27,19.27,0,0,0,1.38-4c-.42-3.57-6.28-4.22-9.12-4.89C73,74.15,68,74.19,63.07,76.6c-1.73.85-.21,3.44,1.52,2.59Z"/><path d="M80.15,78.19c-3.58,1.36-10.48,9.11-13.47,3-.84-1.73-3.43-.21-2.59,1.52a7,7,0,0,0,7.06,3.7c4-.33,6.25-3.94,9.8-5.3,1.78-.68,1-3.58-.8-2.89Z"/><path d="M72.13,83.1c-2.62,3.29-2.48,7.14-2.2,11.15.27,3.75,1,7.11,4.75,8.67,1.78.75,2.55-2.15.8-2.89-3.92-1.64-3.39-12.09-1.23-14.81,1.2-1.49-.91-3.63-2.12-2.12Z"/><path d="M72.09,57.63c.55-3.4,1.15-6.79,1.83-10.16S74.66,38.54,78.3,37c2.45-1.07,7.09-.5,9.78-.69l11.73-.81-1.44-1.11q5.5,21,13.07,41.24c.67,1.79,3.58,1,2.9-.8a430.85,430.85,0,0,1-13.08-41.23,1.51,1.51,0,0,0-1.45-1.1L84.17,33.55c-2.49.17-7.66-.56-9.65,1S72.46,40,72,42.08c-1.09,4.89-2,9.81-2.81,14.75-.3,1.89,2.59,2.7,2.9.8Z"/></svg>