<svg id="Ebene_1" data-name="Ebene 1" xmlns="http://www.w3.org/2000/svg" viewBox="0 0 128 128"><title>Icon</title><path d="M92.65,110.28c-.35-5.09-.7-10.44.67-15.42,1.53-5.61,5.18-7.91,9.24-11.54,7-6.26,5.42-18.07,5.12-26.47-.11-2.83.58-8-2-10.11-1.83-1.5-4.15-.58-5.41,1.16-2.81,3.9-2,10.2-3.33,14.65A31.91,31.91,0,0,1,87.37,77c-1.45,1.28.68,3.39,2.12,2.12a34.35,34.35,0,0,0,11.1-18.76c.43-2.08.21-4.78.92-6.69q-.23-2.73,2.88-2.57c.08,1.27.15,2.55.21,3.82.22,4.93.39,9.93.12,14.86-.34,6.08-2,9.47-6.74,13.31a20.65,20.65,0,0,0-6,6.72c-3.2,6.22-2.84,13.69-2.37,20.45.13,1.92,3.13,1.93,3,0Z"/><path d="M83.78,82.5C87,79.25,93.82,72.11,92.21,67c-1.76-5.59-8.62-.85-11,1.49-4.44,4.4-11.9,9.94-13,16.48-.63,3.78.31,7.94.72,11.7l1.64,15.22c.19,1.81,3.05,1.83,2.85,0L71.81,96.65c-.6-5.55-2.16-11.24,1.69-15.93a122.3,122.3,0,0,1,9.74-10.24c1.79-1.72,2-2.88,3.86-.66,1.66,1.93,1.24,1.87.11,3.78a34.47,34.47,0,0,1-5.45,6.88,1.43,1.43,0,0,0,2,2Z"/><path d="M40.17,110.28c.46-6.76.82-14.23-2.37-20.45a20.8,20.8,0,0,0-6-6.72C27,79.27,25.43,75.88,25.1,69.8a147.32,147.32,0,0,1,.12-14.86c.05-1.27.12-2.55.21-3.82q3.09-.16,2.87,2.57c.72,1.91.5,4.61.92,6.69a34.35,34.35,0,0,0,11.1,18.76c1.44,1.27,3.57-.84,2.12-2.12a31.89,31.89,0,0,1-9.57-14.47c-1.35-4.35-.64-10-3-14-1.18-2-3.4-3.5-5.59-1.92-2.73,2-2,7.45-2.14,10.23-.3,8.1-1.86,19.73,4.59,26,4.06,4,8.15,6.07,9.77,12,1.36,5,1,10.33.67,15.42-.14,1.93,2.86,1.92,3,0Z"/><path d="M48.16,80.49a35.48,35.48,0,0,1-5-6.16c-.34-.54-1.74-2.34-1.64-3l2.64-3.12,2,1.69A107.93,107.93,0,0,1,56.35,80.71c3.6,4.56,2.34,9.64,1.77,15l-1.73,16.17c-.19,1.82,2.65,1.8,2.84,0l1.63-15.22c.4-3.71,1.3-7.77.74-11.51-1-6.63-8.45-12.21-12.91-16.67-2.36-2.36-8.2-6.69-10.63-2.08-2.61,5,5,13,8.09,16.11a1.42,1.42,0,0,0,2-2Z"/><path d="M43.73,57.63c2.32-8.31,4.35-16.7,6-25.17.43-2.19.83-4.39,1.22-6.6.22-1.25.16-4.93.93-5.67,2.22-2.12,11.13-.93,13.86-.94l-1.45-1.1a81.53,81.53,0,0,0,2.36,11,1.5,1.5,0,0,0,2.89-.79,83.56,83.56,0,0,1-2.36-11,1.5,1.5,0,0,0-1.44-1.1c-4.12,0-10.67-1-14.55.59-2.89,1.2-2.49,4.45-3,7.28a320.85,320.85,0,0,1-7.4,32.71,1.51,1.51,0,0,0,2.9.8Z"/><path d="M81.27,56.09l1.36-39.87c.07-1.93-2.93-1.92-3,0L78.27,56.09c-.06,1.93,2.94,1.93,3,0Z"/><path d="M81.06,17.49a1.5,1.5,0,0,0,0-3,1.5,1.5,0,0,0,0,3Z"/><path d="M81,17.16c1.5-.11,3-.16,4.47-.16L84,15.5,86.5,56.81c.12,1.92,3.12,1.93,3,0L87,15.5a1.53,1.53,0,0,0-1.5-1.5c-1.5,0-3,.05-4.47.16-1.92.13-1.93,3.14,0,3Z"/><path d="M78,35.12A12.87,12.87,0,0,0,61.49,35c-6.24,5-6.5,13.54-6.42,20.89a1.5,1.5,0,0,0,3,0c-.06-5-.23-10.57,2.37-15.05,3.18-5.48,10.15-7.82,15.4-3.62,1.5,1.19,3.63-.92,2.13-2.13Z"/></svg>