<svg id="Ebene_1" data-name="Ebene 1" xmlns="http://www.w3.org/2000/svg" viewBox="0 0 128 128"><title>Icon</title><path d="M94.31,111.22l6-32.68,1.4-7.68c.36-2,1.44-4.69,1.08-6.69s-1.38-2.4-3.42-2.5c-4.81-.23-9.56.55-14.46,0-5.16-.53-10.28-1.46-15.44-2-2.61-.26-7.54-1.54-9.77.68s-1.85,8.23-2.27,11.11c-.12.85.37,2,1.45,1.9L69.68,72.2,68.39,70A307.58,307.58,0,0,0,53,110.07c-.57,1.85,2.33,2.64,2.89.79A303.26,303.26,0,0,1,71,71.46c.42-.91-.06-2.4-1.3-2.26L58.84,70.43l1.45,1.9c.46-3.26,0-9.22,3.67-10,3.46-.7,9,.77,12.35,1.23s6.9,1,10.38,1.29,7.37-.39,10.84,0c1.4-.8,2-.62,1.87.53a5,5,0,0,1-.28,2.7c-.27,1.92-.7,3.85-1.05,5.76L96,85.44l-4.55,25c-.34,1.89,2.55,2.7,2.89.8Z"/><path d="M64.38,25.56c-4.47-4.44-9.79.94-11.61,5.2-2.7,6.34,3,10.73,9.06,10.09,5.18-.55,9.68-5.16,8.32-10.61A6.91,6.91,0,0,0,59,26.69c-1.48,1.24.65,3.35,2.12,2.12,2.44-2,6,0,6.22,2.94.24,3.19-2.38,5.56-5.33,6-3.19.53-7.74-.8-6.87-4.88.51-2.41,4.26-8,7.09-5.23a1.5,1.5,0,0,0,2.12-2.12Z"/><path d="M28.21,91.85C31,79,34.39,65.19,44.88,56.34c9.67-8.16,26-8.89,32.43,3.72.87,1.72,3.46.2,2.59-1.51-6-11.77-21-14-31.93-8C33.35,58.69,28.6,75.87,25.31,91.06c-.4,1.88,2.49,2.68,2.9.79Z"/></svg>