<svg id="Ebene_1" data-name="Ebene 1" xmlns="http://www.w3.org/2000/svg" viewBox="0 0 128 128"><title>Icon</title><path d="M94.55,66.82C88,58.26,72,59.73,65.86,68.12c-6.79,9.2-6.49,23.19,5,28.06,9.31,3.92,23.28,3.14,27.58-7.44,3.53-8.7,1.27-22-8.24-25.8-1.77-.7-2.54,2.16-.78,2.85,7.38,2.93,8.83,13.84,6.74,20.58-2.81,9-13,10.06-21,8.1C65,92,62.12,82.81,66.2,73.57A14.18,14.18,0,0,1,77,64.77c5.21-1.07,11.44-1.11,15,3.54,1.14,1.49,3.71,0,2.55-1.49Z"/><path d="M28.64,49.34a128,128,0,0,0,20.8,37.08c8.34,10.3,18,17.58,31.66,18.29,12,.63,23.56-3.36,25.51-16.48s-2.67-25.56-12-34.77C83.69,42.63,69.89,32.23,54.94,28a1.57,1.57,0,0,0-.83,3c14.43,4.1,27.76,14.21,38.3,24.67,5.42,5.37,9.39,11.47,10.65,19.08s1.87,18-5,23.31c-6,4.64-16.38,4.21-23.45,2.6-7.74-1.76-13.84-6.15-19.09-12A122.2,122.2,0,0,1,31.66,48.51c-.68-1.89-3.71-1.07-3,.83Z"/><path d="M29.16,48.28Q36,51.79,42.76,55.5a1.59,1.59,0,0,0,2.15-2.15Q38.14,38.62,30.19,24.48L28,26.63Q39,34.1,50.56,40.47a1.59,1.59,0,0,0,2.31-1.77,45.24,45.24,0,0,0-7.72-14l-1.91,2.47,12.91,5.58C58,33.5,59.58,30.8,57.73,30l-12.9-5.58a1.57,1.57,0,0,0-1.9,2.46,40.46,40.46,0,0,1,6.91,12.66l2.31-1.78Q40.54,31.39,29.62,23.92c-1.34-.92-2.87.85-2.14,2.15q8,14.13,14.72,28.87l2.14-2.15q-6.73-3.7-13.59-7.22c-1.8-.92-3.38,1.78-1.59,2.71Z"/></svg>