<svg id="Ebene_1" data-name="Ebene 1" xmlns="http://www.w3.org/2000/svg" viewBox="0 0 128 128"><title>Icon</title><path d="M74.28,20.47q-8.93-.25-17.86-.17a1.52,1.52,0,0,0-1.5,1.5l.81,12.52c.32,4.89,1.58,10.77-.25,15.36-1.58,4-4.49,7.61-6.75,11.2L42,71.64c-2.25,3.58-4.51,7.16-6.75,10.75-1.62,2.6-3.69,5.39-4,8.55-.55,5.68,3.37,7.7,8.31,7.94a312.4,312.4,0,0,0,51.36-1.26c4.33-.51,9.37-1.72,11.36-6.08,2.58-5.67-2-11.51-5.12-15.88L80.1,51.44c-1.79-2.54-3.79-4.89-4-8.11a35.38,35.38,0,0,1,.63-7.1l2-15.45c.24-1.91-2.76-1.89-3,0L73.83,35.26c-.47,3.67-1.5,7.58-.3,11.19,1.28,3.85,4.52,7.27,6.83,10.54l8,11.3c4,5.67,19,21.79,6.21,25.64C86.4,96.38,76.47,95.72,68,96c-8.88.27-18.69,1.27-27.49-.06C34.47,95,33,92.36,35.9,87c.9-1.63,2-3.19,3-4.76l7.26-11.58L53.4,59.09c2-3.15,4.63-6.38,5.6-10s.17-8-.08-11.85l-1-15.41-1.5,1.5q8.92-.09,17.86.17c1.93.05,1.93-2.95,0-3Z"/><path d="M72.3,55.67l-9.25-1.21a1.49,1.49,0,0,0-1.29.74Q55.7,63.65,50,72.32q-2.85,4.34-5.62,8.74c-1.14,1.81-3.13,4.11-3.46,6.3-.45,3.11,2,4.24,4.62,4.41,6.81.43,14-.58,20.86-.88,6.53-.28,13.42,0,19.89-.88,3.35-.48,6.28-1.86,6.77-5.56.69-5.11-4-9.52-6.8-13.21L73.45,54.43c-1.16-1.52-3.76,0-2.59,1.51,5.87,7.73,13.07,15.37,18,23.76,1.9,2.42,1.4,4.8-1.47,7.13a35.9,35.9,0,0,1-4.51.35c-2.58.16-5.17.23-7.75.34l-14.52.62-6.77.3c-1.64.07-6.37,1.1-7.75.33-3.35-1.87.16-5,1.4-7q2-3.19,4.09-6.36Q55.66,69.08,60,62.88c1.41-2,2.43-4.53,4.92-5.18,1.86-.48,5.47.72,7.4,1s1.89-2.76,0-3Z"/></svg>