<svg id="Ebene_1" data-name="Ebene 1" xmlns="http://www.w3.org/2000/svg" viewBox="0 0 128 128"><title>Icon</title><path d="M105.09,58.46a5.27,5.27,0,0,0-1-.34L90.7,38.35a14.76,14.76,0,0,0-16.37-5.88l2.6,8-4.55-7.29h0L67.85,26.5a14.81,14.81,0,0,0-24.52,0L21.88,58.14a4.57,4.57,0,0,0-1.06.36,5,5,0,0,0-2.32,6.68l11.63,24a8.08,8.08,0,0,0,7.23,4.52h4.92a8.23,8.23,0,1,0,14,0H69.13a8.24,8.24,0,1,0,14,0h6.12a8.09,8.09,0,0,0,7.23-4.52l11.05-24.08A5,5,0,0,0,105.09,58.46ZM88,83.69H38.59L27.72,61.27H98.29Z"/></svg>