<svg id="Ebene_1" data-name="Ebene 1" xmlns="http://www.w3.org/2000/svg" viewBox="0 0 128 128"><title>Icon</title><path d="M82.55,19.81a315.24,315.24,0,0,0-15.44,38c-.4,1.21.8,2,1.84,1.85l25.43-3.73-1.46-2.51L45.4,109.58,47.91,111,61.72,75.29a1.51,1.51,0,0,0-1.45-1.9,115.57,115.57,0,0,1-26,.31l1.06,2.56L84.26,20.64c1.27-1.44-.85-3.57-2.12-2.12L33.25,74.14a1.52,1.52,0,0,0,1.06,2.56,115.57,115.57,0,0,0,26-.31l-1.44-1.9L45,110.24a1.51,1.51,0,0,0,2.51,1.46L95,55.54A1.51,1.51,0,0,0,93.58,53L68.15,56.77,70,58.61A309.65,309.65,0,0,1,85.14,21.32c.83-1.73-1.75-3.25-2.59-1.51Z"/></svg>