<svg id="Ebene_1" data-name="Ebene 1" xmlns="http://www.w3.org/2000/svg" viewBox="0 0 128 128"><title>Icon</title><path d="M15,106.31C32,77.88,48.59,49.16,61.79,18.76l-1.7.69c3.52.69,7.4,8.83,9.25,11.61q3.19,4.82,6.31,9.67,6.73,10.47,13.2,21.11c8.68,14.22,17.14,28.58,25.73,42.85l1.3-2.25a475.74,475.74,0,0,1-102,1.49c-1.92-.18-1.91,2.82,0,3a475.74,475.74,0,0,0,102-1.49,1.52,1.52,0,0,0,1.29-2.26c-9.58-15.91-19-31.93-28.73-47.75C83.74,47.81,79,40.25,74.05,32.77c-2.47-3.77-5-7.54-7.53-11.24-1.57-2.25-2.8-4.42-5.63-5a1.54,1.54,0,0,0-1.69.69C46,47.65,29.39,76.37,12.44,104.8A1.5,1.5,0,0,0,15,106.31Z"/><path d="M66,46.24q-7.27,12.19-13.36,25a1.52,1.52,0,0,0,1.69,2.2c6.14-1,12.2-2.34,18.23-3.91L71.06,67C63.68,75.87,58.39,86,53.24,96.21c-.63,1.23.72,3,2,2.05L70.74,87.75a1.5,1.5,0,0,0-1.52-2.59q-8.11,4.7-15.86,10l2.25,1.3A42.52,42.52,0,0,0,53.27,84c-.64-1.81-3.54-1-2.9.8a39.32,39.32,0,0,1,2.24,11.68,1.52,1.52,0,0,0,2.26,1.3q7.76-5.31,15.87-10l-1.52-2.59L53.77,95.67l2.06,2c5-10,10.15-19.93,17.35-28.56a1.51,1.51,0,0,0-1.46-2.5q-9,2.36-18.23,3.91l1.7,2.2q6.09-12.82,13.36-25A1.5,1.5,0,0,0,66,46.24Z"/></svg>