<svg id="Ebene_1" data-name="Ebene 1" xmlns="http://www.w3.org/2000/svg" viewBox="0 0 128 128"><title>Icon</title><path d="M106.47,51.22l-31.3-9.63L70.3,18a5,5,0,0,0-4.9-4h0a5,5,0,0,0-4.88,4L55.88,41.69l-33.25,9.5A5,5,0,0,0,24,61H52.11l-8.38,42.9a5,5,0,1,0,9.81,1.91l.61-4.26,21.7-11.87L78.47,107a5,5,0,1,0,9.79-2L79.18,61H105a5,5,0,0,0,1.47-9.78ZM62.94,39.67l2.6-18.28,2.18,14.45.92,5.07-5.82,0L63,39.65Zm-1.2,7.24,7.62,0L70.9,55,60.25,55ZM31,54.25l23-5.49-1,5.48ZM55.2,94.14,58.42,71.5l16.19,12Zm4.18-29.4L59.91,61H71.52l2.17,14.36ZM78,54.24l-1-5.48,23,5.49Z"/></svg>