<svg id="Ebene_1" data-name="Ebene 1" xmlns="http://www.w3.org/2000/svg" viewBox="0 0 128 128"><title>Icon</title><path d="M22.7,36.26q1.8,28.11,1.74,56.28a1.53,1.53,0,0,0,1.5,1.5q40.35,1.14,80.69-.67c1.92-.08,1.93-3.08,0-3Q66.29,92.19,25.94,91l1.5,1.5q.06-28.17-1.74-56.28c-.12-1.91-3.12-1.93-3,0Z"/><path d="M36.67,84.34Q35.13,67.75,34.86,51.1l-1.5,1.5h18l-1.5-1.5A188.43,188.43,0,0,0,52.87,83l1.45-1.89a84.36,84.36,0,0,0-20.39.69c-1.9.29-1.1,3.18.8,2.89a81.29,81.29,0,0,1,19.59-.58,1.52,1.52,0,0,0,1.45-1.9,182.27,182.27,0,0,1-3-31.1,1.52,1.52,0,0,0-1.5-1.5h-18a1.52,1.52,0,0,0-1.5,1.5q.26,16.67,1.81,33.24c.18,1.9,3.18,1.92,3,0Z"/><path d="M61.17,81.68q.13-20-1.47-40L57.8,43.1a78.52,78.52,0,0,0,22.65.48L79,42.08a154.86,154.86,0,0,0,1.61,40.05l1.84-1.84A69.8,69.8,0,0,0,71.63,79C67.38,78.9,63.2,80.38,59,80c-1.92-.19-1.91,2.81,0,3,3.72.35,7.19-.84,10.9-1a55.63,55.63,0,0,1,11.71,1.21,1.53,1.53,0,0,0,1.84-1.85A151.77,151.77,0,0,1,82,42.08a1.5,1.5,0,0,0-1.5-1.5,76.19,76.19,0,0,1-21.85-.37,1.52,1.52,0,0,0-1.9,1.45q1.61,20,1.47,40a1.5,1.5,0,0,0,3,0Z"/><path d="M88.79,80.19c-.47-3.25-.88-6.5-1.2-9.77-.21-2.15-1.33-6.34-.65-8.35,1.29-3.84,13.41-2.65,16.82-2.84l-1.5-1.5,1.19,25.53,1.9-1.45A81.14,81.14,0,0,0,88,80.15l1.06,2.56.55-.56c1.35-1.38-.77-3.51-2.12-2.13l-.55.57A1.52,1.52,0,0,0,88,83.15a77,77,0,0,1,16.51,1.55,1.51,1.51,0,0,0,1.9-1.44l-1.19-25.53a1.52,1.52,0,0,0-1.5-1.5L90.49,57c-2,.11-4.91-.32-6.26,1.48-1.56,2.09,0,7.75.18,10.11.37,4.15.89,8.29,1.49,12.41.27,1.91,3.16,1.1,2.89-.79Z"/></svg>