<svg id="Ebene_1" data-name="Ebene 1" xmlns="http://www.w3.org/2000/svg" viewBox="0 0 128 128"><title>Icon</title><path d="M88.23,29.7c-5.75-3.77-19.72-13.14-25.7-4.9-5.75,7.92,6.19,18,11.62,22,4.82,3.55,19.93,13.38,24,3.46,3.75-9.09-8.89-17.11-15-20.77a1.5,1.5,0,0,0-1.51,2.59c5,3,10.86,6.38,13.16,12.07a7.73,7.73,0,0,1,.87,3.28l-5.1,3.88c-1.9.47-5.07-1.12-6.79-1.95a50.33,50.33,0,0,1-8.09-5.15,44.35,44.35,0,0,1-7.25-6.57A20.12,20.12,0,0,1,65.23,33c-1-2.24-.84-5.81,1.17-7.64,4.38-4,16.52,4.48,20.32,7,1.61,1.07,3.12-1.53,1.51-2.59Z"/><path d="M28,81.65c-3.65,0-3.44,4.85-3.13,7.45a22.17,22.17,0,0,0,6.16,12.32c5.88,6.23,18,11.34,23.32,1.69.93-1.69-1.66-3.21-2.59-1.52-4.14,7.52-13.59,2.75-18.09-1.74A22,22,0,0,1,29.47,94c-.27-.54-2.86-9.36-1.44-9.36a1.5,1.5,0,0,0,0-3Z"/><path d="M53.44,103.65C70.05,89.86,79.86,70,95.58,55.36c1.42-1.32-.71-3.44-2.12-2.12C77.74,67.89,67.93,87.75,51.31,101.53c-1.48,1.23.65,3.34,2.13,2.12Z"/><path d="M27.69,85.62Q46.56,58.53,64.35,30.71c1-1.64-1.55-3.14-2.59-1.52Q44,57,25.1,84.11c-1.1,1.59,1.5,3.09,2.59,1.51Z"/></svg>