<svg id="Ebene_1" data-name="Ebene 1" xmlns="http://www.w3.org/2000/svg" viewBox="0 0 128 128"><title>Icon</title><path d="M104.54,36H22.78a5.46,5.46,0,0,0-5.46,5.46V85.57A5.45,5.45,0,0,0,22.78,91h81.76A5.46,5.46,0,0,0,110,85.57V41.46A5.47,5.47,0,0,0,104.54,36ZM29,51a5,5,0,1,1,5-5A5,5,0,0,1,29,51ZM77,71.9a7.79,7.79,0,0,1-7.79,7.78h-3L67,85H61l.76-5.32H54v-6H69.21A1.79,1.79,0,0,0,71,71.9V67.83a1.79,1.79,0,0,0-1.79-1.78H59.69a7.8,7.8,0,0,1-7.78-7.79V55.1a7.79,7.79,0,0,1,7.78-7.78h2.07L61,42h6l-.76,5.32H74v6H59.69a1.78,1.78,0,0,0-1.78,1.78v3.16a1.79,1.79,0,0,0,1.78,1.79h9.52A7.79,7.79,0,0,1,77,67.83ZM99,51a5,5,0,1,1,5-5A5,5,0,0,1,99,51Z"/></svg>