<svg id="Ebene_1" data-name="Ebene 1" xmlns="http://www.w3.org/2000/svg" viewBox="0 0 128 128"><title>Icon</title><path d="M59.7,91.32a26.14,26.14,0,0,1-.62-23.94c2.27-4.56,5.28-7.48,1.45-12.28C57,50.59,50.85,49,45.32,48.83a59,59,0,0,0-10.09.93c-3.95.58-10,2.28-13-1.65-1.13-1.53-3.74,0-2.59,1.52,2.75,3.69,6.82,4.21,11.21,3.79,8.06-.77,16.86-3.69,24.34,1,3.34,2.09,4.34,4.87,2.83,8.74-.55,1.41-1.61,2.7-2.22,4.1a28.54,28.54,0,0,0-2.17,8.07,29.48,29.48,0,0,0,3.45,17.49c.91,1.7,3.5.19,2.59-1.51Z"/><path d="M69.23,88.68c-3.13-7.15-4.93-19.82.94-26.26,3-3.27,9.18-.33,13.07.67,4.8,1.24,6.31,5.38,7.7,9.71l2.89-.8c-.69-1.79-2.61-4.9-2.58-6.75,0-2,2.55-3.64,4.4-3.72a13,13,0,0,1,4.55,1c1.83.62,2.62-2.28.79-2.89-3.26-1.1-9.42-2.62-12.14.46-2.95,3.35.85,9.49,2.09,12.7.68,1.76,3.49,1.07,2.89-.8-1.43-4.46-3.27-9.37-7.94-11.27-1.58-.64-3.28-.62-4.9-1.09s-2.9-1.37-4.42-1.79a7.62,7.62,0,0,0-6,.23c-4.49,2.3-6.07,8.67-6.73,13.18a34.22,34.22,0,0,0,2.78,18.93c.78,1.77,3.36.24,2.59-1.51Z"/><path d="M71.77,57.36c.08-2.43.11-5,1.18-7.27,1.84-3.84,5.17-4.14,8.91-4.55a27,27,0,0,0,5.06-.78c1.42-.43,5.77-3.64,6.28-.19.29,1.9,3.18,1.09,2.89-.8a4.56,4.56,0,0,0-5.23-4.1c-1.35.22-2.48,1.22-3.71,1.76-2.4,1-5,1-7.52,1.34C71.27,43.88,69,49.6,68.77,57.36c-.06,1.94,2.94,1.93,3,0Z"/><path d="M63.91,56.07c.66-3.3,2-6.34,2.76-9.58.43-1.72.79-3.56-.2-5.19A5.46,5.46,0,0,0,62.71,39c-4-.82-5.69,1.45-9.51-1.79-1.79-1.53-2.51-3.14-4.91-3.89A10.68,10.68,0,0,0,42,33.5c-2.65.85-8.18,3.63-8.49,6.79a1.52,1.52,0,0,0,1.5,1.5h.39a1.52,1.52,0,0,0,1.5-1.5V40a1.5,1.5,0,0,0-3,0v.28l1.5-1.5H35l1.5,1.5c0,.27,2.8-2.07,3.68-2.59,2.07-1.23,4.83-2.37,7.29-1.53,3,1,3.93,4.6,7,5.65a8.2,8.2,0,0,0,3.24.31c2.8-.13,2.91-1,4.72,1.63s.88,3,0,5.72A57,57,0,0,0,61,55.27c-.38,1.88,2.51,2.69,2.9.8Z"/><path d="M48.59,32.2a11.06,11.06,0,0,0-6.29-6.37,1.51,1.51,0,0,0-1.84,1.05,1.52,1.52,0,0,0,1,1.84A7.72,7.72,0,0,1,45.7,33c.69,1.78,3.59,1,2.89-.8Z"/><path d="M71.87,44.37c1.65-5.48,2-11.12-3.88-13.85-.89-.35-1.78-.68-2.68-1q-3.39-4.84.25-5.1c.81-.67,1.91-.54,2.71-1.42a3.58,3.58,0,0,0,.22-4.84c-1.13-1.54-3.73-.05-2.59,1.51.85,1.17-5.15,3-6,4.09a4.33,4.33,0,0,0-.38,4.6,7.46,7.46,0,0,0,3.65,3.51c2,1.08,4.9,1.13,6.23,3.4,1.46,2.49.3,5.79-.46,8.29-.56,1.85,2.34,2.64,2.9.8Z"/><path d="M65.91,39.8a9.72,9.72,0,0,0-5-12.28c-1.75-.77-3.28,1.82-1.51,2.59A6.8,6.8,0,0,1,63,39c-.73,1.79,2.18,2.57,2.9.8Z"/><path d="M61.66,24.94l-5.72-4.33c-1.54-1.16-3,1.44-1.52,2.59l5.72,4.33c1.54,1.17,3-1.44,1.52-2.59Z"/><path d="M71.91,37.11c1.78-4,6.87-3.52,10.35-5a17.3,17.3,0,0,0,7.2-5.77c1.17-1.54-1.44-3-2.59-1.51-3,4-6.81,4.68-11.32,6-2.7.77-5,2.12-6.23,4.76-.78,1.75,1.8,3.27,2.59,1.51Z"/><path d="M50,50.65c-4,.6-6.09,3.66-8.13,6.83-1.8,2.81-3.58,4.37-6.84,5.2-2.22.57-4.21.89-6.16,2.12-1.63,1-.13,3.63,1.51,2.59,3.47-2.19,7.84-1.53,11-4.41,3.32-3,4.41-8.68,9.42-9.44,1.9-.29,1.1-3.18-.8-2.89Z"/><path d="M59.78,93A21.4,21.4,0,0,0,71,91.09c1.76-.79.23-3.38-1.51-2.59A18.54,18.54,0,0,1,59.78,90c-1.91-.21-1.9,2.79,0,3Z"/><path d="M88.14,83.21a63.27,63.27,0,0,0-47.83-1c-5.09,2-12.33,4.93-11.13,11.68,1,5.74,6.66,8.21,11.9,8.72,4.31.42,8.79-.34,13,.7s7.1,4.81,11.43,5.94c7,1.81,15.88,1.17,22.71-1,5-1.6,12.81-5.53,13.16-11.65.37-6.59-7.25-7.34-12-6.84l1.5,1.5c-.18-3.7-2.19-6.27-5.87-7-1.88-.39-2.69,2.5-.8,2.9l3.67,4.14a1.5,1.5,0,0,0,1.5,1.5c1.38-.14,3-.53,4.36-.13q2.63-.34,2.59,3c1.88,1.92,1.75,3.55-.41,4.89a21.2,21.2,0,0,1-7.78,4.57,41.85,41.85,0,0,1-15,1.93c-3.91-.09-7.37-.42-10.75-2.6a38.18,38.18,0,0,0-4.59-3c-4.28-2-9.15-1.57-13.73-1.65-2.92,0-6.31-.19-8.82-1.87-4.63-3.1-3.46-8.11,1-10.6a52.3,52.3,0,0,1,15.88-5.37A60.41,60.41,0,0,1,86.63,85.8c1.75.74,3.28-1.84,1.51-2.59Z"/></svg>