<svg id="Ebene_1" data-name="Ebene 1" xmlns="http://www.w3.org/2000/svg" viewBox="0 0 128 128"><title>Icon</title><path d="M64,13.6A50.4,50.4,0,1,0,114.4,64,50.39,50.39,0,0,0,64,13.6Zm4.54,41.07c.47-1,4.8-10.17,12.1-10.17h0c7.33,0,11.42,8.93,11.86,10a3.6,3.6,0,1,1-6.6,2.87c-1-2.34-3.46-5.61-5.29-5.62h0c-1.82,0-4.43,3.51-5.55,5.94a3.6,3.6,0,0,1-6.55-3Zm-32.42-.22c.44-1,4.53-9.93,11.86-10h0c7.3,0,11.63,9.13,12.11,10.17a3.62,3.62,0,0,1-1.8,4.77,3.72,3.72,0,0,1-1.48.32,3.6,3.6,0,0,1-3.28-2.12C52.44,55.21,49.83,51.7,48,51.7h0c-2,0-4.47,3.73-5.29,5.62a3.6,3.6,0,1,1-6.6-2.87ZM93,77.9l-.31.54-.28.48c-.19.3-.38.61-.57.9-.4.58-.82,1.13-1.24,1.69a35.49,35.49,0,0,1-2.79,3.1,31,31,0,0,1-6.82,5.06A30.47,30.47,0,0,1,63.88,93.5c-.74-.07-1.49-.11-2.23-.21s-1.45-.26-2.18-.41a17,17,0,0,1-2.13-.53c-.7-.2-1.41-.4-2.08-.65a38.51,38.51,0,0,1-7.61-3.76,41.78,41.78,0,0,1-6.38-5.17,38.54,38.54,0,0,1-2.72-3c-.43-.52-.85-1.06-1.25-1.6s-.76-1.09-1.19-1.79a3.62,3.62,0,0,1,4.87-5l.59.34c.38.22.88.59,1.34.88s.93.64,1.41.94c1,.6,1.9,1.22,2.88,1.77,1.93,1.12,3.87,2.14,5.82,3a44.77,44.77,0,0,0,5.85,2.11,28.17,28.17,0,0,0,5.79.94,27.45,27.45,0,0,0,2.87,0c.48,0,1-.1,1.44-.13a9.81,9.81,0,0,0,1.43-.18l1.44-.24c.48-.13,1-.26,1.43-.37A12.27,12.27,0,0,0,74.7,80c.48-.16,1-.28,1.43-.48a38.25,38.25,0,0,0,5.69-2.64c.48-.25.94-.53,1.41-.8l1.39-.87c.46-.3.92-.59,1.36-.91s.93-.66,1.27-.84l.94-.5A3.56,3.56,0,0,1,93,74.49,3.61,3.61,0,0,1,93,77.9Z"/></svg>