<svg id="Ebene_1" data-name="Ebene 1" xmlns="http://www.w3.org/2000/svg" viewBox="0 0 128 128"><title>Icon</title><path d="M64.14,65.85c-4.21.34-8.51,2.89-9.15,7.4-.52,3.66,1.8,7.6,5.56,8.25a9.56,9.56,0,0,0,10.16-5.68,7,7,0,0,0-4.64-9.16c-1.87-.48-2.67,2.42-.8,2.89a4,4,0,0,1,2.39,5.76c-1.2,2.26-4.66,4-7.17,3.09a4.5,4.5,0,0,1-2.42-5.29c.73-2.64,3.53-4.06,6.07-4.26,1.91-.16,1.93-3.16,0-3Z"/><path d="M59.91,61.55a263.94,263.94,0,0,1,6.58-43c.45-1.88-2.44-2.68-2.89-.8a268.29,268.29,0,0,0-6.69,43.83c-.13,1.93,2.87,1.92,3,0Z"/><path d="M55.75,84c-7.33,1.27-13.36,5.78-20.36,8-7.86,2.53-16.18,3.85-24.24,5.59-1.89.4-1.09,3.3.79,2.89C20,98.76,28.33,97.43,36.19,94.9c7-2.24,13.06-6.76,20.36-8,1.89-.33,1.09-3.23-.8-2.9Z"/><path d="M58.31,63.28c4-.73,11.52-.49,14.28-4C75,56.24,74.33,50.52,73.85,47c-.91-6.61-2.68-13-3.2-19.69-.38-4.87.77-10.58-1.35-15.11a1.52,1.52,0,0,0-2.36-.3,11.81,11.81,0,0,0-4.33,10.32c.14,1.91,3.14,1.93,3,0a9.2,9.2,0,0,1,3.45-8.2l-2.36-.3c1.77,3.76.63,9.5,1,13.59a104.24,104.24,0,0,0,1.72,12.19c.92,4.56,2.82,10.05,1.64,14.7-1.41,5.57-8.64,5.26-13.5,6.15-1.89.35-1.09,3.24.8,2.89Z"/><path d="M56.15,82.5C53.2,78.05,49,72.15,42.83,73c-2.67.39-5.07,2.24-7.32,3.56L24.88,82.77,14.25,89c-2.24,1.3-5.33,2.53-6.77,4.86-1.85,3,.06,7,3.65,7,1.92,0,1.93-3,0-3q-1.28-3.37,1.36-4.37L14.94,92l4.91-2.85L30.48,83c3.2-1.86,6.41-4.27,9.81-5.7,6.58-2.79,9.85,1.57,13.27,6.74,1.06,1.6,3.66.1,2.59-1.52Z"/><path d="M76.36,74.61,120.12,100a1.5,1.5,0,0,0,1.51-2.59L77.87,72a1.5,1.5,0,0,0-1.51,2.59Z"/><path d="M74.83,73.6c-1.64,4.2-4.25,11.34-2.52,15.94,1.44,3.8,6.72,4.68,10.06,5.66a148.62,148.62,0,0,0,39.26,5.85,1.5,1.5,0,0,0,0-3A145.89,145.89,0,0,1,92,94.6,106.94,106.94,0,0,1,78.79,91c-6.68-2.42-2.93-11.78-1.07-16.56.7-1.8-2.2-2.58-2.89-.79Z"/></svg>