<svg id="Ebene_1" data-name="Ebene 1" xmlns="http://www.w3.org/2000/svg" viewBox="0 0 128 128"><title>Icon</title><path d="M108.18,44l-54-26.5A5,5,0,0,0,48,19.05a3.71,3.71,0,0,0-.32.23L20.11,44.07A6,6,0,0,0,21,56H44v51.77A7.23,7.23,0,0,0,51.23,115h3.54A7.23,7.23,0,0,0,62,107.77V56H85.38V75a5.68,5.68,0,0,0,.15,1.32,3.83,3.83,0,0,0,0,1.07,4,4,0,0,0,4.16,3.37,6.27,6.27,0,0,0,1.69.24,5.8,5.8,0,0,0,1.11-.11,5.64,5.64,0,1,1-7.12,6.3,4,4,0,1,0-7.9,1.22A13.67,13.67,0,0,0,90.93,100a13.87,13.87,0,0,0,2.12-.17A13.65,13.65,0,0,0,99,75.3a15.45,15.45,0,0,0-1.64-1V56H108a6,6,0,0,0,.18-12ZM45,44H35.14l6.08-5.47L48,27Zm40.47,0H62L59,27l3.31,5.63,13.57,6.66L90,44Z"/></svg>