<svg id="Ebene_1" data-name="Ebene 1" xmlns="http://www.w3.org/2000/svg" viewBox="0 0 128 128"><title>Icon</title><path d="M73.64,54.32C68.26,49.56,59.84,49.26,55,55c-3.93,4.6-5,14,1.53,16.88s17.22,3.46,21-4c3.32-6.55-.88-13.81-7.77-15.28-1.88-.4-2.68,2.49-.79,2.89,5.43,1.16,8.78,7,5.35,11.94-3.13,4.53-10.16,4-14.74,2.28-6.29-2.3-5.88-9.43-1.66-13.45,3.87-3.69,9.79-3.12,13.6.25,1.44,1.28,3.56-.84,2.12-2.12Z"/><path d="M43.5,62.88A17.44,17.44,0,0,1,54.89,46.4a1.53,1.53,0,0,0,1-1.85q-4.74-13-8.5-26.27A1.54,1.54,0,0,0,46,17.18C24.1,14.39,14.41,44.53,16,61.42a1.53,1.53,0,0,0,1.9,1.45A80.45,80.45,0,0,1,41,62.79c1.89.27,2.7-2.62.79-2.89A85.38,85.38,0,0,0,17.05,60L19,61.42C17.55,46.09,25.75,17.6,46,20.18l-1.45-1.1q3.77,13.29,8.5,26.27l1-1.85A20.55,20.55,0,0,0,40.5,62.88a1.5,1.5,0,0,0,3,0Z"/><path d="M78.35,49.06a17.87,17.87,0,0,1,6.91,16.29,1.52,1.52,0,0,0,1.9,1.45,122.73,122.73,0,0,1,29.47-3,1.51,1.51,0,0,0,1.5-1.5c-.51-8.58-.09-18.09-3.64-26.11-3.22-7.29-9.57-12.41-15.67-17.22a1.54,1.54,0,0,0-2.36.31Q87.54,32.8,78.62,46.34a1.53,1.53,0,0,0,.53,2,2.38,2.38,0,0,0,2.26.6c1.9-.21,1.92-3.22,0-3l-.74-.19.54,2.05L99.05,20.78l-2.36.3c5.82,4.59,12,9.39,15,16.35,3.36,7.6,2.92,16.7,3.4,24.86l1.5-1.5A127.37,127.37,0,0,0,86.36,63.9l1.9,1.45a20.57,20.57,0,0,0-7.79-18.41c-1.5-1.18-3.63.92-2.12,2.12Z"/><path d="M72.52,78a34,34,0,0,1-19.21,0,1.54,1.54,0,0,0-1.85,1,107.77,107.77,0,0,1-11,23c-3.26,5.14-3.74,7.11,2.43,9.11a52,52,0,0,0,40.19-3.83,1.51,1.51,0,0,0,.53-2c-5.27-8-7.11-17.16-8.79-26.41-.35-1.9-3.24-1.09-2.89.8,1.72,9.5,3.68,19,9.09,27.12l.54-2a49.11,49.11,0,0,1-36.33,4c-1.17-.34-3-.48-3.57-1.64-.71-1.32.6-2.29,1.39-3.54q2.32-3.64,4.34-7.49a115.85,115.85,0,0,0,6.92-16.27l-1.84,1a37.11,37.11,0,0,0,20.81,0,1.5,1.5,0,0,0-.8-2.89Z"/></svg>