<svg id="Ebene_1" data-name="Ebene 1" xmlns="http://www.w3.org/2000/svg" viewBox="0 0 128 128"><title>Icon</title><path d="M15.31,105.05A519.93,519.93,0,0,0,62.68,21.11H60.09c16.5,28.7,32.3,57.91,52.69,84.09l1.06-2.56c-16.51,2-32.73,4.07-49.4,3.17s-33.13-3.27-49.8-3.33a1.5,1.5,0,0,0,0,3c16.67.06,33.18,2.44,49.8,3.33s32.9-1.2,49.4-3.17a1.53,1.53,0,0,0,1.07-2.56c-20.23-26-35.86-55-52.23-83.48a1.51,1.51,0,0,0-2.59,0,520.36,520.36,0,0,1-47.37,83.94c-1.1,1.59,1.5,3.09,2.59,1.51Z"/><path d="M66.21,72.5c-6.55-5.2-16.55,7.37-8.3,11.46a7.79,7.79,0,0,0,9.52-2.47c2.24-3.08,2.1-8.39-1.61-10.29-1.71-.88-3.23,1.7-1.51,2.59,2.12,1.08,2,4.2.73,5.92a4.86,4.86,0,0,1-4.81,1.89c-6.11-1.24.7-9.49,3.86-7,1.5,1.19,3.64-.92,2.12-2.12Z"/><path d="M52.46,75.88c.27-3.08,2.92-4.64,5.34-6a1.54,1.54,0,0,0,.53-2.06A23.08,23.08,0,0,1,55.38,60a1.5,1.5,0,0,0-1.44-1.1A12.34,12.34,0,0,0,42.35,67.8c-.55,1.74-1.48,5.29-.3,6.94.6.83,1.63.91,2.56,1.11,2,.41,3.92.75,5.87,1.12s2.7-2.53.8-2.89c-2.39-.46-5.28-.64-7.54-1.55l1,1C43,68,48.63,62,53.94,61.89l-1.45-1.1a25.53,25.53,0,0,0,3.25,8.56l.54-2c-3.53,2-6.45,4.3-6.82,8.58-.17,1.92,2.83,1.91,3,0Z"/><path d="M69.21,69.33c1-1.76,2.24-4.62,3.82-6,.28-.9.73-1.07,1.36-.5a9.06,9.06,0,0,1,1.53.83A12.77,12.77,0,0,1,78.55,66a12.44,12.44,0,0,1,1.92,2.91c.83,1.75.31,2-1.09,3.17a66.51,66.51,0,0,1-6.41,4l2.2.9a13.67,13.67,0,0,0-5.65-8.58C68,67.3,66.45,69.9,68,71a10.57,10.57,0,0,1,4.28,6.79,1.5,1.5,0,0,0,2.2.89l6.41-4c1-.66,2.91-1.43,3.34-2.75.8-2.48-2-6.35-3.56-8s-5.21-5-7.81-4.35a4.12,4.12,0,0,0-2.07,1.86,68.23,68.23,0,0,0-4.17,6.45,1.5,1.5,0,0,0,2.59,1.51Z"/><path d="M54.6,88.85A12.54,12.54,0,0,0,67.43,88l-2.21-.9c.62,3.73,4,6.49,5.18,10.12l.69-1.7c-3.65,1.81-7.86,3.78-12,2.49-2.12-.66-3.72-1.45-2.94-3.67a25.16,25.16,0,0,1,1.77-4.42l-2.36.31.12.12V88.2l-.09.1c-1.26,1.45.85,3.58,2.13,2.12l.08-.1a1.54,1.54,0,0,0,0-2.12l-.12-.12a1.51,1.51,0,0,0-2.35.3c-.9,1.26-1.06,3-1.77,4.42-.42.83-1.38,1.88-1.4,2.89,0,1.92,2.38,3.42,3.86,4.23,5.5,3,11.4.72,16.57-1.84a1.49,1.49,0,0,0,.69-1.69,21.3,21.3,0,0,0-2.2-4.89c-1.12-1.76-2.62-3.07-3-5.22a1.51,1.51,0,0,0-2.21-.9,9.49,9.49,0,0,1-9.8.88c-1.74-.82-3.26,1.77-1.51,2.59Z"/></svg>