<svg id="Ebene_1" data-name="Ebene 1" xmlns="http://www.w3.org/2000/svg" viewBox="0 0 128 128"><title>Icon</title><path d="M32.74,96.54l-.77-32L31.6,49l-.19-7.75c0-1.89-.45-2.49,1.08-3.66s2.86-.82,4.59-.78l-1.5-1.5.05,60.45,1.1-1.45-4.88,1.09c-1.89.42-1.09,3.31.8,2.89l4.87-1.08a1.54,1.54,0,0,0,1.11-1.45l-.05-60.45a1.54,1.54,0,0,0-1.5-1.5c-2.93-.08-7.57-.53-8.63,3-.65,2.15,0,5.12,0,7.33l.26,10.67,1,41.7c.05,1.92,3.05,1.93,3,0Z"/><path d="M96,95.34l1.2-41.82.28-9.72c0-2,1-6.29,0-8.2-1.74-3.17-7.59-1.34-10.35-1.14a1.52,1.52,0,0,0-1.5,1.5q-.89,31.24-1,62.51a1.52,1.52,0,0,0,1.9,1.45,37.86,37.86,0,0,1,7.94-1.09c1.92-.06,1.93-3.06,0-3A42.27,42.27,0,0,0,85.72,97l1.9,1.45q.1-31.26,1-62.51l-1.5,1.5c1.13-.09,6.31-1.18,7.08-.51,1.35,1.16.28,7,.23,8.79L94,62.28,93,95.34c0,1.94,3,1.93,3,0Z"/><path d="M58.14,35.59l0,15a1.53,1.53,0,0,0,1.5,1.5c1.87,0,5,.81,6.35-.86.74-.92.61-2.15.63-3.24.06-2.17.06-4.35.09-6.52,0-2.4.63-5.84-1.39-7.67a3.35,3.35,0,0,0-4.84.14c-1.31,1.41.81,3.54,2.12,2.12,1-1.07,1.12,4.81,1.12,4.82l-.06,4.74a22.2,22.2,0,0,1,0,3.56c-.48.4-3.35-.07-4-.09l1.5,1.5,0-15a1.5,1.5,0,0,0-3,0Z"/><path d="M64.32,59.23c-2.4-.49-5.06-.46-6,2.19-.79,2.19-.18,5.8-.17,8.1l0,9.57a1.5,1.5,0,0,0,1.5,1.5,14.25,14.25,0,0,0,4.69-1,1.56,1.56,0,0,0,1.1-1.45l0-17.68a1.5,1.5,0,0,0-3,0l-.05,17.68,1.11-1.45a10.74,10.74,0,0,1-3.9.85l1.5,1.5,0-9.57c0-2.27-1.2-8.12,2.38-7.4,1.89.39,2.69-2.5.8-2.89Z"/><path d="M66.16,94.15l-.41-8a1.51,1.51,0,0,0-2.25-1.3,8,8,0,0,1-4.24.93,1.5,1.5,0,0,0-1.5,1.5c.18,3.06.16,6.21.58,9.25.24,1.67.82,3.5,2.44,4.3a3.79,3.79,0,0,0,4.54-1c1.67-1.9,1.22-4.47.65-6.7-.47-1.87-3.36-1.08-2.89.8a8.31,8.31,0,0,1,.36,3.22c-1,1.35-1.7,1.33-2,0a9.94,9.94,0,0,1-.3-2.6c-.16-2.39-.28-4.79-.42-7.18l-1.5,1.5A11.18,11.18,0,0,0,65,87.47l-2.26-1.29.41,8c.1,1.92,3.1,1.93,3,0Z"/></svg>