<svg id="Ebene_1" data-name="Ebene 1" xmlns="http://www.w3.org/2000/svg" viewBox="0 0 128 128"><title>Icon</title><path d="M62.48,56.45,59.24,28.06a7.69,7.69,0,0,0-.9.47L23.6,50.25a7.38,7.38,0,0,0-1.3,1Z"/><path d="M64,62.5,20.46,54.28a7.25,7.25,0,0,0-.39,2.46l.34,22.1a7.51,7.51,0,0,0,6.15,7.28L81.31,96.23a7.55,7.55,0,0,0,2.64,0Z"/><path d="M109.25,63,99.83,44.05a7.57,7.57,0,0,0-3.9-3.62L65.15,27.94a7.47,7.47,0,0,0-1.9-.48l5.41,31.16,18.68,36.1a9.35,9.35,0,0,0,1-.91l19.84-22.52A7.52,7.52,0,0,0,109.25,63Z"/></svg>