<svg id="Ebene_1" data-name="Ebene 1" xmlns="http://www.w3.org/2000/svg" viewBox="0 0 128 128"><title>Icon</title><path d="M25.65,100.6q6.2-22,10.58-44.49,1-5.25,1.94-10.53c.51-2.94.21-9.89,3.21-11.43,1-.54,4.67-.25,5.85-.3l5.85-.21c3.9-.1,7.81-.14,11.71-.14l-1.37-1a131.64,131.64,0,0,0,4.07,19.06,1.42,1.42,0,0,0,2.74-.75,129.58,129.58,0,0,1-4.07-19.06,1.43,1.43,0,0,0-1.37-1.05q-6.83,0-13.66.2c-3.17.11-8.17-.5-11.2.62-2,.73-2.34,1.79-2.93,3.74-1.19,3.93-1.36,8.44-2.08,12.48-3.14,17.58-7.18,35-12,52.15a1.42,1.42,0,0,0,2.74.75Z"/><path d="M90.42,98.27l2.35-68.83c.06-1.82-2.78-1.82-2.84,0L87.58,98.27c-.06,1.82,2.78,1.82,2.84,0Z"/><path d="M91.23,30.46a1.42,1.42,0,0,0,0-2.84,1.42,1.42,0,0,0,0,2.84Z"/><path d="M91.19,29.89c2.58-.2,5.13-.29,7.72-.27L97.49,28.2l4.3,71.3c.11,1.82,2.95,1.83,2.84,0l-4.3-71.3a1.45,1.45,0,0,0-1.42-1.42c-2.59,0-5.14.07-7.72.27-1.81.14-1.83,3,0,2.84Z"/><path d="M85.06,62.9a21,21,0,0,0-27.83.7C47.61,72.21,47.38,86.05,47.52,98a1.42,1.42,0,0,0,2.84,0c-.11-9.36-.27-19.56,5-27.76,6-9.42,18.74-12.78,27.71-5.29,1.39,1.16,3.41-.84,2-2Z"/></svg>