<svg id="Ebene_1" data-name="Ebene 1" xmlns="http://www.w3.org/2000/svg" viewBox="0 0 128 128"><title>Icon</title><path d="M94.94,88.24l-6.35,15.13a1,1,0,0,1-1.33.54l-1.33-.56a1,1,0,0,1-.54-1.33l6.28-15c-1.62-.52-3.37-1-5.22-1.42L77.14,106.7a1.38,1.38,0,0,1-1.8.74l-3.88-1.63a1.38,1.38,0,0,1-.73-1.81l8.66-19.63c-3.15-.43-6.51-.72-10-.85l-4.49,6.66,2.36-6.72h0l.4-1.12.4-1.11h0l6.49-17.9.87-2.4L73.84,59.1,69.46,54,87,48.15l1.4-.47.35-1.17,4.92-16.75A1.93,1.93,0,0,0,90,28.56l-5.49,15L64.4,47.22a3.58,3.58,0,0,0-.54.14h0l-5.28-6.19,4-23.12A2.86,2.86,0,0,0,57,16.84L50.51,41.49,50,43.27l1.29,1.59L62.19,58.18,43.38,61.4l-7.05-12-1.08-1.86-1.85.89L17.25,56.14A2.07,2.07,0,0,0,19,59.89l14.3-6.5,6.14,12.46.8,1.62,2-.16,22.2-1.77-7.17,17.4-2.58,6.61.55-5.67c-16.71,1.53-29,6.8-29,13.08,0,7.47,17.44,13.53,39,13.53s38.94-6.06,38.94-13.53C104.13,93.64,100.67,90.6,94.94,88.24Z"/></svg>