<svg id="Ebene_1" data-name="Ebene 1" xmlns="http://www.w3.org/2000/svg" viewBox="0 0 128 128"><title>Icon</title><path d="M73.89,22.88C68.06,21.11,63.28,24.17,58.33,27c-7.73,4.33-16,5.19-24.14,1.26a1.52,1.52,0,0,0-2.26,1.3,75.76,75.76,0,0,1-.24,13.3c-.61,5.36-2.37,10.31-3.41,15.56C26.84,65.72,31.38,71,32.61,77.9c1.28,7.17-5.08,13.92-2.24,21,2,4.92,7.42,7,12.36,7.34,3.88.27,7.7-.68,11.53-1.06,4.83-.46,8.87,1.15,13.55,1.63,6.86.69,10.41-5,14.06-9.88,8.07-10.75,24-26,19.15-41-1.09-3.42-3.27-6.31-5.46-9.1A55.49,55.49,0,0,1,88.38,34.5c-2.74-6-8.19-9.12-14.77-7.92-1.89.34-1.09,3.23.8,2.89,10.44-1.9,11.86,10.06,16.64,16.43,2.57,3.43,5.72,6.65,7.08,10.82,1.56,4.78.35,9.77-1.71,14.18-3.69,7.85-9.76,14.69-14.93,21.57-2.53,3.38-5,8.2-8.74,10.4-4.13,2.47-8.84-.46-13.13-.82-7.67-.64-16.26,3.68-23.37-.71-8-4.94.28-15.69-.53-22.8-.39-3.47-2-6.58-3.22-9.81A18.86,18.86,0,0,1,32,56a81,81,0,0,0,2.93-26.47L32.67,30.8a27.87,27.87,0,0,0,18,2.46c7.38-1.55,14.75-9.81,22.38-7.49,1.85.57,2.64-2.33.8-2.89Z"/><path d="M31.28,55.08l9.08,6c2.7,1.78,5.44,4.18,8.48,5.33,3.44,1.3,6.63-.52,8.37-3.55,1.35-2.37,1.53-5.28,2.18-7.87A39.11,39.11,0,0,1,63,45.72,40.29,40.29,0,0,1,76.51,31.33c1.61-1,.11-3.65-1.51-2.59A42.44,42.44,0,0,0,56.17,55.62c-.23,1-.37,2.09-.65,3.1a5.9,5.9,0,0,1-7,4.11C46,62.08,43.29,59.4,41.11,58l-8.32-5.48c-1.61-1.06-3.12,1.54-1.51,2.59Z"/><path d="M50.6,66.33Q56.48,84.47,60.86,103c.44,1.88,3.34,1.08,2.89-.8Q59.37,83.67,53.5,65.53c-.59-1.83-3.49-1-2.9.8Z"/></svg>