<svg id="Ebene_1" data-name="Ebene 1" xmlns="http://www.w3.org/2000/svg" viewBox="0 0 128 128"><title>Icon</title><path d="M64,13.6A50.4,50.4,0,1,0,114.4,64,50.39,50.39,0,0,0,64,13.6ZM44.87,37.08l16.2,15.3-4.48,4.75a5.39,5.39,0,0,1-8,7.2l-3.82-3.82a5.39,5.39,0,0,1,4.75-9.13l-9.59-9.06Zm40.05,63a3.71,3.71,0,0,1-1.37.27,3.59,3.59,0,0,1-3.33-2.23c-2.07-5-9.14-17.94-16.95-17.94h-.05c-7.85.06-14.66,12.6-16.62,17.43a3.6,3.6,0,0,1-6.68-2.7c.9-2.24,9.22-21.82,23.24-21.93h.11c14,0,22.66,20.1,23.6,22.4A3.6,3.6,0,0,1,84.92,100.08Zm-5.54-48.7a5.39,5.39,0,0,1,4.75,9.13l-3.82,3.82a5.39,5.39,0,0,1-8-7.2l-4.48-4.75L84,37.08,89,42.32Z"/></svg>