<svg id="Ebene_1" data-name="Ebene 1" xmlns="http://www.w3.org/2000/svg" viewBox="0 0 128 128"><title>Icon</title><path d="M106.42,86.06,79.66,39.69,81,22.56A7.13,7.13,0,0,0,79.16,17c-2.4-2.57-6-2.57-7.74-2.57H57.63c-1.73,0-5.33,0-7.73,2.57a7.17,7.17,0,0,0-1.85,5.58L49.47,40.7,23.29,86.06A11.7,11.7,0,0,0,33.41,103.6H96.29a11.7,11.7,0,0,0,10.13-17.54ZM56,89a5,5,0,1,1,5-5A5,5,0,0,1,56,89Zm11,9a4,4,0,1,1,4-4A4,4,0,0,1,67,98Zm1-18a7,7,0,1,1,7-7A7,7,0,0,1,68,80ZM49.92,59.92,59.68,43,58.22,24.46H70.83L69.44,42,79.79,59.92Z"/></svg>