<svg id="Ebene_1" data-name="Ebene 1" xmlns="http://www.w3.org/2000/svg" viewBox="0 0 128 128"><title>Icon</title><path d="M24.14,78.38,39,59.32c4.62-5.94,8.93-12.58,14.2-18a12.92,12.92,0,0,1,5.32-3.73c3.19-1,6,1.54,7.71,4,2.18,3.08,3.73,6.83,5.55,10.15L83.32,72.87c2.08,3.81,6.39,9.13,3.31,13.48-2,2.83-5.68,5.08-8.69,6.66a42,42,0,0,1-20.06,4.45A71.06,71.06,0,0,1,35.76,93,74.84,74.84,0,0,1,25,88.71c-7-3.79-2.88-9.07,1.77-12.24,1.59-1.08.09-3.68-1.51-2.59-3.75,2.55-8.59,6.46-7.35,11.61,1.35,5.56,9.15,7.45,13.75,9.2,14.19,5.43,30.2,8.44,44.71,2.36,5.13-2.14,11.59-5.92,14.29-11,2.85-5.38-3.67-12.76-6.1-17.21L71.12,44.29c-2.75-5-5.18-10.9-12-9.88C51.46,35.55,46.5,44.83,42.21,50.33L22,76.26c-1.17,1.5.94,3.64,2.12,2.12Z"/><path d="M83.68,69.76,98.79,51.09l-2.35-.31c3,7,8.25,12.54,12,19.14,1.57,2.78,2.78,6.07.74,9.13-1.29,1.92-5.52,3.46-7.53,4.14A29.1,29.1,0,0,1,89,84.41c-1.92-.2-1.9,2.8,0,3,7.22.77,23-1.12,24.64-10.42.76-4.41-3-9.3-5.27-12.67-3.36-4.93-7-9.52-9.37-15a1.51,1.51,0,0,0-2.36-.3L81.56,67.64c-1.21,1.49.9,3.62,2.12,2.12Z"/></svg>