<svg id="Ebene_1" data-name="Ebene 1" xmlns="http://www.w3.org/2000/svg" viewBox="0 0 128 128"><title>Icon</title><path d="M94.72,40.84c-12.31,6-23,15.46-33.91,23.63L25.5,91l2.2,1.69,7.61-18.33-2.9-.8L27.12,90c-.43,1.34,1.1,2.22,2.2,1.69a68.23,68.23,0,0,1,20.52-6.1c1.88-.25,1.91-3.26,0-3a72.84,72.84,0,0,0-22,6.51L30,90.8l5.3-16.49c.6-1.88-2.18-2.52-2.9-.8l-7.6,18.33a1.51,1.51,0,0,0,2.2,1.7L62.33,67.06c10.89-8.17,21.6-17.64,33.9-23.63,1.74-.85.22-3.43-1.51-2.59Z"/><path d="M92.23,41.86l-9,17.61A1.51,1.51,0,0,0,85.82,61Q91.21,52.16,96,43a1.51,1.51,0,0,0-1.29-2.25c-4.73-.14-9.51-.27-14.23,0-2.29.11-4.85.55-5.31,3.16-.33,1.88,2.56,2.69,2.89.79.39-2.2,14.75-1,16.65-.92l-1.3-2.26q-4.77,9.18-10.18,18L85.82,61l9-17.61c.88-1.72-1.71-3.24-2.59-1.52Z"/><path d="M30.78,40.05A754.17,754.17,0,0,1,89.93,91.14c1.39,1.33,3.51-.78,2.12-2.12A752.36,752.36,0,0,0,32.9,37.93c-1.51-1.17-3.64.94-2.12,2.12Z"/><path d="M83.47,71.27a94.63,94.63,0,0,1,8.37,18.38l1.84-1.84A114.49,114.49,0,0,1,71,79.16l.31,2.36.08-.1H69.26l.27.25c1.42,1.3,3.55-.82,2.12-2.12l-.27-.25a1.51,1.51,0,0,0-2.12,0l-.08.1a1.51,1.51,0,0,0,.3,2.35,118,118,0,0,0,23.41,9,1.51,1.51,0,0,0,1.84-1.85,98.67,98.67,0,0,0-8.67-19.1,1.5,1.5,0,0,0-2.59,1.52Z"/><path d="M39.32,51.15q-5-7.17-10.45-14L27.8,39.72l9.75,1.16c1,.12,9.47,1.78,10,.85-.92,1.7,1.67,3.22,2.59,1.51,1.36-2.52-.53-3.68-2.81-4.21-6.23-1.45-13.14-1.55-19.5-2.31-1.44-.17-1.76,1.69-1.06,2.57q5.22,6.51,10,13.37c1.1,1.57,3.7.08,2.59-1.51Z"/></svg>