<svg id="Ebene_1" data-name="Ebene 1" xmlns="http://www.w3.org/2000/svg" viewBox="0 0 128 128"><title>Icon</title><rect x="53" y="40" width="9.01" height="15" rx="3.7"/><rect x="38" y="40" width="9.01" height="15" rx="3.7"/><rect x="78" y="55.99" width="15" height="9.01" rx="3.7"/><path d="M101,40.83H77V29.33a5,5,0,0,0-5-5H28a5,5,0,0,0-5,5V99a5,5,0,0,0,5,5h73a5,5,0,0,0,5-5V45.83A5,5,0,0,0,101,40.83ZM96,94H33V34.33H67v11.5c0,.15,0,.29,0,.44s0,.28,0,.43V83.3c0,2-.34,3.7,1.7,3.7h.61c2,0,2.7-1.66,2.7-3.7l3.55-32.47H96Z"/></svg>