<svg id="Ebene_1" data-name="Ebene 1" xmlns="http://www.w3.org/2000/svg" viewBox="0 0 128 128"><title>Icon</title><path d="M65.67,21.91c-7.9,15-16.82,29.84-23.64,45.35-4.77,10.85-5,22.68,4.36,31.12a24.33,24.33,0,0,0,29.28,2.71C85.93,94.8,90.11,83.32,88.34,71.68c-1.27-8.33-4.85-16.09-8.44-23.63-4-8.47-8.1-16.92-12.14-25.37-.84-1.74-3.42-.22-2.59,1.51q5.25,11,10.52,22C79.22,53.56,83,61,84.8,69.07c1.85,8.4,1.17,17.33-4.52,24.15a23.53,23.53,0,0,1-18.08,8.65A21.82,21.82,0,0,1,44.79,92c-5-7.55-3.35-16.21.19-24,6.9-15.19,15.51-29.77,23.28-44.52.9-1.71-1.69-3.23-2.59-1.52Z"/><path d="M61.7,57.27C48,54.35,44.2,84.1,58.11,81.19c6.36-1.33,9.66-10.19,9.35-16-.27-5.19-5.8-9.28-10.27-5.6-1.49,1.23.64,3.34,2.12,2.12,1.9-1.56,4.44.61,5,2.49s-.18,4.4-.73,6.25c-.89,3-2.39,6.75-5.77,7.53C48.68,80.15,52,58.26,60.9,60.16c1.89.4,2.69-2.49.8-2.89Z"/></svg>