<svg id="Ebene_1" data-name="Ebene 1" xmlns="http://www.w3.org/2000/svg" viewBox="0 0 128 128"><title>Icon</title><path d="M99.14,44C95.61,31.86,80.43,31,70,31.77c-13,1-21.75,9.57-29.09,19.62s-10,21.52-3.77,32.73c5.67,10.17,16.83,15.6,28.24,15.67,14.32.1,26.93-8.07,35.58-19,1.19-1.5-.92-3.63-2.12-2.12-8,10.11-19.41,18-32.69,18.14-13.58.19-26.62-8.12-29.27-22-2.55-13.41,9-28.19,19.58-35.38,5.89-4,12.56-5,19.55-4.76,7.75.22,17.73,1.33,20.29,10.09.54,1.85,3.44,1.06,2.89-.8Z"/><path d="M27.52,57.89,72.29,54c1.91-.17,1.93-3.17,0-3L27.52,54.89c-1.91.16-1.93,3.17,0,3Z"/><path d="M25.25,73.79q22.16-3.06,44.34-5.9l-1.5-1.5-.23.88c-1,1.65,1.58,3.16,2.59,1.52a3.32,3.32,0,0,0,.64-2.4c0-.73-.68-1.6-1.5-1.5q-22.59,2.89-45.14,6c-1.91.27-1.09,3.16.8,2.9Z"/></svg>