<svg id="Ebene_1" data-name="Ebene 1" xmlns="http://www.w3.org/2000/svg" viewBox="0 0 128 128"><title>Icon</title><path d="M64,13.6A50.4,50.4,0,1,0,114.4,64,50.39,50.39,0,0,0,64,13.6Zm6.3,34.2a5.4,5.4,0,1,1,10.8,0v9.9a5.4,5.4,0,1,1-10.8,0Zm-23.4,0a5.4,5.4,0,0,1,10.8,0v9.9a5.4,5.4,0,1,1-10.8,0Zm39.51,42a3.62,3.62,0,0,1-5.07-.36c-.13-.14-8.06-9-18.23-9.28-10-.24-16.4,7.74-16.47,7.82A3.6,3.6,0,0,1,41,83.56c.35-.45,8.68-10.9,22.3-10.59,13.44.3,23.1,11.29,23.51,11.76A3.61,3.61,0,0,1,86.41,89.81Z"/></svg>