<svg id="Ebene_1" data-name="Ebene 1" xmlns="http://www.w3.org/2000/svg" viewBox="0 0 128 128"><title>Icon</title><path d="M21.55,83.93,33.7,50.3c1.9-5.24,3.43-14.94,9.07-16.9,4.22-1.47,9.37.45,13.82-.27l-1.9-1.45c.15,5.76.5,11.5,1.13,17.23.3,2.7-.13,7.91,3,9.11A6.5,6.5,0,0,0,62,58c3.27-.45,6.44-1.17,9.75-1.41a74.49,74.49,0,0,1,19.09,1.1,1.52,1.52,0,0,0,1.7-2.2,10.72,10.72,0,0,1,2.8-12.76l-2.51-1.46C86.1,57.68,85.5,77.56,99.26,90.6l2.12-2.12c-3.82-3.28-8-8.4-12.94-10.06-2.74-.93-5.85-.52-8.67-.43L68,78.4l-22.51.77-11.74.41c-.92,0-11.49.69-10.62-1.15s-1.77-3.26-2.59-1.51c-1.61,3.42.78,5.54,4.16,5.94,4.12.48,8.8-.27,13-.42L50.41,82l25.44-.88c4.35-.15,10-1.2,13.82,1.31,3.41,2.23,6.5,5.51,9.59,8.16,1.45,1.24,3.54-.78,2.12-2.12-13-12.34-12-31-5.65-46.43.62-1.49-1.51-2.36-2.5-1.46A13.86,13.86,0,0,0,90,57l1.69-2.2a77.55,77.55,0,0,0-24.93-.67c-2,.27-5.65,1.89-7.24.1-.93-1-.72-5.83-.86-7.22-.51-5.1-.8-10.2-.93-15.32a1.53,1.53,0,0,0-1.9-1.45c-4.88.79-10.18-1.42-14.89.44S35.06,37.75,33.51,42L18.66,83.14c-.66,1.82,2.24,2.6,2.89.79Z"/><path d="M39.79,55.7c.91-5.21,2.59-13,9.45-12.52l-1.5-1.5.09,8.16c0,1,.37,3.35-.8,4a5.22,5.22,0,0,1-2.23.06c-2.2,0-4.66-.17-5.75,2.14-.82,1.73,1.76,3.26,2.59,1.51.63-1.33,3.48-.56,4.68-.63a5,5,0,0,0,3.29-1.12C51,54.52,50.85,52.72,50.85,51c0-3.1-.07-6.21-.11-9.32a1.53,1.53,0,0,0-1.5-1.5c-8.32-.63-11.19,8.13-12.34,14.72-.33,1.89,2.56,2.7,2.89.8Z"/><path d="M45.35,76.06c-4.11.3-11.31-.49-14.2,3.29-2,2.69-1.11,6.51,1.23,8.71,3.69,3.48,9.74,2.76,14.34,2.77,7.93,0,15.91.34,23.83,0,4.14-.17,8.91-.87,11.71-4.27,2.1-2.55,2.54-6.15-.29-8.31-3.92-3-11.5-2-16-2A168.53,168.53,0,0,0,42.1,77.81c-1.88.25-1.91,3.25,0,3A168.63,168.63,0,0,1,66,79.26q3.36,0,6.7.19c1.55.08,4.6-.31,5.84.54l2,3.84A7.38,7.38,0,0,1,76.34,87a19,19,0,0,1-5.09.85c-7.46.47-15.07,0-22.55,0-3.53,0-7.83.56-11.27-.45Q31.31,86.15,36,79.89a27,27,0,0,1,3.24-.38c2-.19,4.07-.3,6.1-.45s1.93-3.15,0-3Z"/><path d="M79.31,52.19c-.08-2.29-.09-4.58,0-6.86.07-2,.88-4.91.49-6.84-.44-2.2-3.2-2.86-5.13-2.5-7.29,1.37-6,11.67-6.24,17-.07,1.93,2.93,1.93,3,0,.13-3.52-1-12.46,3.25-13.94,3-1.05,1.76,3.32,1.68,5.09-.13,2.66-.13,5.33,0,8,.06,1.92,3.06,1.93,3,0Z"/><path d="M92.33,45.41a16.62,16.62,0,0,0,8.88-.9l-1.84-1c.58,2-2.42,6-3.2,7.87a31.14,31.14,0,0,0-1.7,5.49,34.16,34.16,0,0,0-.39,11.32,32.67,32.67,0,0,0,11,20.58l1.06-2.56-8.53.17c-1.93,0-1.93,3,0,3l8.53-.17a1.52,1.52,0,0,0,1.06-2.56A30.2,30.2,0,0,1,96.77,63.91a29.24,29.24,0,0,1,2.52-12.3c1.43-3.12,4-5.4,3-8.94a1.51,1.51,0,0,0-1.85-1.05,13.69,13.69,0,0,1-7.28.9c-1.89-.28-2.71,2.61-.8,2.89Z"/></svg>