<svg id="Ebene_1" data-name="Ebene 1" xmlns="http://www.w3.org/2000/svg" viewBox="0 0 128 128"><title>Icon</title><path d="M21.11,102.52q13.81-22.23,26-45.42,6-11.6,11.64-23.43c1.6-3.37,3-8.12,5.44-10.91.77-.86,3.52-2.81,4.86-2.6.94.15,2.36,2.93,2.77,3.7.93,1.75,1.6,3.69,2.4,5.51q10.44,23.77,23.09,46.5,2.94,5.26,6,10.47,1.64,2.79,3.32,5.58c.47.79,1,1.59,1.44,2.38,1.49,2.44,2.4,2.51.61,5s-4.06,2.19-7.14,2.5q-2.91.28-5.83.54-7.29.63-14.6,1a449.37,449.37,0,0,1-61.4-1l1.44,1.89.94-3c.57-1.85-2.32-2.64-2.89-.79l-.94,3.05a1.52,1.52,0,0,0,1.45,1.9,450.42,450.42,0,0,0,65.3.76q7.78-.49,15.56-1.25c3.06-.3,9.8.26,12.28-2.24,1.52-1.54,1.21-3.52.47-5.36-1.73-4.35-5.06-8.46-7.42-12.5A548.06,548.06,0,0,1,77.51,29.55c-1.94-4.37-4.94-15.23-12-12.51-2.66,1-4.08,4.39-5.28,6.67-2.62,5-4.86,10.14-7.32,15.19A687.42,687.42,0,0,1,18.52,101c-1,1.65,1.57,3.15,2.59,1.52Z"/><path d="M60.71,46.67c0,6.81.11,13.61.47,20.41.25,4.77-.11,10.91,2.91,15,1.71,2.3,4.82,4.07,7.74,3.2,3.82-1.12,3.16-5.29,3-8.45l-1.09-20c-.26-4.77.71-11.82-1.58-16.19a5.27,5.27,0,0,0-7.28-2.45c-4.26,2.11-4.43,7.14-5,11.25-.26,1.89,2.63,2.71,2.89.8.13-.94.45-4.14.62-4.66l.36-1.5Q70,39.9,70,44.23c1.12,2.86.49,7.6.66,10.69l1.09,20c0,.89.64,4.16.26,4.76l-3.9,2.11a5.82,5.82,0,0,1-2.57-3.61c-1.4-3.26-1.14-7.58-1.33-11.1-.37-6.79-.5-13.6-.47-20.41a1.5,1.5,0,0,0-3,0Z"/><path d="M73.47,90.14a6.89,6.89,0,0,0-9.69-.36c-2.85,2.75-2.1,7.7,1,9.93a6.57,6.57,0,0,0,9.87-3.38,6.75,6.75,0,0,0-1-5.92c-1-1.4-3.14-2.43-4.52-.87s.85,3.57,2.13,2.12c-.4.46.07.56.32,1.07A3.68,3.68,0,0,1,72,94.52a3.32,3.32,0,0,1-1.47,2.68,3.4,3.4,0,0,1-5.09-1.32c-1.87-3.9,3.33-6.64,6-3.61,1.27,1.45,3.39-.67,2.12-2.13Z"/></svg>