<svg id="Ebene_1" data-name="Ebene 1" xmlns="http://www.w3.org/2000/svg" viewBox="0 0 128 128"><title>Icon</title><path d="M34.17,38.75C46.6,18,86.32,15.26,96.71,39.58c.6,1.4,2.44.48,2.56-.7l1.45-14.29c.16-1.56-2.33-1.85-2.7-.37a101.64,101.64,0,0,0-2.74,16.62L97,39.52a38.42,38.42,0,0,1-12.18-3.77c-1.58-.79-3,1.58-1.39,2.37a40.84,40.84,0,0,0,12.84,4.05A1.41,1.41,0,0,0,98,40.84,97.05,97.05,0,0,1,100.67,25L98,24.59,96.52,38.88l2.57-.69C87.86,11.9,45.18,15,31.8,37.36a1.37,1.37,0,0,0,2.37,1.39Z"/><path d="M79.05,42.88a125.56,125.56,0,0,1-20,.83,1.35,1.35,0,0,0-1.19.68l-12.45,24a1.39,1.39,0,0,0,1.19,2.07l16.68-1.08L62,67.61l-7,21a1.38,1.38,0,0,0,2.3,1.33L85.32,59a1.4,1.4,0,0,0-1-2.35L68.8,56.39,70,58.46q3.3-5.31,7-10.36c1.05-1.43-1.34-2.8-2.37-1.38q-3.69,5-7,10.36a1.38,1.38,0,0,0,1.19,2.06l15.55.29-1-2.34L55.33,88l2.3,1.34,7-21a1.38,1.38,0,0,0-1.32-1.74L46.64,67.68l1.18,2.07C51.33,63,54.35,55.56,58.5,49.2c1.38-2.13,1.58-2.28,4.22-2.63,1.76-.24,3.69,0,5.46-.06,3.64-.12,7.26-.44,10.87-.88,1.74-.21,1.76-3,0-2.75Z"/><path d="M98.82,90.32A47.2,47.2,0,0,1,66.6,107.2a46.53,46.53,0,0,1-18.18-2.28C43.63,103.34,31.33,98.53,31,92.47c-.09-1.47-2.34-2-2.7-.37l-2.56,11.23c-.33,1.44,1.87,2.56,2.51,1.06a35,35,0,0,0,2.94-13.51l-1.37,1.37a68.75,68.75,0,0,1,10.94,1.88,1.38,1.38,0,0,0,.73-2.65,72.23,72.23,0,0,0-11.67-2,1.4,1.4,0,0,0-1.38,1.38A31.52,31.52,0,0,1,25.83,103l2.51,1L30.9,92.83l-2.7-.36c.39,6.14,8.17,10.08,13.1,12.49a49.91,49.91,0,0,0,21.21,5.12,49.67,49.67,0,0,0,38.26-17.81c1.13-1.35-.8-3.3-2-2Z"/></svg>