<svg id="Ebene_1" data-name="Ebene 1" xmlns="http://www.w3.org/2000/svg" viewBox="0 0 128 128"><title>Icon</title><path d="M33.2,60.66c-3,7.22-3,16.41-1.41,24C33.18,91.22,38.06,94.81,44.11,97c13.11,4.77,32.28,7.47,43.74-2.49C93.16,89.92,95,83.1,95.08,76.3c.08-4.9-.6-9.77-.5-14.68,0-2.1.55-4.07-1.49-5.31-2.87-1.75-8.77-.58-12-.6-5.16-.05-10.32-.06-15.48-.06q-15.48,0-31,.31a1.5,1.5,0,0,0,0,3l2.13.09c1.93.08,1.92-2.92,0-3L34.65,56v3q22.24-.41,44.51-.27l5.8.05c1.27,0,5-.6,5.8.07,1.76,1.43.84,7.06,1,9.23.39,7,1.13,14.46-2.76,20.68-8,12.83-27.71,9.9-39.88,6.68-6.44-1.71-12.89-4.33-14.4-11.54s-1.33-15.73,1.41-22.4c.73-1.79-2.17-2.56-2.89-.8Z"/><path d="M82.3,57.49c.61-9.09,1.5-18.2,1.84-27.3.15-4.16-.75-9.58-6.14-9.28-4.77.26-7,4.7-7.48,8.9-1,8.37-.42,17.21-.56,25.64,0,1.93,3,1.93,3,0l.24-14.72c0-2.45.06-4.91.12-7.36,0-.95,0-1.91.12-2.85l.39-2.4q.7-4.83,4.41-1.7c4,1.57,2.59.49,2.93,3.12a20.4,20.4,0,0,1-.23,3.57l-.53,7.8L79.3,57.49c-.13,1.93,2.87,1.92,3,0Z"/><path d="M56.9,54.67c.19-8.59,1-17.42.56-26-.2-3.9-1.77-8.07-6.38-7.86-5.27.25-7.17,5.7-7.57,10.1a118.76,118.76,0,0,0,1,25.83c.25,1.89,3.25,1.91,3,0a142.53,142.53,0,0,1-1.22-14.89c-.1-3.69-1.44-15.93,3.2-17.49,7-2.38,4.78,12.14,4.71,15.12L53.9,54.67c0,1.93,3,1.93,3,0Z"/><path d="M56.6,99.9a79.47,79.47,0,0,1-.7,11.54h3a62.72,62.72,0,0,1,.87-9.08c.14-.8.07-1,.63-1.28a8.31,8.31,0,0,1,2.34.15l4.93.19-1.5-1.5c-.25,2.74-.44,5.49-.52,8.24-.05,1.51-.54,3.62.55,4.85a1.5,1.5,0,0,0,1.81.24l.15-.11a1.54,1.54,0,0,0,.54-2l-.07-.12c-1-1.64-3.61-.14-2.59,1.51l.07.12.54-2-.15.1,1.82.24c.3,1,.39.89.28-.3v-1c0-1.14.06-2.27.11-3.4.1-2.1.26-4.2.45-6.3a1.52,1.52,0,0,0-1.5-1.5c-2.3-.09-4.6-.25-6.9-.27-1.45,0-2.7-.05-3.42,1.39s-.73,3.52-.94,5.11a67.21,67.21,0,0,0-.51,6.79c0,2,2.76,1.85,3,0a79.47,79.47,0,0,0,.7-11.54,1.5,1.5,0,0,0-3,0Z"/><path d="M58.94,57.6l-.38,7c-.12,2.22-.64,4.82-.38,7,.34,2.85,2.79,2.32,5.1,2.32s5.55.83,6-2.08c.75-4.44.17-9.56.11-14.06,0-1.93-3-1.93-3,0,0,2.35,0,4.69,0,7,0,2.15.36,5-.21,7.07l1-1c-1.54.44-3.55.09-5.14.09H61.05q-1,.15-.18-.24a.58.58,0,0,0,.41-.83l.09-1.75.57-10.51c.11-1.93-2.89-1.93-3,0Z"/></svg>