<svg id="Ebene_1" data-name="Ebene 1" xmlns="http://www.w3.org/2000/svg" viewBox="0 0 128 128"><title>Icon</title><path d="M26,87.91c.26-4.18-.9-16.57,5.62-15.34a1.53,1.53,0,0,0,1.9-1.45l.5-7.48a31,31,0,0,1,.25-3.74c.56-2.86,1.54-2.77,4.24-3.08a132.74,132.74,0,0,1,16.2-.64c10.88.07,21.75.29,32.63.45a1.52,1.52,0,0,0,1.5-1.5L88.63,49l-1.5,1.5c3.52,0,7.05.09,10.57.15,3,.06,6-.47,7.19,4.08.4,1.51.07,4,.09,5.48l.25,23.83a1.5,1.5,0,0,0,3,0l-.18-16.88c0-4.56.92-10.65-.65-15a6.15,6.15,0,0,0-5-4.21c-4.84-1-10.32-.36-15.25-.43a1.52,1.52,0,0,0-1.5,1.5l.16,6.1,1.5-1.5c-14-.2-28.17-1-42.18-.32-3.06.14-10.81-.44-13,2.26-.93,1.15-.79,3-.89,4.33-.28,3.74-.5,7.48-.75,11.22l1.89-1.44C21.44,67.61,23.42,80.38,23,87.91c-.12,1.93,2.88,1.92,3,0Z"/><path d="M25.15,89.23a41.44,41.44,0,0,0,8-.1L31.74,88c1.72,7.45,13.72,8.2,13.55-.36l-2.95.4c2.43,6.59,10.87,6.55,12.71-.47L53.6,88.7A279.84,279.84,0,0,0,87,88.48l-1.45-1.1a5,5,0,0,0,5.24,4.43c3.1-.07,5.11-2.51,6.45-5l-2.74-.36c2.13,6.89,11.28,5.67,11.32-1.64l-1.5,1.5,1.78.19c1.85.58,2.64-2.32.8-2.89a4.65,4.65,0,0,0-2.58-.3,1.54,1.54,0,0,0-1.5,1.5l-5.43.85a1.51,1.51,0,0,0-2.74-.36q-1.26,3.6-6.2,1.32A1.5,1.5,0,0,0,87,85.48a279.84,279.84,0,0,1-33.4.22,1.51,1.51,0,0,0-1.44,1.1l-6.93.47c-.55-1.5-3-1.39-2.94.4q-6.34,5.61-7.66-.43a1.51,1.51,0,0,0-1.45-1.11,41.43,41.43,0,0,1-8,.1c-1.93-.17-1.92,2.84,0,3Z"/><path d="M44.81,53.24a6,6,0,0,1-.08-3.84l-1.85,1.05a32.8,32.8,0,0,0,6.63.49,5.72,5.72,0,0,1,1.47-.1c.7.23.22-.11.54.47a12.59,12.59,0,0,0,.85,1.84c1.18,1.52,3.29-.61,2.13-2.12-.38-.5-.17-1.52-.57-2.12a2.52,2.52,0,0,0-1.87-1.1,32,32,0,0,0-3.65.15,27.81,27.81,0,0,1-4.73-.41,1.55,1.55,0,0,0-1.84,1.05A8.76,8.76,0,0,0,41.91,54c.61,1.83,3.51,1,2.9-.79Z"/></svg>