<svg id="Ebene_1" data-name="Ebene 1" xmlns="http://www.w3.org/2000/svg" viewBox="0 0 128 128"><title>Icon</title><path d="M104.66,99.75c-.58-11.14-1.3-23.14-7.21-32.95a30.84,30.84,0,0,0-26.62-15C44.32,52.2,34.42,84,35.23,105.87c.08,1.92,3.08,1.93,3,0-.75-20.22,7.88-50.55,32.6-51.06,10.65-.22,20.29,6.1,25.1,15.44,4.64,9,5.21,19.56,5.73,29.5.1,1.92,3.1,1.94,3,0Z"/><path d="M75.47,82.05a7.11,7.11,0,0,0-9.29-1.39,6.84,6.84,0,0,0-1.82,9.08,6.6,6.6,0,0,0,9,1.81,6.43,6.43,0,0,0,1.57-8.67c-1.07-1.6-3.67-.1-2.59,1.51a3.44,3.44,0,0,1-.66,4.67,3.56,3.56,0,0,1-5-1.23A3.83,3.83,0,0,1,68.08,83a4.15,4.15,0,0,1,5.26,1.17c1.25,1.49,3.36-.65,2.13-2.12Z"/><path d="M82.82,86.12a9.77,9.77,0,0,0-.7-6.47c-.3-.6-1.57-1.92-1.59-2.49,0-.79,2-3.06,2.46-3.8.72-1.3.87-3.1,2.48-2.8,1.3.25,2.87,1.86,3.74,2.76a14.68,14.68,0,0,1,4.08,9.89l1.1-1.45-11.62,3c-1.87.48-1.08,3.38.79,2.9l11.63-3a1.52,1.52,0,0,0,1.1-1.44,17.67,17.67,0,0,0-3.64-10.47c-1.77-2.28-5.24-5.73-8.38-5.61-1.81.07-2.14,1.32-2.88,2.76-1,2-2.36,3.69-3.4,5.6a3,3,0,0,0-.51,2.68,4.78,4.78,0,0,0,.88,1.28c1.37,1.89,2,3.49,1.56,5.87-.37,1.89,2.52,2.69,2.9.8Z"/><path d="M60.4,84a6.12,6.12,0,0,1,4.66-6.44A1.52,1.52,0,0,0,65.72,75,33.72,33.72,0,0,1,61,67.66,1.5,1.5,0,0,0,59.34,67,17,17,0,0,0,47.25,81.51,1.49,1.49,0,0,0,48.35,83a22.22,22.22,0,0,1,9.37,3.61c1.61,1.07,3.11-1.52,1.51-2.59a24.15,24.15,0,0,0-10.08-3.91l1.1,1.44a13.89,13.89,0,0,1,9.89-11.65l-1.7-.69a36.57,36.57,0,0,0,5.16,8l.66-2.51A9.16,9.16,0,0,0,57.4,84c.08,1.93,3.09,1.94,3,0Z"/><path d="M61.48,97.72a14.75,14.75,0,0,0,13-.12l-2-.54c.57,1.26,3.33,5.52,3,6.72-.48,2-5.3,2.34-7,2.53-1.87.21-4.56.68-6.35,0-4.56-1.69-.53-5.39.78-7.51,1-1.65-1.57-3.15-2.59-1.51-1.65,2.66-5.19,5.59-3.43,9.12,1.66,3.31,6.4,3.17,9.49,3a35.77,35.77,0,0,0,7.34-1.1c1.28-.34,3.74-.67,4.65-1.87a2.42,2.42,0,0,0,.36-2.7c-.84-2.78-2.54-5.61-3.73-8.25A1.53,1.53,0,0,0,72.92,95a11.39,11.39,0,0,1-9.92.12c-1.75-.79-3.28,1.8-1.52,2.59Z"/><path d="M8.66,107A115.32,115.32,0,0,0,26,30.53L24.45,32Q49,30.35,73.53,29.85l-1.29-2.26A23.91,23.91,0,0,0,69.4,51.25c.74,1.75,3.64,1,2.9-.8A21.23,21.23,0,0,1,74.83,29.1a1.5,1.5,0,0,0-1.3-2.25Q49,27.36,24.45,29c-.73,0-1.61.65-1.5,1.5a112.76,112.76,0,0,1-16.88,75C5,107.14,7.62,108.64,8.66,107Z"/><path d="M95.09,63.46l3-44.39L97,20.51a27.39,27.39,0,0,1,8.76.09l-1.1-1.45q4.34,43.38,9.45,86.69c.23,1.89,3.23,1.91,3,0q-5.1-43.31-9.45-86.69a1.55,1.55,0,0,0-1.1-1.45,33.89,33.89,0,0,0-10.35-.08,1.51,1.51,0,0,0-1.1,1.45l-3,44.39c-.13,1.92,2.87,1.92,3,0Z"/></svg>