<svg id="Ebene_1" data-name="Ebene 1" xmlns="http://www.w3.org/2000/svg" viewBox="0 0 128 128"><title>Icon</title><path d="M32.48,76.68C45,66.49,59.06,73.27,72,78.48c1.66.66,8.79,2.39,9.52,3.84l-1.07,5.05a17.39,17.39,0,0,1-3.41,1.17,24.47,24.47,0,0,1-5.24.77c-7,.25-13.7-2.23-19.66-5.77a1.51,1.51,0,0,0-1.81.23,3.28,3.28,0,0,0-1,2.78,1.5,1.5,0,0,0,3,0l.17-.66-1.82.24c7.68,4.57,16.64,7.36,25.61,5.66,4.39-.83,14.41-5.94,8-11.3-3.14-2.63-8.58-3.76-12.3-5.26C66.49,73,61,70.49,55.25,69.09c-9-2.18-17.67-.43-24.89,5.47-1.5,1.22.64,3.33,2.12,2.12Z"/><path d="M37.8,93.5l20,5.38c6,1.63,12.45,4,18.81,3.48,9.22-.71,19.35-3,26.27-9.53,3.62-3.44,13-13.61,5.48-17.5-3.73-1.94-7.58.58-10.7,2.49a27.55,27.55,0,0,1-12.71,4.29c-1.89.22-1.91,3.22,0,3A32.68,32.68,0,0,0,99.84,80c3-1.76,10.22-5.45,7,3.15-.61,1.62-2.66,3.69-3.75,5a23.22,23.22,0,0,1-6.4,5.53,41.41,41.41,0,0,1-29,4.72c-9.77-2.19-19.42-5.19-29.08-7.79a1.5,1.5,0,0,0-.8,2.89Z"/><path d="M23.15,111.06l16.17-5.68a1.51,1.51,0,0,0,1-1.84l-10-28.82c-.68-1.93-1.21-5.89-3.4-6.92-2.53-1.19-7,1.06-9.31,1.79-1.84.58-1.06,3.48.79,2.9A24.61,24.61,0,0,1,23.51,71c1.27-.88,2-.66,2.35.69a9,9,0,0,1,1.25,2.91c1.28,3.28,2.33,6.68,3.49,10l6.87,19.72,1.05-1.84-16.17,5.67c-1.81.64-1,3.54.8,2.9Z"/><path d="M83.18,21.35c-5.7-5.54-17.48-4.3-24.26-1.51-5.58,2.3-10.2,9.08-3.89,13.52,8,5.62,26.08,1.77,29.66,12.7,1.6,4.87-3.38,8.36-7.36,9.69a21.8,21.8,0,0,1-8.68,1c-6.45-.54-12.21-3.78-17.28-7.59-1.54-1.16-3,1.44-1.51,2.59,7.24,5.44,16.07,9.38,25.31,7.68,7-1.29,15.29-6.61,12.16-14.75C84,35.88,73.51,35.76,65.77,34a33.32,33.32,0,0,1-8.12-2.54c-5.92-3.18-.11-8.08,3.86-9.34,5.32-1.69,15.21-2.84,19.55,1.38,1.38,1.35,3.51-.77,2.12-2.12Z"/><path d="M68.46,14.6,69,66.43a1.5,1.5,0,0,0,3,0L71.46,14.6a1.5,1.5,0,0,0-3,0Z"/></svg>