<svg id="Ebene_1" data-name="Ebene 1" xmlns="http://www.w3.org/2000/svg" viewBox="0 0 128 128"><title>Icon</title><path d="M66.93,86c7.95-3.87,41.57-21.37,21.56-31.43-8.66-4.35-18.87-4.19-28.32-4.06a275,275,0,0,0-34.4,2.73L26.92,56A167.19,167.19,0,0,1,47.64,43.94l-1.51-2.59L25.68,53.13a1.51,1.51,0,0,0,.75,2.79,36.54,36.54,0,0,1,18.06,7c1.56,1.14,3.06-1.46,1.51-2.59a39.34,39.34,0,0,0-19.57-7.42l.76,2.8L47.64,43.94c1.69-1,.2-3.47-1.51-2.59A166.46,166.46,0,0,0,25.41,53.41a1.51,1.51,0,0,0,1.15,2.74c8.64-1.21,17.32-2,26-2.4,8.34-.36,17.1-.8,25.36.63,3.66.63,8.18,1.66,11.18,4,5.25,4.1.61,9.66-3.25,12.78-6.15,5-13.38,8.82-20.47,12.27-1.73.84-.21,3.43,1.52,2.59Z"/></svg>