<svg id="Ebene_1" data-name="Ebene 1" xmlns="http://www.w3.org/2000/svg" viewBox="0 0 128 128"><title>Icon</title><path d="M67.06,36.71A165.25,165.25,0,0,0,52.28,44.8c-3.09,1.93-8.17,4.22-9.83,7.77s-.23,8.57,0,12.27-.41,8.73,1.89,11.75c3,3.93,8.32,7.06,12.13,10.22,2.79,2.32,6.05,6.25,9.85,6.92,4.06.72,8-2.63,11.23-4.56l15.72-9.48a1.49,1.49,0,0,0,.74-1.3,107.1,107.1,0,0,1,.66-26.83A1.56,1.56,0,0,0,94,49.87a191,191,0,0,0-25.3-13.28c-1.75-.76-3.28,1.82-1.51,2.59a192.23,192.23,0,0,1,25.3,13.28l-.69-1.69a111,111,0,0,0-1.33,14c-.07,2.6,0,5.21.09,7.81.18,3.45.58,4.32-2.1,6.53-3.82,3.16-9,5.42-13.23,8-3.87,2.33-6.16,4.67-11.45,1.9-2.09-1.1-4.09-3.39-5.91-4.91L52,79.17c-1.51-1.25-4.11-2.69-5.17-4.33-1.38-2.11-1-5.65-1.18-8.07-.19-2.58-.39-5.16-.56-7.75-.27-3.86.83-6,4-8.57a55.18,55.18,0,0,1,6.3-4c4.28-2.59,8.68-4.94,13.18-7.12,1.74-.84.22-3.43-1.51-2.59Z"/><path d="M45.11,53.78c4,2.62,8.13,5.11,12.37,7.39,2.8,1.51,6.93,4.63,10.24,4.69s8.12-3.07,11.09-4.43c4.61-2.11,9.16-4.37,13.66-6.72,1.71-.89.19-3.48-1.52-2.59-3.37,1.76-6.77,3.48-10.21,5.11-3.89,1.85-9.42,5.47-13.57,5-3.58-.45-7.43-3.16-10.54-4.9-3.41-1.91-6.73-4-10-6.1-1.62-1-3.13,1.54-1.52,2.6Z"/><path d="M65.51,64.41q.08,13.28,1.11,26.52c.15,1.91,3.15,1.93,3,0q-1-13.25-1.11-26.52a1.5,1.5,0,0,0-3,0Z"/><path d="M34.42,30.49c18.27-17.6,55.21-16.25,68.91,6.33a1.52,1.52,0,0,0,2.74-.36,32.33,32.33,0,0,0,1.65-14.56c-.22-1.89-3.19-1.94-3,0a39,39,0,0,1-1,13.57l1.45-1.1a29.93,29.93,0,0,1-15.37-4.63c-1.65-1-3.16,1.57-1.52,2.59a33.3,33.3,0,0,0,16.89,5,1.52,1.52,0,0,0,1.44-1.11,41.6,41.6,0,0,0,1.13-14.36h-3a30.23,30.23,0,0,1-1.54,13.76l2.74-.36C91.2,11,52,9.41,32.3,28.36c-1.4,1.35.73,3.47,2.12,2.13Z"/><path d="M31,91.43a62.41,62.41,0,0,0,42,16.45c13.49,0,31.25-4.18,36.53-18.21.69-1.81-2.21-2.59-2.89-.8-5.09,13.51-24,16.6-36.64,15.92A59.12,59.12,0,0,1,33.13,89.31c-1.42-1.31-3.54.81-2.12,2.12Z"/><path d="M47,87.44,30.25,89.6c-1,.13-2.06,1.23-1.29,2.26A17.21,17.21,0,0,1,32.49,102c0,1.93,3,1.93,3,0a19.88,19.88,0,0,0-3.94-11.65l-1.3,2.26L47,90.44c1.89-.24,1.91-3.25,0-3Z"/></svg>