<svg id="Ebene_1" data-name="Ebene 1" xmlns="http://www.w3.org/2000/svg" viewBox="0 0 128 128"><title>Icon</title><path d="M98.5,42.21c6.62-15.55-22.29-19-31.5-19.84C55.67,21.3,30.14,21.07,32.45,39c.24,1.86,3.19,1.88,2.95,0-1.87-14.51,18.47-14.45,28-13.93,6.76.38,37.8,3.33,32.54,15.67-.74,1.73,1.81,3.24,2.55,1.49Z"/><path d="M31.63,37.38q-.79,14.59-.88,29.2c0,9.39-.61,19.46.66,28.78,1.87,13.71,25,14.89,35.42,15.69,13.83,1.08,28.76-.33,31.32-16.62,1.3-8.29.51-17.06.49-25.41l-.09-29.71a1.48,1.48,0,0,0-3,0c0,15.68.31,31.39.13,47.07-.08,7.08-.69,15.23-7.39,19.3-6.19,3.74-14.61,3-21.51,2.42-7.35-.57-15.11-1.56-22.12-4-3.81-1.32-9-3.32-10.18-7.64C33.47,92.74,34,88,33.91,84.11q-.64-23.37.68-46.73c.1-1.9-2.85-1.89-3,0Z"/><path d="M71.1,64.35a7.57,7.57,0,0,0-10.92-2.92c-3.67,2.32-6.09,8.19-2.67,11.74,2.72,2.8,9,3.6,12,1,3.31-2.89,3.63-8.48,1-11.86-1.07-1.37-3,.56-1.91,1.92,1.56,2,1.17,5.55-.45,7.44s-6,1.6-8.1.16c-5.48-3.83,5-13.86,8.68-6.06.75,1.57,3.08.2,2.33-1.37Z"/><path d="M53,66.42a9.63,9.63,0,0,1,3-5.51c.91-.8,2.36-1.09,3.17-1.91,1.08-1.1.57-2.16.17-3.59a74.43,74.43,0,0,0-2.63-8.73c-.58-1.36-1-2.43-2.61-2.76-3.48-.73-7.87,3.52-9.9,5.85A22,22,0,0,0,39,62.87a1.34,1.34,0,0,0,1.35,1.35c3.73-.26,6.76,1.46,9.83,3.37,1.48.93,2.84-1.41,1.36-2.33-3.52-2.19-6.94-4-11.19-3.74l1.35,1.35A19.12,19.12,0,0,1,46.1,51.69,14.89,14.89,0,0,1,50.4,48c.89-.44,2.74-1.23,3.69-.56.61.43.89,3,1.1,3.64.39,1.29,2,4.31,1.85,5.49-.07.75-.25.61-1.25,1.21a12.29,12.29,0,0,0-1.25.89,12,12,0,0,0-4.16,7.07c-.36,1.7,2.25,2.42,2.61.72Z"/><path d="M70.53,58.15c2.79.42,5.52,4.75,5.07,7.29a1.37,1.37,0,0,0,1.66,1.66q6.69-1.6,13.49-2.64a1.35,1.35,0,0,0,1-1.31A20.23,20.23,0,0,0,81.38,44.9a1.38,1.38,0,0,0-1.63.22A49.17,49.17,0,0,0,71.15,56a1.35,1.35,0,0,0,2.33,1.36A47,47,0,0,1,81.66,47L80,47.24a17.5,17.5,0,0,1,9,15.91l1-1.3q-6.8,1-13.49,2.64l1.67,1.66c.74-4.16-2.53-9.94-7-10.61-1.7-.25-2.44,2.35-.72,2.61Z"/><path d="M56.22,78.73,53,84c-.88,1.44-2.33,3.07-2.76,4.74-.49,1.87.72,2.67,2.28,3.42C58.31,94.9,65.2,93.38,71,91.8A1.39,1.39,0,0,0,72,90.13L69.61,78a1.37,1.37,0,0,0-2-.8,10,10,0,0,1-9.66,0c-1.54-.8-2.9,1.53-1.36,2.33a12.81,12.81,0,0,0,12.39,0l-2-.81,2.38,12.14.94-1.66c-4.51,1.22-9.24,2.36-13.91,1.35a6.72,6.72,0,0,1-2.56-.88c-1.2-.23-1.22-.8-.06-1.72l.79-1.31,4-6.54a1.35,1.35,0,0,0-2.34-1.36Z"/></svg>