<svg id="Ebene_1" data-name="Ebene 1" xmlns="http://www.w3.org/2000/svg" viewBox="0 0 128 128"><title>Icon</title><path d="M96.24,30.84a480.33,480.33,0,0,0-66.07,4.54c-1.43.2-1.26,2.09-.36,2.75,14.27,10.5,32.05,15.39,44.83,28L75,63.8c-7.88,3.63-15.76,7.34-22.7,12.6C45,81.91,38.88,88.82,31.11,93.7a1.51,1.51,0,0,0,1.15,2.75C54,92.17,76.06,92.53,98.07,93c1.93,0,1.93-3,0-3-22.28-.47-44.64-.76-66.61,3.56l1.16,2.75c7.21-4.54,13-10.74,19.58-16.07C59.51,74.32,68,70.31,76.46,66.39a1.51,1.51,0,0,0,.3-2.36c-13-12.83-30.95-17.83-45.44-28.5L31,38.28a473.38,473.38,0,0,1,65.27-4.44,1.5,1.5,0,0,0,0-3Z"/></svg>