<svg id="Ebene_1" data-name="Ebene 1" xmlns="http://www.w3.org/2000/svg" viewBox="0 0 128 128"><title>Icon</title><path d="M45.1,103.79,66,80c3.37-3.83,6.58-7.91,10.16-11.55,2.42-2.46,4.49-3.8,8-4,1.59-.09,3.13.17,4.73,0,15.42-1.85,19.4-19.41,13.57-31.54a1.5,1.5,0,0,0-2.35-.31A149.24,149.24,0,0,1,84.41,49.17l1.82-.24A84.76,84.76,0,0,1,73.3,39.6l.24,1.81q5.14-7.08,10.69-13.87A1.52,1.52,0,0,0,83.56,25C73.43,23,63.1,27.48,58.67,37.06a22,22,0,0,0-1.84,6.4c-.47,3.65,1.25,8.35-.46,11.72s-5.68,6-8.3,8.53l-8.34,8.06c-5.35,5.16-11.54,10.1-16.31,15.8-2.81,3.36-2.84,6.37-.2,9.85,4.66,6.14,16.3,14,21.76,4.26.94-1.68-1.65-3.2-2.59-1.51-3.75,6.72-11.42,1.2-14.93-2.54-2.92-3.11-3.73-5.09-.89-9,1.43-2,3.8-3.68,5.55-5.37L53.66,62.48c2.26-2.17,5.1-4.4,6.06-7.52,1.23-4-.57-8.38.31-12.55,2.21-10.49,12.46-16.56,22.74-14.48l-.67-2.51Q76.33,32.5,71,39.9a1.5,1.5,0,0,0,.23,1.82,89.37,89.37,0,0,0,13.53,9.81,1.54,1.54,0,0,0,1.82-.24,149.1,149.1,0,0,0,15.73-16.55l-2.36-.31c4.13,8.6,3.26,19.81-5.63,25.08-5.73,3.4-12.36.34-17.72,4.45-5.82,4.46-10.48,11.42-15.3,16.91L43,101.67c-1.27,1.45.84,3.58,2.12,2.12Z"/></svg>