<svg id="Ebene_1" data-name="Ebene 1" xmlns="http://www.w3.org/2000/svg" viewBox="0 0 128 128"><title>Icon</title><path d="M77.66,105.75,68.77,55.24a1.52,1.52,0,0,0-1.45-1.1c-3.23-.07-10.23-1.49-12.89,1.06-1.06,1-1,2.79-1.27,4.13-.55,3.26-.9,6.56-1.36,9.84l-5.15,37.39c-.26,1.89,2.63,2.71,2.89.8l4.21-30.5,2-14.76c.49-3.55.09-4.35,3.62-5,2.47-.44,5.42,0,7.92,0L65.87,56l8.9,50.51c.33,1.9,3.23,1.09,2.89-.8Z"/><path d="M24.91,57.68q39.36-.09,78.73-.59a1.51,1.51,0,0,0,.75-2.8,161.27,161.27,0,0,0-22.3-9.86C78.21,43,74,41,69.94,40.37c-3.32-.51-6.91.05-10.25.25-7.47.43-14.1,3.42-21.08,6l-13,4.74c-1.63.59-4.43,1-5.31,2.72a1.52,1.52,0,0,0,.53,2.05l.36.19a1.53,1.53,0,0,0,2-.54l.15-.26A1.5,1.5,0,0,0,20.78,54l-.15.25,2.05-.53-.35-.19.54,2c.77-1.53,8.35-3.1,10-3.71l10.23-3.73c6.55-2.38,12.19-4.25,19.18-4.64C69.93,43,76,45.33,83,48a148.36,148.36,0,0,1,19.85,8.91l.76-2.79q-39.36.49-78.73.59a1.5,1.5,0,0,0,0,3Z"/><path d="M56.83,40.89a119.61,119.61,0,0,0,7.44-22H61.38l4.07,22c.35,1.89,3.24,1.09,2.89-.8l-4.07-22c-.27-1.46-2.57-1.39-2.89,0a116,116,0,0,1-7.14,21.33c-.78,1.75,1.81,3.27,2.59,1.51Z"/><path d="M49.68,107.47q11.49-10.06,23.86-19a1.51,1.51,0,0,0-1.15-2.74c-6.39.91-15.45,3.87-21.66,1.83l.66,2.51A121.19,121.19,0,0,0,69.53,71.69a1.52,1.52,0,0,0-1.06-2.56l-15.63.33.75,2.79c1.85-1.33,14-10.54,11.77-12.91l-.24-1.81-.19.32c-1,1.64,1.57,3.15,2.59,1.51l.19-.32a1.53,1.53,0,0,0-.23-1.82l-.32-.33a1.46,1.46,0,0,0-1.46-.39c-2.06.8-3,3.16-4.42,4.77a53.09,53.09,0,0,1-9.2,8.39,1.52,1.52,0,0,0,.76,2.8l15.63-.33L67.4,69.57A121.12,121.12,0,0,1,49.27,87.94a1.5,1.5,0,0,0,.66,2.5c6.89,2.26,16.34-.84,23.25-1.83L72,85.87Q59.33,95,47.56,105.35c-1.45,1.28.68,3.39,2.12,2.12Z"/><path d="M39.83,49c2.89,2,5.75,4.09,8.67,6.06,1.31.89,3.09,2.38,4.85,2,4.16-1,2.36-10.35,2.34-13l-2.56,1.06A74.6,74.6,0,0,0,67,55.73a1.51,1.51,0,0,0,2.26-1.29l.31-11.5h-3a88.27,88.27,0,0,1-.25,11,1.5,1.5,0,0,0,2.25,1.29,49.39,49.39,0,0,1,12.45-6.7c1.79-.66,1-3.56-.8-2.89a52,52,0,0,0-13.16,7L69.36,54a88.27,88.27,0,0,0,.25-11,1.5,1.5,0,0,0-3,0l-.31,11.5,2.25-1.3A71.44,71.44,0,0,1,55.26,43,1.52,1.52,0,0,0,52.69,44a50.83,50.83,0,0,1,0,5.92,2.42,2.42,0,0,1-.63,2.76c-.48,1.19-1.16,1.12-2-.22-2.94-1.12-6.08-4.25-8.67-6.06-1.59-1.11-3.09,1.49-1.52,2.59Z"/><path d="M84.26,58.45,83.7,69c-.11,1.93,2.89,1.92,3,0l.56-10.55c.1-1.93-2.9-1.92-3,0Z"/><path d="M90.37,57.38,90,69.52c-.06,1.93,2.94,1.93,3,0l.33-12.14c.06-1.93-2.94-1.93-3,0Z"/><path d="M97.61,56.33l-.25,12.92c0,1.94,3,1.94,3,0l.25-12.92c0-1.93-3-1.93-3,0Z"/><path d="M23,57.65l.35,12.66c.05,1.92,3.05,1.93,3,0L26,57.65c-.06-1.93-3.06-1.93-3,0Z"/><path d="M29.64,57.12V69.25a1.5,1.5,0,0,0,3,0V57.12a1.5,1.5,0,0,0-3,0Z"/><path d="M36.06,56.85a121.26,121.26,0,0,1,.43,12.93c0,1.93,3,1.93,3,0a121.26,121.26,0,0,0-.43-12.93c-.16-1.91-3.17-1.93-3,0Z"/></svg>