<svg id="Ebene_1" data-name="Ebene 1" xmlns="http://www.w3.org/2000/svg" viewBox="0 0 128 128"><title>Icon</title><path d="M90.63,33H89V29.87A8.88,8.88,0,0,0,80.13,21H75.31a12,12,0,0,0-22.62,0H47.87A8.88,8.88,0,0,0,39,29.87V33H37.37A8.4,8.4,0,0,0,29,41.37v59.26A8.4,8.4,0,0,0,37.37,109H90.63A8.4,8.4,0,0,0,99,100.63V41.37A8.4,8.4,0,0,0,90.63,33ZM47,33V29.87a.88.88,0,0,1,.87-.87H60V25a4,4,0,0,1,8,0v4H80.13a.88.88,0,0,1,.87.87V42.19a.88.88,0,0,1-.87.87H47.87a.88.88,0,0,1-.87-.87ZM87.67,62.11l-16,22.56L56.47,74.55,48,85.28A4.5,4.5,0,0,1,44.5,87a4.45,4.45,0,0,1-2.78-1A4.51,4.51,0,0,1,41,79.72L54.53,62.45l14.83,9.88,11-15.44a4.5,4.5,0,1,1,7.34,5.22Z"/></svg>