<svg id="Ebene_1" data-name="Ebene 1" xmlns="http://www.w3.org/2000/svg" viewBox="0 0 128 128"><defs><style>.cls-1{fill:#1d1d1b;}</style></defs><title>icon--</title><path class="cls-1" d="M72.12,54.71c-.93-.24-6.38-1.32-6.38-1.32l-8.5-7.28C55.5,44.2,54.35,43.55,52,43.55H38.77c-2.36,0-3.34,2.07-3.89,3.29s-2.78,5.55-2.78,5.55l-3,2a1.94,1.94,0,0,0-1,1.86v3.49A4.28,4.28,0,0,0,32.44,64h1.1a5,5,0,0,0,10,0H58.87a5,5,0,1,0,10,0h1a4.29,4.29,0,0,0,4.28-4.28v-3C74.17,55.57,73.05,55,72.12,54.71ZM47.61,53.18h-10V46.64h10Zm3,0V46.64h3.7l7,6.54Z"/><path class="cls-1" d="M90.31,52.62a4.93,4.93,0,1,0-4.93-4.93A4.92,4.92,0,0,0,90.31,52.62Z"/><path class="cls-1" d="M99.81,60h0s.25-6.44-9.36-6.57l-.16,0h-.14c-9.92,0-9.39,6.4-9.39,6.4h0a1.27,1.27,0,0,0-.06.28V70.41a1.64,1.64,0,0,0,3.28,0V60.12a1.84,1.84,0,0,0,0-.25h1.23v23.3a2.05,2.05,0,1,0,4.1,0v-13h2v13a2,2,0,1,0,4.1,0V60h1.17s0,.09,0,.13V70.41a1.64,1.64,0,1,0,3.27,0V60.12A.29.29,0,0,0,99.81,60Z"/></svg>