<svg id="Ebene_1" data-name="Ebene 1" xmlns="http://www.w3.org/2000/svg" viewBox="0 0 128 128"><defs><style>.cls-1{fill:#1d1d1b;}</style></defs><title>icon--</title><path class="cls-1" d="M64,46.25a7.69,7.69,0,1,0-7.68-7.69A7.69,7.69,0,0,0,64,46.25Z"/><path class="cls-1" d="M78.85,57.8h0s.38-10-14.61-10.25c-.08,0-.16,0-.25,0h-.21c-15.49,0-14.65,10-14.65,10h.05a2.24,2.24,0,0,0-.09.45V74a2.56,2.56,0,0,0,5.11,0V58a2.83,2.83,0,0,0-.08-.4l1.92,0V93.93a3.2,3.2,0,0,0,6.39,0V73.65h3.12V93.93a3.2,3.2,0,0,0,6.4,0V57.73l1.83,0c0,.07,0,.13,0,.2V74a2.56,2.56,0,0,0,5.11,0V58A.8.8,0,0,0,78.85,57.8Z"/></svg>