<svg id="Ebene_1" data-name="Ebene 1" xmlns="http://www.w3.org/2000/svg" viewBox="0 0 128 128"><defs><style>.cls-1{fill:#1d1d1b;}</style></defs><title>icon--</title><path class="cls-1" d="M82.58,46.25a7.69,7.69,0,1,0-7.69-7.69A7.68,7.68,0,0,0,82.58,46.25Z"/><path class="cls-1" d="M97.41,57.8h0s.38-10.06-14.64-10.25l-.21,0-.09,0h-.13c-9.47,0-12.83,3.73-14,6.63,0,.07-.11.13-.15.21l-4.4,9.9L60,55.57c-.84-3-3.83-7.88-14.3-8a1.46,1.46,0,0,0-.22,0l-.09,0h-.12C29.78,47.53,30.57,58,30.57,58V74a2.56,2.56,0,0,0,5.11,0V58s0,0,0,0h1.85v36a3.2,3.2,0,1,0,6.39,0V73.65H47V93.92a3.2,3.2,0,0,0,6.4,0V57.84l2,0,5.81,13.29a3,3,0,0,0,5.14,0l6-13.55,2.24,0V93.92a3.2,3.2,0,0,0,6.4,0V73.65h3.12V93.92a3.2,3.2,0,1,0,6.39,0V57.73l1.84,0a1.42,1.42,0,0,0,0,.2V74a2.56,2.56,0,0,0,5.11,0V58C97.44,57.9,97.41,57.85,97.41,57.8Z"/><path class="cls-1" d="M45.47,46.25a7.69,7.69,0,1,0-7.68-7.69A7.69,7.69,0,0,0,45.47,46.25Z"/></svg>