<svg id="Ebene_1" data-name="Ebene 1" xmlns="http://www.w3.org/2000/svg" xmlns:xlink="http://www.w3.org/1999/xlink" viewBox="0 0 128 128"><defs><style>.cls-1{fill:#1d1d1b;}</style><symbol id="Distanz" data-name="Distanz" viewBox="0 0 18.48 13.18"><path class="cls-1" d="M15.57,1A1.62,1.62,0,0,0,13.21.74a14.69,14.69,0,0,0-.55,2.14s0-1.92,0-1.95c-.42-.6-1-.55-1.36.06V13.12h1.38V6.82s1.16-1.93,2.89,0a1.92,1.92,0,0,0,2.93,0V1.12S16.83,2.44,15.57,1Z"/><path class="cls-1" d="M6.66,2.74A1.37,1.37,0,1,0,5.29,1.37,1.37,1.37,0,0,0,6.66,2.74Z"/><path class="cls-1" d="M7.78,6.27,7,3.91a.46.46,0,0,0-.17-.24,1.38,1.38,0,0,0-.72-.55,1.43,1.43,0,0,0-1.06.07H5l-2.51.9a.54.54,0,0,0-.33.33.26.26,0,0,0-.05.09L1.16,7a.55.55,0,0,0,.3.72.56.56,0,0,0,.72-.31l.94-2.34,1-.35L3.57,6.27a1.46,1.46,0,0,0,.08,1.09l-1,2a.06.06,0,0,1,0,0L.35,10.87a.79.79,0,0,0,.87,1.31l2.4-1.57a.75.75,0,0,0,.3-.42.39.39,0,0,0,.08-.1l.89-1.71L6.48,9.92l.67,2.67a.78.78,0,1,0,1.52-.38L8,9.42l0,0A.76.76,0,0,0,7.74,9L6.15,7.41a1.89,1.89,0,0,0,.11-.25l.33-1,.2.62a.53.53,0,0,0,.25.3L9,8.8A.55.55,0,0,0,9.69,8Z"/></symbol></defs><title>icon--</title><use width="18.48" height="13.18" transform="translate(23.64 35.21) scale(4.37)" xlink:href="#Distanz"/></svg>