<svg id="Ebene_1" data-name="Ebene 1" xmlns="http://www.w3.org/2000/svg" viewBox="0 0 128 128"><defs><style>.cls-1{fill:#1d1d1b;}</style></defs><title>icon--</title><path class="cls-1" d="M48.12,54.8c-.93-.24-6.39-1.32-6.39-1.32L33.24,46.2c-1.75-1.91-2.9-2.56-5.25-2.56H14.76c-2.35,0-3.33,2.07-3.88,3.29s-2.79,5.55-2.79,5.55l-3,2a2,2,0,0,0-1,1.86v3.49a4.28,4.28,0,0,0,4.28,4.28H9.53a5,5,0,0,0,10,0H34.86a5,5,0,1,0,10,0h1a4.28,4.28,0,0,0,4.28-4.28v-3C50.16,55.66,49,55,48.12,54.8ZM23.6,53.27h-10V46.73h10Zm3,0V46.73h3.69l7,6.54Z"/><path class="cls-1" d="M69.92,52.62A4.93,4.93,0,1,0,65,47.69,4.93,4.93,0,0,0,69.92,52.62Z"/><path class="cls-1" d="M79.44,60s.25-6.44-9.36-6.58h-.3c-9.93,0-9.39,6.39-9.39,6.39h0a1.5,1.5,0,0,0-.06.29V70.41a1.64,1.64,0,0,0,3.28,0V60.12a2.38,2.38,0,0,0,0-.26l1.23,0v23.3a2.05,2.05,0,1,0,4.1,0v-13h2v13a2,2,0,0,0,4.1,0V60h1.17s0,.09,0,.13V70.41a1.64,1.64,0,1,0,3.27,0V60.12s0-.06,0-.09Z"/><path class="cls-1" d="M92.12,52.62a4.93,4.93,0,1,0-4.93-4.93A4.93,4.93,0,0,0,92.12,52.62Z"/><path class="cls-1" d="M101.64,60s.25-6.44-9.36-6.58H92c-9.93,0-9.39,6.39-9.39,6.39h0a1.5,1.5,0,0,0-.06.29V70.41a1.64,1.64,0,0,0,3.28,0V60.12a2.38,2.38,0,0,0,0-.26l1.23,0v23.3a2,2,0,0,0,4.1,0v-13h2v13a2,2,0,1,0,4.1,0V60h1.17s0,.09,0,.13V70.41a1.64,1.64,0,1,0,3.27,0V60.12s0-.06,0-.09Z"/><path class="cls-1" d="M114.32,52.62a4.93,4.93,0,1,0-4.93-4.93A4.93,4.93,0,0,0,114.32,52.62Z"/><path class="cls-1" d="M123.82,60h0s.25-6.44-9.36-6.58h-.3c-9.93,0-9.39,6.39-9.39,6.39h0a1.5,1.5,0,0,0-.06.29V70.41a1.64,1.64,0,0,0,3.28,0V60.12a2.38,2.38,0,0,0-.05-.26l1.23,0v23.3a2,2,0,1,0,4.1,0v-13h2v13a2.05,2.05,0,1,0,4.1,0V60h1.17s0,.09,0,.13V70.41a1.64,1.64,0,1,0,3.27,0V60.12S123.82,60.06,123.82,60Z"/></svg>