<svg id="Ebene_1" data-name="Ebene 1" xmlns="http://www.w3.org/2000/svg" viewBox="0 0 128 128" fill="#1d1d1b"><path d="M40.63,47.49a7.69,7.69,0,1,0-7.69-7.69A7.68,7.68,0,0,0,40.63,47.49Z"/><path d="M64.17,45a7.69,7.69,0,1,0-7.68-7.69A7.69,7.69,0,0,0,64.17,45Z"/><path d="M87.41,47.49a7.69,7.69,0,1,0-7.68-7.69A7.69,7.69,0,0,0,87.41,47.49Z"/><path d="M102.25,59h0S102.65,49,87.63,48.79a1.46,1.46,0,0,0-.22,0l-.08,0H87.2a29.44,29.44,0,0,0-2.94.15c-.27,0-.54,0-.82,0,0,0-6-1.83-19.52-1.83s-20.59,1.83-20.59,1.83l-.4,0c-.7-.07-1.39-.1-2.07-.11-.08,0-.15,0-.23,0l-.09,0h-.12c-15.49,0-14.66,10-14.66,10h0a2.24,2.24,0,0,0-.09.45v16a2.56,2.56,0,0,0,5.11,0v-16a1.89,1.89,0,0,0-.08-.4l1.92,0V95.16a3.2,3.2,0,0,0,6.4,0V74.88h3.12V95.16a3.2,3.2,0,0,0,6.4,0V59h0V54.42c2-.27,4.61-.54,7.63-.72V95.16a3.2,3.2,0,1,0,6.39,0V74.88h3.12V95.16a3.2,3.2,0,1,0,6.4,0V53.74c3.06.21,5.47.52,7.33.8v2.18h0V95.16a3.2,3.2,0,0,0,6.4,0V74.88H89V95.16a3.2,3.2,0,1,0,6.39,0V59l1.84,0a1.42,1.42,0,0,0,0,.2v16a2.56,2.56,0,0,0,5.11,0v-16S102.25,59.09,102.25,59Z"/></svg>