<svg id="Ebene_1" data-name="Ebene 1" xmlns="http://www.w3.org/2000/svg" viewBox="0 0 128 128" fill="#1d1d1b"><path d="M64,32A32,32,0,0,1,96,64V64A32,32,0,1,1,64,32ZM52,56.67a16.11,16.11,0,0,1,14.28-8.8A15.84,15.84,0,0,1,76.71,51.7l4.57-5.31a23.08,23.08,0,0,0-8-4.5A22.85,22.85,0,0,0,44.56,56.67H40v5.19h3.43V64a15.14,15.14,0,0,0,0,1.65H39.77v5.2h4.34A23.11,23.11,0,0,0,81.05,81.68l-4.8-5.08a15.85,15.85,0,0,1-10,3.54,16.1,16.1,0,0,1-14.67-9.31H72.83v-5.2H50A15.14,15.14,0,0,1,50,64V61.86H72.83V56.67Z"/></svg>