<svg id="Ebene_1" data-name="Ebene 1" xmlns="http://www.w3.org/2000/svg" viewBox="0 0 128 128" fill="#1d1d1b"><path d="M121.91,66.53c-1.19-2.35-10.33-22.64-10.33-22.64C109.87,40,108,35.8,103.5,35.8H13a8.11,8.11,0,0,0-8.08,8.09V77.7A8.11,8.11,0,0,0,13,85.79h1.64a6.41,6.41,0,0,0,12.82,0h3.27a6.41,6.41,0,1,0,12.82,0H76.22a6.41,6.41,0,0,0,12.82,0h3.27a6.41,6.41,0,0,0,12.82,0h1.63c2.93,0,4.52-1.72,7.58-4.47,0,0,2.57-1.94,6.39-5.48C124.26,72.8,123.1,68.88,121.91,66.53Zm-85-4.23H18V43.44H36.89Zm25.52,0H43.54V43.44H62.41Zm26,0H69.58V43.44H88.45Zm7.16,0V43.44h8l8,18.86Z"/></svg>