<svg id="Ebene_1" data-name="Ebene 1" xmlns="http://www.w3.org/2000/svg" xmlns:xlink="http://www.w3.org/1999/xlink" viewBox="0 0 128 128"><defs><style>.cls-1{fill:#1d1d1b;}</style><symbol id="Geld" data-name="Geld" viewBox="0 0 11.21 11.21"><path class="cls-1" d="M5.6,0a5.61,5.61,0,1,0,5.61,5.6A5.6,5.6,0,0,0,5.6,0ZM7.15,4.32v.91h-4c0,.12,0,.25,0,.37a2.83,2.83,0,0,0,0,.29h4V6.8H3.43A2.82,2.82,0,0,0,6,8.43a2.77,2.77,0,0,0,1.75-.62l.84.89A4,4,0,0,1,6,9.65,4,4,0,0,1,2.12,6.8H1.36V5.89H2a2.64,2.64,0,0,1,0-.29c0-.12,0-.25,0-.37h-.6V4.32h.8a4,4,0,0,1,6.43-1.8l-.8.93A2.77,2.77,0,0,0,6,2.78a2.82,2.82,0,0,0-2.5,1.54Z"/></symbol></defs><title>icon--</title><use width="11.21" height="11.21" transform="translate(32 32) scale(5.71)" xlink:href="#Geld"/></svg>