<svg id="Ebene_1" data-name="Ebene 1" xmlns="http://www.w3.org/2000/svg" viewBox="0 0 128 128"><defs><style>.cls-1{fill:#1d1d1b;}</style></defs><title>icon--</title><path class="cls-1" d="M74.89,44.8a6.65,6.65,0,1,0-6.65-6.65A6.64,6.64,0,0,0,74.89,44.8Z"/><path class="cls-1" d="M69.27,54.44l1.87,2.05a1.71,1.71,0,0,0,.94.49,2.65,2.65,0,0,0,1,.38L84,58.76a2.68,2.68,0,1,0,.7-5.31L74.41,52.12l-4-4.38a6.81,6.81,0,0,0-2.79-3.58,6.88,6.88,0,0,0-9.49,2.14L52,56.05a6.87,6.87,0,0,0,.72,8.25,3.73,3.73,0,0,0,.8,1.15l8.33,8.08L58.37,84.62a3.82,3.82,0,1,0,7.29,2.26l4.15-13.32c0-.07,0-.15,0-.22s.06-.26.08-.4,0-.23,0-.35,0-.26,0-.39,0-.22,0-.34a2.7,2.7,0,0,0-.08-.39l-.09-.31c0-.13-.1-.26-.16-.38a8.76,8.76,0,0,0-.38-.63L69,69.88c-.06-.06-.1-.14-.16-.19L63.06,64.1a7.63,7.63,0,0,0,.54-.7Z"/><path class="cls-1" d="M39.59,63.24A16.59,16.59,0,1,0,56.18,79.83,16.61,16.61,0,0,0,39.59,63.24Zm0,27.05A10.46,10.46,0,1,1,50.05,79.83,10.48,10.48,0,0,1,39.59,90.29Z"/><path class="cls-1" d="M88.41,63.3A16.6,16.6,0,1,0,105,79.89,16.61,16.61,0,0,0,88.41,63.3Zm0,27.05A10.46,10.46,0,1,1,98.88,79.89,10.48,10.48,0,0,1,88.41,90.35Z"/></svg>