<?xml version="1.0" standalone="no"?>
<!DOCTYPE svg PUBLIC "-//W3C//DTD SVG 20010904//EN"
 "http://www.w3.org/TR/2001/REC-SVG-20010904/DTD/svg10.dtd">
<svg version="1.0" xmlns="http://www.w3.org/2000/svg"
 width="512.000000pt" height="512.000000pt" viewBox="0 0 512.000000 512.000000"
 preserveAspectRatio="xMidYMid meet">
<metadata>
Created by potrace 1.14, written by Peter Selinger 2001-2017
</metadata>
<g transform="translate(0.000000,512.000000) scale(0.100000,-0.100000)"
fill="#000000" stroke="none">
<path d="M815 5110 c-203 -31 -386 -124 -533 -272 -123 -122 -207 -267 -254
-438 l-23 -85 0 -1755 0 -1755 23 -85 c95 -345 359 -606 699 -693 l88 -22
1745 0 1745 0 88 22 c343 88 612 357 700 700 l22 88 0 1745 0 1745 -22 88
c-87 338 -344 599 -688 698 l-80 23 -1730 2 c-952 1 -1752 -2 -1780 -6z m525
-2450 l0 -1070 495 0 c459 0 495 -1 495 -17 0 -9 -8 -75 -17 -145 l-17 -128
-648 0 -648 0 0 1215 0 1215 170 0 170 0 0 -1070z m1690 -167 c0 -391 5 -697
10 -738 22 -148 81 -215 211 -236 176 -28 351 61 480 245 l49 69 0 664 0 663
163 -2 162 -3 3 -927 2 -928 -144 0 -144 0 -7 104 c-4 58 -10 119 -14 136 l-6
31 -50 -67 c-126 -168 -287 -244 -514 -244 -172 0 -282 39 -375 134 -63 63
-100 130 -128 233 -22 76 -22 94 -26 792 -2 392 -1 720 2 727 4 11 39 14 166
14 l160 0 0 -667z"/>
</g>
</svg>
