<?xml version="1.0" encoding="utf-8"?>
<!-- Generator: Adobe Illustrator 23.0.1, SVG Export Plug-In . SVG Version: 6.00 Build 0)  -->
<svg version="1.1" id="Ebene_1" xmlns="http://www.w3.org/2000/svg" xmlns:xlink="http://www.w3.org/1999/xlink" x="0px" y="0px"
	 viewBox="0 0 500 500" style="enable-background:new 0 0 500 500;" xml:space="preserve">
<g>
	<path d="M226.9,407.1c-86.1,0-148.1-74.7-130.8-156.3c9.6-44.7,40.9-71.8,79-93.3c33.5-18.9,70.7-24.7,107.4-32.7
		c20.7-4.5,42-8.2,56.6-26.3c3.5-4.3,8-2.7,12-0.3c19.1,11.4,34.3,26.6,45.2,45.7c2.7,4.5,3.7,9-0.8,13.3
		c-14.6,14.1-18.6,32.7-22.1,51.6c-4.8,25.3-6.6,51-13.6,75.8c-12,42.8-34.3,78.7-71.2,103.9C269.7,401.6,248.4,409.3,226.9,407.1z"
		/>
	<path d="M453.6,250.8c-4.5,82.7-41.2,146.5-117,181.8c-76,35.6-149.7,26.1-215.6-26.6C71.9,367,46.4,313,46.4,250.8
		C46.6,135.2,135.2,54.1,233,46.7c27.4-1.9,53.7,1.3,79.7,9.3c9.8,2.9,19.1,7.4,19.4,19.1c0,11.2-4.8,20.7-15.4,25.8
		c-19.4,9.6-40.4,13-61.1,16.7c-46.8,8.5-90.1,24.7-127.3,56.1C71.6,221.3,63.1,309.3,111,365.7c29.2,34.6,65.9,56.1,111.6,55.6
		c64.1-0.8,107.4-34.6,134.8-91.4c19.1-39.6,23.4-82.1,31.1-124.4c2.4-13.6,6.1-26.8,15.9-37.2c13.3-14.4,27.6-12,34.8,5.8
		C448.3,198.5,453.6,224,453.6,250.8z"/>
</g>
</svg>
