<?xml version="1.0" encoding="utf-8"?>
<!-- Generator: Adobe Illustrator 23.0.1, SVG Export Plug-In . SVG Version: 6.00 Build 0)  -->
<svg version="1.1" id="Layer_1" xmlns="http://www.w3.org/2000/svg" xmlns:xlink="http://www.w3.org/1999/xlink" x="0px" y="0px"
	 viewBox="0 0 500 500" style="enable-background:new 0 0 500 500;" xml:space="preserve">
<g>
	<path d="M379.2,55H120.8C81.7,55,50,86.7,50,125.8v248.3c0,39.2,31.7,70.8,70.8,70.8h258.3c39.2,0,70.8-31.7,70.8-70.8V125.8
		C450,86.7,418.3,55,379.2,55z M256,249.2c-6.7,9.3-16,16.3-26.8,20.3c-11.3,4.2-23.8,5.7-37.5,5.7c-4,0-6.7,0-8.3-0.2
		c-1.7-0.2-4-0.2-7.2-0.2v53.5c0.2,1.2-0.7,2.2-1.8,2.3c-0.2,0-0.3,0-0.7,0H142c-1.3,0-2-0.7-2-2.2V157c0-1.2,0.5-1.8,1.7-1.8
		c2.8,0,5.5,0,9.3-0.2c4-0.2,8.2-0.2,12.7-0.3c4.5-0.2,9.3-0.2,14.5-0.3c5.2-0.2,10.2-0.2,15.2-0.2c13.7,0,25,1.7,34.3,5.2
		c8.3,2.8,16,7.5,22.3,13.7c5.3,5.3,9.5,11.8,12.2,19c2.5,7,3.8,14.2,3.8,21.7C266,228,262.7,239.8,256,249.2z M374.2,314
		c-4.7,6.7-11.2,11.8-18.7,14.8c-8.2,3.5-18.2,5.3-30.2,5.3c-7.7,0-15.2-0.7-22.7-2.2c-5.8-1-11.7-2.8-17-5.3
		c-1.2-0.7-2-1.8-1.8-3.2v-29c0-0.5,0.2-1.2,0.7-1.5c0.5-0.3,1-0.2,1.5,0.2c6.5,3.8,13.3,6.5,20.7,8.2c6.3,1.7,13,2.5,19.7,2.5
		c6.3,0,10.8-0.8,13.8-2.3c2.7-1.2,4.5-4,4.5-7c0-2.3-1.3-4.5-4-6.7c-2.7-2.2-8.2-4.7-16.3-7.8c-8.5-3-16.3-7-23.7-12
		c-5.2-3.7-9.5-8.5-12.7-14.2c-2.7-5.3-4-11.2-3.8-17c0-7.2,2-14,5.7-20.2c4.2-6.7,10.3-12,17.5-15.3c7.8-4,17.7-5.8,29.5-5.8
		c6.8,0,13.8,0.5,20.7,1.5c5,0.7,9.8,2,14.3,3.8c0.7,0.2,1.3,0.8,1.7,1.5c0.2,0.7,0.3,1.3,0.3,2v27.2c0,0.7-0.3,1.3-0.8,1.7
		c-1.5,0.3-2.3,0.3-3,0c-5-2.7-10.3-4.5-16-5.7c-6.2-1.3-12.3-2.2-18.7-2.2c-3.3-0.2-6.8,0.3-10,1.2c-2.2,0.5-4,1.7-5.2,3.3
		c-0.8,1.3-1.3,3-1.3,4.5c0,1.5,0.7,3,1.7,4.3c1.5,1.8,3.5,3.3,5.7,4.5c3.8,2,7.8,3.8,11.8,5.5c9,3,17.7,7.2,25.7,12.2
		c5.5,3.5,10,8.2,13.2,13.8c2.7,5.3,4,11.2,3.8,17.2C380.8,299.7,378.5,307.5,374.2,314z"/>
	<path d="M214.2,190.3c-6.2-2.5-12.8-3.5-19.7-3.3c-4.3,0-8.2,0-11.3,0.2c-3.3-0.2-5.7,0-6.8,0.2v56c2.3,0.2,4.5,0.3,6.5,0.3h8.8
		c6.5,0,13-1,19.2-3c5.3-1.5,10-4.7,13.7-8.8c3.5-4.2,5.2-9.8,5.2-17.2c0.2-5.2-1.2-10.3-3.8-14.8C223,195.5,219,192.2,214.2,190.3z
		"/>
</g>
</svg>
