<?xml version="1.0" encoding="utf-8"?>
<!-- Generator: Adobe Illustrator 23.0.1, SVG Export Plug-In . SVG Version: 6.00 Build 0)  -->
<svg version="1.1" id="Layer_1" xmlns="http://www.w3.org/2000/svg" xmlns:xlink="http://www.w3.org/1999/xlink" x="0px" y="0px"
	 viewBox="0 0 500 500" style="enable-background:new 0 0 500 500;" xml:space="preserve">
<g>
	<path d="M188.8,228.8c-1.7-5.2-3.2-10.2-4.8-15.3c-1.7-5.2-3.2-10-4.5-14.8c-1.3-4.7-2.5-9-3.7-13h-0.3c-1.5,7.2-3.3,14.3-5.7,21.5
		c-2.5,8-5,16.3-7.7,24.7c-2.2,8.5-4.8,16.3-7.3,23.3h42.3c-1-3.5-2.3-7.7-3.8-12C191.8,238.7,190.3,233.8,188.8,228.8z"/>
	<path d="M379.2,55H120.8C81.7,55,50,86.7,50,125.8v248.3c0,39.2,31.7,70.8,70.8,70.8h258.3c39.2,0,70.8-31.7,70.8-70.8V125.8
		C450,86.7,418.3,55,379.2,55z M258.3,330h-34.8c-1.2,0.2-2.3-0.7-2.7-1.8l-13.7-39.8h-62l-12.7,39.3c-0.3,1.5-1.7,2.5-3.2,2.3H98
		c-1.8,0-2.3-1-1.8-3l53.7-154c0.5-1.7,1-3.5,1.7-5.5c0.8-3.5,1.3-7,1.3-10.7c-0.2-0.8,0.5-1.7,1.3-1.8c0.2,0,0.3,0,0.5,0h42.7
		c1.2,0,2,0.5,2.2,1.3l60.5,171C260.5,329.2,260,330,258.3,330z M387.5,330.2h-28.7c-1.3,0.2-2.7-0.7-3.2-1.8
		c-0.3-1.3-0.7-2.8-1-4.2c-0.3-1.2-0.3-2.3-0.3-3.5c-5.3,4.8-11.8,8.3-18.8,10.3c-6,1.7-12.3,2.5-18.5,2.5s-12.3-0.8-18.2-2.8
		c-5.3-1.8-10.3-5-14.2-9.2c-4.3-4.7-7.5-10.2-9.3-16.2c-2.3-7.7-3.5-15.7-3.3-23.7V199c-0.2-1,0.5-2,1.7-2.2c0.2,0,0.3,0,0.5,0H306
		c1-0.2,2,0.5,2.2,1.7c0,0.2,0,0.3,0,0.5v78.3c0,7.3,1.7,13.2,4.8,17.3c3.2,4.2,9.7,6.3,17.2,6.3c3.8,0,7.7-0.7,11.3-2
		c3.8-1.3,7.3-3.2,10.5-5.5v-94.8c0-1.2,0.8-1.8,2.3-1.8h31.8c0.8-0.2,1.8,0.5,1.8,1.3c0,0.2,0,0.3,0,0.5v102.2c0,4.5,0,8.5,0.2,12
		c0.2,3.5,0.3,6.5,0.5,9.2c0.3,2.7,0.5,4.2,0.7,6C389.5,329.5,388.8,330.2,387.5,330.2z"/>
</g>
</svg>
