<?xml version="1.0" encoding="utf-8"?>
<!-- Generator: Adobe Illustrator 23.0.1, SVG Export Plug-In . SVG Version: 6.00 Build 0)  -->
<svg version="1.1" id="Layer_1" xmlns="http://www.w3.org/2000/svg" xmlns:xlink="http://www.w3.org/1999/xlink" x="0px" y="0px"
	 viewBox="0 0 500 500" style="enable-background:new 0 0 500 500;" xml:space="preserve">
<g id="XMLID_1_">
	<path id="XMLID_2_" d="M291.7,250l71.8-123.9L398.2,250l-34.7,123.9L291.7,250z M256.8,270.1L328.5,394l-125-32l-90.3-91.9
		L256.8,270.1L256.8,270.1z M328.5,106l-71.8,123.9H113.2l90.3-91.9L328.5,106z M430.9,207.9L387.1,45L223.7,88.7l-24.2,42.6
		l-49.1-0.3L31,250l119.6,119.2l0,0l49.1-0.3l24.3,42.6L387.3,455l43.8-162.8L406.1,250L430.9,207.9z"/>
</g>
</svg>
