<?xml version="1.0" encoding="utf-8"?>
<!-- Generator: Adobe Illustrator 23.0.1, SVG Export Plug-In . SVG Version: 6.00 Build 0)  -->
<svg version="1.1" id="Ebene_1" xmlns="http://www.w3.org/2000/svg" xmlns:xlink="http://www.w3.org/1999/xlink" x="0px" y="0px"
	 viewBox="0 0 500 500" style="enable-background:new 0 0 500 500;" xml:space="preserve">
<title>Asset 126</title>
<path d="M379.2,55H120.8C81.7,55,50,86.7,50,125.8v248.3c0,39.1,31.7,70.8,70.8,70.8h258.3c39.1,0,70.8-31.7,70.8-70.8V125.8
	C450,86.7,418.3,55,379.2,55z M267.6,299.2l-4.8,29c0,0.8-0.4,1.5-1.1,2c-0.5,0.3-1,0.4-1.6,0.4H154.3c-1.8,0-2.7-1-2.7-3V157.3
	c-0.2-1.2,0.6-2.2,1.8-2.4c0.2,0,0.4,0,0.6,0h32.7c0.9-0.1,1.8,0.5,1.9,1.4c0,0.2,0,0.3,0,0.5v140.1h77
	C267.3,296.8,267.9,297.6,267.6,299.2z M366.9,197v32.5c0,1.3-0.9,1.9-2.7,1.9c-10.8-0.7-21.6,1.3-31.5,5.6c-3.4,1.5-6.4,3.6-9,6.2
	v85.1c0,1.6-0.7,2.4-2.1,2.4H289c-1.3,0.2-2.5-0.7-2.7-2c0-0.2,0-0.5,0-0.7v-92.3c0-3.9,0-8.1-0.1-12.5c-0.1-4.4-0.2-8.7-0.4-13
	c-0.1-3.7-0.5-7.4-1.1-11c-0.2-0.8,0.3-1.7,1.1-1.9c0.3-0.1,0.5-0.1,0.8,0h29.2c1.6,0,3.1,1.1,3.5,2.7c0.6,1.2,1.1,2.4,1.3,3.8
	c0.4,1.7,0.6,3.5,0.8,5.2c0.2,1.9,0.3,3.9,0.3,6c5-5.8,11.1-10.7,17.8-14.4c7.6-4.1,16.2-6.2,24.8-6c1.2-0.2,2.2,0.6,2.4,1.8
	C366.9,196.6,366.9,196.8,366.9,197z"/>
</svg>
