<?xml version="1.0" encoding="utf-8"?>
<!-- Generator: Adobe Illustrator 23.0.1, SVG Export Plug-In . SVG Version: 6.00 Build 0)  -->
<svg version="1.1" id="Layer_1" xmlns="http://www.w3.org/2000/svg" xmlns:xlink="http://www.w3.org/1999/xlink" x="0px" y="0px"
	 viewBox="0 0 500 500" style="enable-background:new 0 0 500 500;" xml:space="preserve">
<path d="M449.5,103.5c-0.1-8.9-4.9-12.5-13-12.3c-48.6-0.7-101.7,0-150.3-0.2V54.6L50,91c0,106.1,0,212,0,318.1l236.1,36.3v-19.5
	v-16.8h16.8c39.9,0,79.8-0.1,119.7,0.1c4-0.2,10.9-0.1,15-0.7c7.3-0.9,10.5-2.3,11.7-9.6c0.9-5.7,0.6-16.1,0.8-21.7
	C449.3,287.6,450.3,193,449.5,103.5z M201.7,311.7c-7.5,4-19-0.2-28,0.5c-6.1-30.1-13.1-60-18.5-90.2c-5.4,29.4-12.2,58.4-18.3,87.7
	c-8.7-0.5-17.5-1-26.3-1.6c-7.5-40-16.5-79.7-23.4-119.8c7.8-0.3,15.5-0.7,23.3-0.9c4.7,28.9,9.9,57.7,14.1,86.7
	c6.5-29.8,13-59.5,19.4-89.3c8.7-0.5,17.3-0.9,25.9-1.4c6.1,30.6,12.2,61.3,18.7,91.9c5.1-31.5,10.9-63,16.3-94.5
	c9.1-0.3,18.2-0.8,27.2-1.4C221.9,223.5,212.9,267.9,201.7,311.7z M436.2,395.5c-49.9,0-100,0-149.9,0c0-12.1,0-24.2,0-36.3
	c39.4,0,78.7,0,118.2,0c0-6.1,0-12.1,0-18.2c-39.4,0-78.7,0-118.2,0c0-7.5,0-15.1,0-22.7c39.4,0,78.7,0,118.2,0c0-6.1,0-12.1,0-18.2
	c-39.4,0-78.7,0-118.2,0c0-7.5,0-15.1,0-22.7c39.4,0,78.7,0,118.2,0c0-6.1,0-12.1,0-18.2c-39.4,0-78.7,0-118.2,0
	c0-7.5,0-15.1,0-22.7c39.4,0,78.7,0,118.2,0c0-6.1,0-12.1,0-18.2c-39.4,0-78.7,0-118.2,0c0-7.5,0-15.1,0-22.7c39.4,0,78.7,0,118.2,0
	c0-6.1,0-12.1,0-18.2c-39.4,0-78.7,0-118.2,0c0-7.5,0-15.1,0-22.7c39.4,0,78.7,0,118.2,0c0-6.1,0-12.1,0-18.2
	c-39.4,0-78.7,0-118.2,0c0-10.6,0-21.3,0-31.8c49.9,0,100,0,149.9,0C436.2,201.5,436.2,298.6,436.2,395.5z"/>
</svg>
