<?xml version="1.0" encoding="utf-8"?>
<!-- Generator: Adobe Illustrator 23.0.1, SVG Export Plug-In . SVG Version: 6.00 Build 0)  -->
<svg version="1.1" id="Layer_1" xmlns="http://www.w3.org/2000/svg" xmlns:xlink="http://www.w3.org/1999/xlink" x="0px" y="0px"
	 viewBox="0 0 500 500" style="enable-background:new 0 0 500 500;" xml:space="preserve">
<g>
	<path d="M337.3,227.7c-10.4-8.5-24.1-13.7-39-13.7c-15.2,0-29,5.2-39,13.7c-10.4,8.9-17.5,21.2-18.2,35.3
		c-0.7,14.5,5.2,27.8,16,37.9c10.4,10,24.9,16.3,41.6,16.3c16.3,0,31.2-6.3,41.6-16.3c10.4-10,16-23.4,15.2-37.9
		C354.4,248.8,347.7,236.6,337.3,227.7z"/>
	<path d="M442,261.5c-2.6-17.5-8.5-33.8-17.8-48.6c-8.5-13.7-19.3-25.6-32.7-36l-131.4-101l-0.4-0.4c-8.5-6.7-23-6.7-32.7,0
		c-9.7,6.7-10.8,17.8-2.2,24.9l54.9,44.6H112.3h-0.4c-13.7,0-27.1,8.9-29.7,20.4c-2.6,11.5,6.7,21.5,21.2,21.5H188L36.5,303
		l-0.7,0.4c-14.1,10.8-18.9,29-10,40.5c9.3,11.9,28.6,11.9,43.1,0l82.4-67.6c0.7,0.7-0.7,9.7-0.4,15.2c0,5.6,1.9,16.3,4.5,24.5
		c5.6,17.8,14.9,34.2,27.8,48.3c13.4,14.9,29.7,26.7,49,35.3c20,8.9,41.6,13.4,64.2,13.4c22.6,0,44.2-4.5,64.2-13.7
		c18.9-8.5,35.6-20.4,49-35.3c13-14.5,22.3-30.8,27.8-48.6c3-8.9,4.5-17.8,5.2-27.1C443.5,279.3,443.1,270.4,442,261.5z
		 M381.8,293.4c-4.5,10.4-10.8,20-18.9,28.6c-17.1,17.5-40.8,27.1-66.5,27.1c-26,0-49.8-9.7-66.8-27.1c-8.2-8.5-14.5-18.2-18.2-28.6
		c-3.7-10-5.2-20.8-4.1-31.9c0.7-10.8,4.1-20.8,9.3-30.1c4.8-8.9,11.9-17.1,20.4-24.1c16.7-13.4,37.5-20.8,59.8-20.8
		c21.9,0,43.1,7.1,59.8,20.8c8.5,6.7,15.2,14.9,20,24.1c5.2,9.3,8.2,19.3,9.3,30.1C387,272.2,385.6,283,381.8,293.4z"/>
</g>
</svg>
