<?xml version="1.0" encoding="utf-8"?>
<!-- Generator: Adobe Illustrator 23.0.1, SVG Export Plug-In . SVG Version: 6.00 Build 0)  -->
<svg version="1.1" id="Layer_1" xmlns="http://www.w3.org/2000/svg" xmlns:xlink="http://www.w3.org/1999/xlink" x="0px" y="0px"
	 viewBox="0 0 500 500" style="enable-background:new 0 0 500 500;" xml:space="preserve">
<g>
	<path d="M193.5,228.8c-1.7-5.2-3.2-10.2-4.8-15.3c-1.7-5.2-3.2-10-4.5-14.8c-1.3-4.7-2.5-9-3.7-13h-0.3c-1.5,7.2-3.3,14.3-5.7,21.5
		c-2.5,8-5,16.3-7.7,24.7c-2.3,8.5-4.8,16.3-7.3,23.3h42.3c-1-3.5-2.3-7.7-3.8-12C196.5,238.7,195,233.8,193.5,228.8z"/>
	<path d="M379.2,55H120.8C81.7,55,50,86.7,50,125.8v248.3c0,39.2,31.7,70.8,70.8,70.8h258.3c39.2,0,70.8-31.7,70.8-70.8V125.8
		C450,86.7,418.3,55,379.2,55z M262.8,329.7H228c-1.2,0.2-2.3-0.7-2.7-1.8l-13.7-39.5h-61.8l-12.7,39.2c-0.3,1.5-1.7,2.5-3.2,2.3
		h-31.7c-1.8,0-2.3-1-1.8-3L154.3,173c0.5-1.7,1-3,1.7-5.2c0.7-3.5,1-7.2,1-10.8c-0.2-0.8,0.5-1.7,1.3-1.8c0.2,0,0.3,0,0.5,0h42.8
		c1.3,0,2,0.5,2.2,1.3L264.5,327C265,328.8,264.5,329.7,262.8,329.7z M399.8,327.3c0,1.7-0.7,2.3-2.2,2.3l-31.3,0.3
		c-1.3,0.2-2.5-0.7-2.7-2c0-0.2,0-0.5,0-0.7v-74.7c-0.2-5-1.2-10-3.2-14.5c-1.5-3.3-3.8-6.3-6.8-8.3c-3.5-2.2-7.3-3.2-11.3-3
		c-4.3,0-8.7,0.7-12.7,2.3c-3.7,1.5-7,3.7-10,6.3v92c0,1.7-0.7,2.3-2.2,2.3h-31.7c-1.2,0.2-2.2-0.7-2.3-1.8
		c-0.3-0.3-0.3-0.5-0.2-0.7v-99c0-3,0-6.5-0.2-10.2c-0.2-3.8-0.2-7.3-0.3-10.7c-0.2-3.3-0.3-6.5-0.5-8.5c-0.2-0.5-0.2-1.2,0.3-1.7
		c0.5-0.3,1-0.5,1.7-0.5h26.8c1,0,1.8,0.2,2.7,0.5c0.7,0.3,1.2,1,1.3,1.8c0.3,1,0.8,2.3,1.2,3.7c0.5,1.8,0.8,3.7,1,5.5
		c5.2-4.5,11.2-8,17.7-10.3c6.5-2.2,13.3-3.3,20.2-3.3c5.3,0,10.7,0.8,15.7,2.5c11.8,3.8,21.2,13,25.3,24.7
		c2.7,6.8,3.7,15.8,3.7,26.7V327.3z"/>
</g>
</svg>
