<?xml version="1.0" encoding="utf-8"?>
<!-- Generator: Adobe Illustrator 23.0.1, SVG Export Plug-In . SVG Version: 6.00 Build 0)  -->
<svg version="1.1" id="Ebene_1" xmlns="http://www.w3.org/2000/svg" xmlns:xlink="http://www.w3.org/1999/xlink" x="0px" y="0px"
	 viewBox="0 0 500 500" style="enable-background:new 0 0 500 500;" xml:space="preserve">
<path d="M450.3,231.5L268.5,49.7c-10.5-10.5-27.4-10.5-37.9,0l-37.8,37.8l47.9,47.9c11.1-3.8,23.9-1.2,32.8,7.6
	c8.9,8.9,11.4,21.8,7.6,33l46.2,46.2c11.2-3.8,24-1.4,33,7.6c12.5,12.5,12.5,32.7,0,45.1c-12.5,12.5-32.7,12.5-45.1,0
	c-9.4-9.4-11.7-23.2-6.9-34.7l-43-43l0,113.3c3,1.5,5.9,3.5,8.4,6c12.5,12.5,12.5,32.6,0,45.1c-12.5,12.5-32.7,12.5-45.1,0
	c-12.5-12.5-12.5-32.7,0-45.1c3.1-3.1,6.6-5.4,10.4-7V195c-3.8-1.6-7.4-3.9-10.4-7c-9.4-9.4-11.7-23.3-6.9-34.9L174.3,106
	L49.7,230.6c-10.5,10.5-10.5,27.5,0,37.9l181.8,181.8c10.5,10.5,27.4,10.5,37.9,0l181-180.9C460.8,258.9,460.8,241.9,450.3,231.5"/>
</svg>
