<?xml version="1.0" encoding="utf-8"?>
<!-- Generator: Adobe Illustrator 23.0.1, SVG Export Plug-In . SVG Version: 6.00 Build 0)  -->
<svg version="1.1" id="Layer_1" xmlns="http://www.w3.org/2000/svg" xmlns:xlink="http://www.w3.org/1999/xlink" x="0px" y="0px"
	 viewBox="0 0 500 500" style="enable-background:new 0 0 500 500;" xml:space="preserve">
<path d="M412.9,275.9c-14.7,0.1-27.4,3.6-38.1,8.8c-3.9-7.8-7.8-14.7-8.5-19.7c-0.8-5.9-1.7-9.5-0.8-16.6c0.9-7.1,5.1-17.1,5-17.9
	c-0.1-0.8-0.9-4.4-9.4-4.5c-8.5-0.1-15.7,1.6-16.6,3.8c-0.8,2.2-2.5,7.3-3.5,12.5c-1.5,7.7-16.9,35.1-25.7,49.5
	c-2.8-5.6-5.3-10.5-5.8-14.4c-0.8-5.9-1.7-9.5-0.8-16.6c0.9-7.1,5.1-17.1,5-17.9s-0.9-4.4-9.4-4.5c-8.5-0.1-15.7,1.6-16.6,3.8
	c-0.8,2.2-1.8,7.5-3.5,12.5c-1.8,5.1-22.3,50.9-27.7,62.7c-2.8,6.1-5.1,10.9-6.8,14.2l0,0c0,0-0.1,0.2-0.3,0.6
	c-1.5,2.8-2.3,4.4-2.3,4.4s0,0,0,0.1c-1.2,2.1-2.4,4-3,4c-0.5,0-1.3-5.5,0.2-13.1c3.1-15.9,10.4-40.6,10.3-41.5c0-0.5,1.4-4.8-4.8-7
	c-6-2.2-8.1,1.5-8.7,1.5c-0.5,0-0.9,1.3-0.9,1.3s6.7-27.8-12.8-27.8c-12.1,0-28.9,13.3-37.2,25.3c-5.2,2.8-16.4,8.9-28.3,15.4
	c-4.5,2.5-9.2,5.1-13.6,7.5c-0.3-0.3-0.6-0.7-0.9-1c-23.5-25.1-67-42.9-65.1-76.6c0.7-12.3,4.9-44.6,83.5-83.7
	c64.7-31.9,116.1-23,125.1-3.5c12.8,28-27.6,79.9-94.4,87.4c-25.5,2.8-38.9-7-42.3-10.7c-3.5-3.8-4.1-4.1-5.4-3.3
	c-2.2,1.2-0.8,4.6,0,6.6c2,5.2,10.2,14.4,24.1,19c12.3,4,42.2,6.2,78.4-7.8c40.5-15.7,72.1-59.2,62.8-95.7
	c-9.3-37-70.7-49.2-128.9-28.6c-34.6,12.3-72.1,31.6-99,56.8c-32,30-37.1,56-35,66.9c7.5,38.7,60.8,63.9,82.2,82.6
	c-1.1,0.6-2.1,1.2-2.9,1.6c-10.7,5.3-51.4,26.6-61.5,49.1c-11.5,25.5,1.8,43.8,10.7,46.2c27.4,7.6,55.6-6.1,70.7-28.7
	c15.1-22.6,13.3-51.9,6.3-65.4c-0.1-0.2-0.2-0.3-0.3-0.5c2.8-1.6,5.6-3.3,8.4-4.9c5.5-3.2,10.8-6.2,15.4-8.7
	c-2.6,7.1-4.5,15.7-5.5,28c-1.2,14.4,4.8,33.2,12.5,40.6c3.5,3.2,7.5,3.3,10.1,3.3c9.1,0,13.1-7.5,17.7-16.4
	c5.5-10.9,10.5-23.6,10.5-23.6s-6.2,34.3,10.7,34.3c6.1,0,12.4-8,15.1-12.1c0,0.1,0,0.1,0,0.1s0.2-0.2,0.5-0.8c0.6-1,1-1.6,1-1.6
	s0-0.1,0-0.2c2.5-4.3,8-14.1,16.2-30.3c10.6-20.9,20.8-47,20.8-47s0.9,6.4,4.1,17c1.8,6.2,5.7,13.1,8.8,19.7c-2.5,3.5-4,5.4-4,5.4
	s0,0,0.1,0.1c-2,2.6-4.1,5.5-6.5,8.2c-8.4,10-18.4,21.4-19.7,24.7c-1.6,3.9-1.2,6.8,1.8,9.1c2.2,1.7,6.2,1.9,10.3,1.7
	c7.5-0.5,12.8-2.4,15.4-3.5c4.1-1.5,8.8-3.7,13.3-7c8.2-6.1,13.2-14.7,12.8-26.2c-0.2-6.3-2.3-12.6-4.8-18.5
	c0.8-1.1,1.5-2.2,2.2-3.2c13-19,23-39.8,23-39.8s0.9,6.4,4.1,17c1.5,5.4,4.7,11.2,7.5,16.9c-12.2,9.9-19.7,21.4-22.4,29
	c-4.8,14-1.1,20.3,6.1,21.7c3.2,0.7,7.8-0.8,11.2-2.3c4.3-1.4,9.4-3.8,14.2-7.3c8.2-6.1,16.1-14.5,15.7-26
	c-0.2-5.2-1.6-10.4-3.5-15.4c10.4-4.3,23.7-6.7,40.8-4.7c36.6,4.3,43.8,27.1,42.4,36.7c-1.4,9.6-9.1,14.8-11.6,16.4
	s-3.4,2.2-3.1,3.3c0.3,1.7,1.5,1.6,3.7,1.3c3-0.5,19.2-7.8,19.9-25.4C472.4,300.3,450.9,275.6,412.9,275.9z M130.8,371
	c-12.1,13.2-29,18.2-36.3,14c-7.8-4.5-4.8-24,10.1-38c9.1-8.5,20.7-16.4,28.5-21.3c1.8-1.1,4.4-2.6,7.5-4.5c0.5-0.3,0.8-0.5,0.8-0.5
	l0,0c0.6-0.4,1.2-0.8,1.8-1.2C148.8,339.5,143.5,357.1,130.8,371z M219.1,310.9c-4.2,10.3-13.1,36.6-18.4,35.2
	c-4.6-1.2-7.5-21.2-0.9-40.9c3.3-9.9,10.3-21.7,14.4-26.3c6.6-7.4,13.9-9.8,15.7-6.8C232,275.9,221.7,304.5,219.1,310.9z M292,345.8
	c-1.8,0.9-3.5,1.5-4.2,1.1c-0.5-0.3,0.8-1.5,0.8-1.5s9.1-9.8,12.8-14.3c2.1-2.6,4.5-5.7,7.1-9.1c0,0.3,0,0.7,0,1
	C308.5,334.6,297.1,342.6,292,345.8z M348.3,333c-1.3-0.9-1.1-4,3.3-13.6c1.7-3.8,5.7-10.1,12.5-16.1c0.8,2.5,1.3,4.8,1.2,7.1
	C365.2,325.1,354.6,330.6,348.3,333z"/>
</svg>
