<?xml version="1.0" encoding="utf-8"?>
<!-- Generator: Adobe Illustrator 23.0.1, SVG Export Plug-In . SVG Version: 6.00 Build 0)  -->
<svg version="1.1" id="Layer_1" xmlns="http://www.w3.org/2000/svg" xmlns:xlink="http://www.w3.org/1999/xlink" x="0px" y="0px"
	 viewBox="0 0 500 500" style="enable-background:new 0 0 500 500;" xml:space="preserve">
<g>
	<path d="M392.4,92.8c7.5-8.7,4.9-16.7,3.6-19.8c-3.1-6.1-9.2-10.1-16.7-10.1h-29.4c-8.2,0-14.9,3.6-18,9.6l-43.4,63.1l37.7,51.7
		L392.4,92.8z"/>
	<path d="M167.9,72.1c-6.6-8.7-15.4-8.7-18.4-8.7h-28.5c-7.5,0-13.1,3.6-16.2,9.2c-3.1,6.1-2.6,13.1,1.7,19.8l105.8,146.4
		L90.7,408.5c-4.4,6.6-4.9,13.6-1.7,19.3c3.1,5.7,9.2,9.2,16.2,9.2h29.4c7.5,0,14.1-3.9,17.6-10.1l135.9-187.7L167.9,72.1z"/>
	<path d="M410.5,409.8l-85.1-116.6l-37.3,51.2l67.1,89.5l1.7,0.9c3.1,1.3,5.7,1.7,8.2,1.7h28.5c7,0,12.7-3.1,16.2-8.2
		C413.9,423.5,413.9,416.4,410.5,409.8z"/>
</g>
</svg>
