<?xml version="1.0" encoding="utf-8"?>
<!-- Generator: Adobe Illustrator 23.0.1, SVG Export Plug-In . SVG Version: 6.00 Build 0)  -->
<svg version="1.1" id="Layer_1" xmlns="http://www.w3.org/2000/svg" xmlns:xlink="http://www.w3.org/1999/xlink" x="0px" y="0px"
	 viewBox="0 0 500 500" style="enable-background:new 0 0 500 500;" xml:space="preserve">
<path id="XMLID_22_" d="M318.1,140.5c31.5,1.5,58.1,28,59.7,59.5c-20,0.2-39.9,0.1-59.8,0.1C317.9,180.1,317.9,160.3,318.1,140.5z"
	/>
<path d="M449.4,111c-0.1-7.1-0.6-15.2-9.7-15.2c-48.4-0.7-104.9,0-153.5-0.2V54.7l-236,36.4c0,106,0,211.8,0,317.8l236,36.3v-45.3
	c45.4,0,90.8-0.1,136.2,0.1c1.8-0.1,7.3-0.1,9.2-0.2c11.8-0.5,17.6-0.9,17.9-12.7c0.1-3.4,0.1-15.9,0.2-19.2
	C449.1,283.1,450.2,195.9,449.4,111z M183.3,265.1c-10.3,5.3-22.2,4.6-33.3,4.2c0,17.7-0.1,35.5,0,53.2c-9-0.8-18-1.6-27.1-2.3
	c-0.3-48.5-0.5-97.1,0.1-145.5c24.7,1.1,54.6-9.7,74.9,8.7C217.5,207.2,212.3,250.8,183.3,265.1z M436,386.1c-49.9,0-99.9,0-149.8,0
	c0-12.1,0-24.2,0-36.3c36.3,0,72.6,0,108.9,0c0-6.1,0-12.1,0-18.2c-36.3,0-72.6,0-108.9,0c0-7.5,0-15.1,0-22.7
	c36.3,0,72.6,0,108.9,0c0-6.1,0-12.1,0-18.2c-36.3,0-72.6,0-108.9,0c0-8.9,0-17.8-0.1-26.7c17.9,5.6,38.5,5.5,54.6-5.4
	c17.4-10.3,26.5-29.9,28-49.6c-20-0.1-39.9-0.1-59.7-0.1c0-19.8,0.2-39.5-0.5-59.1c-7.4,1.5-14.8,3-22.3,4.6c0-15,0-30.1,0-45.2
	c49.9,0,99.9,0,149.8,0C436,201.5,436,293.8,436,386.1z"/>
<path id="XMLID_24_" d="M150,199.3c8.9-0.5,20-2.1,26,6.4c5.1,8.9,4.9,20.7,0.6,29.8c-5.1,9.4-16.9,8.4-25.9,9.5
	C149.7,229.8,149.9,214.5,150,199.3z"/>
</svg>
