<?xml version="1.0" encoding="utf-8"?>
<!-- Generator: Adobe Illustrator 23.0.1, SVG Export Plug-In . SVG Version: 6.00 Build 0)  -->
<svg version="1.1" id="Ebene_1" xmlns="http://www.w3.org/2000/svg" xmlns:xlink="http://www.w3.org/1999/xlink" x="0px" y="0px"
	 viewBox="0 0 500 500" style="enable-background:new 0 0 500 500;" xml:space="preserve">
<path d="M70.6,52.5l32.7,366.2l146.5,40.7l146.9-40.7l32.7-366.2H70.6z M361.3,139.5l-2,22.8l-0.9,10.1h-0.1H250h-0.2
	h-63.4l4.1,46h59.3h0.2h92.1h12.1l-1.1,12.1l-10.6,118.2l-0.7,7.6L250,381.7v0l-0.2,0.1l-92-25.5l-6.3-70.5h20.8h24.3l3.2,35.8
	l50,13.5l0,0v0l50.1-13.5l5.2-58.3H250h-0.2H149.5l-11-123.8l-1.1-12h112.5h0.2h112.4L361.3,139.5z"/>
</svg>
