<?xml version="1.0" encoding="utf-8"?>
<!-- Generator: Adobe Illustrator 23.0.1, SVG Export Plug-In . SVG Version: 6.00 Build 0)  -->
<svg version="1.1" id="Ebene_1" xmlns="http://www.w3.org/2000/svg" xmlns:xlink="http://www.w3.org/1999/xlink" x="0px" y="0px"
	 viewBox="0 0 500 500" style="enable-background:new 0 0 500 500;" xml:space="preserve">
<path d="M50,50v400h400V50H50z M267.7,362c0,38.9-22.8,56.7-56.1,56.7c-30.1,0-47.5-15.6-56.4-34.4l0,0l0,0c0,0,0,0,0,0l30.6-18.5
	c5.9,10.5,11.3,19.3,24.2,19.3c12.4,0,20.1-4.8,20.1-23.6V233.6h37.6V362z M356.6,418.6c-34.9,0-57.5-16.6-68.5-38.4h0l30.6-17.7
	c8.1,13.2,18.5,22.8,37.1,22.8c15.6,0,25.5-7.8,25.5-18.5c0-12.9-10.2-17.5-27.4-25l-9.4-4c-27.1-11.5-45.1-26-45.1-56.7
	c0-28.2,21.5-49.7,55-49.7c23.9,0,41.1,8.3,53.4,30.1l-29.3,18.8c-6.4-11.5-13.4-16.1-24.2-16.1c-11,0-18,7-18,16.1
	c0,11.3,7,15.8,23.1,22.8l9.4,4c32,13.7,49.9,27.7,49.9,59.1C418.9,400.1,392.3,418.6,356.6,418.6z"/>
</svg>
