<?xml version="1.0" encoding="utf-8"?>
<!-- Generator: Adobe Illustrator 23.0.1, SVG Export Plug-In . SVG Version: 6.00 Build 0)  -->
<svg version="1.1" id="Layer_1" xmlns="http://www.w3.org/2000/svg" xmlns:xlink="http://www.w3.org/1999/xlink" x="0px" y="0px"
	 viewBox="0 0 500 500" style="enable-background:new 0 0 500 500;" xml:space="preserve">
<g>
	<path d="M315.4,301.8c93-91.5,90-156.1,90-156.1c0-15.4-13.3-6.9-13.3-6.9c-24.8,19.9-60.4,20.5-60.4,20.5
		c-10.3,44.4-66.4,99.7-80.6,113c-9.7-8.8-71.9-67-82.8-114.2c0,0-35.6,0-60.4-19.9c0,0-13.3-7.9-13.3,7.2c0,0-3,62.5,90,153.7
		c93,91.5,103.6,129.6,98.5,153.7h67.7c0,0,3.9-70.1-51.3-136.5C304.8,312.1,310,307.2,315.4,301.8z"/>
	<path d="M188.8,334.7C145.7,396.9,149,458.2,149,458.2h67.7c-2.7-16-0.3-35.9,21.4-68.3C226,374.6,210,356.2,188.8,334.7z"/>
	<path d="M212.1,176.5c11.8,23.3,38.4,47.7,38.4,47.7s36.2-33.2,39.3-49.8c2.1-11.5-6.6-10.3-6.6-10.3h-67
		C207.6,164.1,212.4,176.8,212.1,176.5z"/>
	<circle cx="338.6" cy="94.6" r="29.3"/>
	<circle cx="165.9" cy="94.6" r="29.3"/>
	<circle cx="254.1" cy="71.1" r="29.3"/>
</g>
</svg>
