<?xml version="1.0" encoding="utf-8"?>
<!-- Generator: Adobe Illustrator 23.0.1, SVG Export Plug-In . SVG Version: 6.00 Build 0)  -->
<svg version="1.1" id="Layer_1" xmlns="http://www.w3.org/2000/svg" xmlns:xlink="http://www.w3.org/1999/xlink" x="0px" y="0px"
	 viewBox="0 0 500 500" style="enable-background:new 0 0 500 500;" xml:space="preserve">
<g>
	<path d="M297.7,225.5c-6.5,0-13,1.3-18.8,4.3c-5.7,2.8-10.5,7-14.2,12.3c-3.7,5.3-5.5,12.5-5.5,21.2c-0.2,5.8,0.8,11.7,2.8,17.2
		c1.7,4.5,4.2,8.5,7.5,11.8c3.2,3,7,5.3,11.3,6.7c4.5,1.5,9.2,2.2,13.8,2.2c2.5,0,4.8-0.2,7-0.3c2.2,0.2,4.2-0.2,6-0.8v-73.3
		c-1.5-0.3-3-0.7-4.5-0.8C301.3,225.7,299.5,225.5,297.7,225.5z"/>
	<path d="M379.2,55H120.8C81.7,55,50,86.7,50,125.8v248.3c0,39.2,31.7,70.8,70.8,70.8h258.3c39.2,0,70.8-31.7,70.8-70.8V125.8
		C450,86.7,418.3,55,379.2,55z M195.3,328c0,1.8-0.8,2.7-2.3,2.7h-32.7c-1.5,0-2.2-0.8-2.2-2.7V157c0-1.5,0.8-2.2,2.3-2.2H193
		c1-0.2,2,0.5,2.2,1.7c0.2,0.2,0.2,0.3,0.2,0.5V328z M344.2,323c-8.7,3.7-17.8,6.3-27.2,8c-8.3,1.5-17,2.3-25.7,2.3
		c-12.3,0.2-24.7-2.3-35.8-7.5c-10.5-4.8-19.2-12.8-25.2-22.7c-6.2-10.2-9.2-22.8-9.2-38c-0.2-12.3,3-24.5,9.2-35.2
		c6.3-10.8,15.5-19.8,26.5-25.8c11.7-6.5,25.7-9.7,42.2-9.7c0.8,0,2,0,3.5,0.2c1.5,0.2,3.2,0.2,5.2,0.3v-52.7c0-1.2,0.5-1.8,1.7-1.8
		h33.8c0.8-0.2,1.5,0.5,1.7,1.2c0,0.2,0,0.3,0,0.3v158.7c0,3,0.2,6.3,0.3,10c0.3,3.5,0.5,6.8,0.7,9.7
		C345.8,321.5,345.3,322.5,344.2,323z"/>
</g>
</svg>
