<?xml version="1.0" encoding="utf-8"?>
<!-- Generator: Adobe Illustrator 23.0.1, SVG Export Plug-In . SVG Version: 6.00 Build 0)  -->
<svg version="1.1" id="svg3464" xmlns:svg="http://www.w3.org/2000/svg"
	 xmlns="http://www.w3.org/2000/svg" xmlns:xlink="http://www.w3.org/1999/xlink" x="0px" y="0px" viewBox="0 0 500 500"
	 style="enable-background:new 0 0 500 500;" xml:space="preserve">
<path id="path3424" d="M87.6,65.8c-9.6-0.1-17.9,3.5-22.3,14.1c-7.4,17.9,11,35.4,17.3,44.5c4.7,6.3,10.7,13.5,14,20.6
	c1.9,4.7,2.5,9.6,4.4,14.6c4.4,12.1,8.5,25.6,14.2,36.8c3,5.8,6.3,11.8,10.1,17c2.2,3,6,4.4,6.9,9.4c-3.8,5.5-4.1,13.7-6.3,20.6
	c-9.9,31-6,69.5,7.9,92.3c4.4,6.9,14.8,22,28.8,16.2c12.3-4.9,9.6-20.6,13.1-34.3c0.8-3.3,0.3-5.5,1.9-7.7v0.6
	c3.8,7.7,7.7,15.1,11.2,22.8c8.5,13.4,23.3,27.5,35.6,36.8c6.6,5,11.8,13.5,20,16.5v-0.8h-0.5c-1.7-2.5-4.1-3.6-6.3-5.5
	c-4.9-4.9-10.4-11-14.2-16.5c-11.5-15.4-21.7-32.4-30.7-50c-4.4-8.5-8.2-17.9-11.8-26.4c-1.6-3.3-1.6-8.2-4.4-9.9
	c-4.1,6-10.1,11.3-13.1,18.7c-5.2,11.8-5.8,26.4-7.7,41.5c-1.1,0.3-0.5,0-1.1,0.5c-8.8-2.2-11.8-11.3-15.1-18.9
	c-8.2-19.5-9.6-50.8-2.5-73.4c1.9-5.8,10.2-23.9,6.9-29.4c-1.7-5.2-7.1-8.2-10.1-12.4c-3.6-5.2-7.4-11.8-9.9-17.6
	c-6.6-15.4-9.9-32.4-17-47.8c-3.3-7.2-9.1-14.6-13.7-21.2c-5.2-7.4-11-12.6-15.1-21.4c-1.4-3-3.3-8-1.1-11.3c0.5-2.2,1.7-3,3.8-3.6
	c3.5-3,13.7,0.8,17.2,2.5c10.1,4.1,18.6,8,27.1,13.7c3.8,2.8,8,8,12.9,9.4h5.8c8.8,1.9,18.6,0.5,26.9,3c14.5,4.7,27.7,11.5,39.5,19
	c35.9,22.8,65.5,55.2,85.5,94c3.3,6.3,4.7,12.1,7.7,18.7c5.8,13.5,12.9,27.2,18.6,40.4c5.7,12.9,11.2,26.1,19.5,36.8
	c4.1,5.8,20.5,8.8,27.9,11.8c5.5,2.5,14,4.7,18.9,7.7c9.3,5.8,18.6,12.4,27.4,18.7c4.4,3.3,18.1,10.2,18.9,15.7l0,0
	c-21.9-0.5-38.9,1.6-53.2,7.7c-4.1,1.6-10.7,1.6-11.2,6.9c2.2,2.2,2.5,5.8,4.4,8.8c3.3,5.5,9,12.9,14.2,16.8
	c5.8,4.4,11.5,8.8,17.5,12.6c10.7,6.6,22.7,10.5,33.1,17c6,3.8,12.1,8.8,18.1,12.9c3,2.2,4.9,5.8,8.8,7.1v-0.8
	c-1.9-2.5-2.5-6-4.4-8.8c-2.7-2.7-5.5-5.2-8.2-7.9c-7.9-10.7-17.8-20-28.5-27.7c-8.8-6.1-28-14.3-31.5-24.4c0,0-0.3-0.3-0.6-0.6
	c6-0.6,13.2-2.8,18.9-4.4c9.3-2.5,17.8-1.9,27.4-4.4c4.4-1.1,8.8-2.5,13.2-3.8v-2.5c-5-4.9-8.5-11.5-13.7-16.2
	c-14-12.1-29.3-23.9-45.2-33.8c-8.5-5.5-19.5-9-28.5-13.7c-3.3-1.7-8.7-2.5-10.7-5.2c-4.9-6-7.7-14-11.2-21.2
	c-7.9-15.1-15.6-31.8-22.5-47.8c-4.9-10.7-7.9-21.4-14-31.3c-28.2-46.7-58.9-75-106-102.7c-10.1-5.8-22.2-8.2-35.1-11.3
	c-6.9-0.3-13.7-0.8-20.6-1.1c-4.4-1.9-8.8-7.2-12.6-9.6C122.9,76.7,103.6,66,87.6,65.8L87.6,65.8z M155.2,133.7
	c-4.6,0-7.9,0.6-11.2,1.4v0.5h0.5c2.2,4.4,6.1,7.4,8.8,11.3c2.2,4.4,4.1,8.8,6.3,13.2c0.3-0.3,0.5-0.6,0.5-0.6
	c3.9-2.7,5.8-7.1,5.8-13.7c-1.7-1.9-1.9-3.8-3.3-5.8C160.9,137.2,157.4,135.9,155.2,133.7z"/>
</svg>
