<?xml version="1.0" encoding="utf-8"?>
<!-- Generator: Adobe Illustrator 23.0.1, SVG Export Plug-In . SVG Version: 6.00 Build 0)  -->
<svg version="1.1"
	 id="svg1968" xmlns:cc="http://web.resource.org/cc/" xmlns:dc="http://purl.org/dc/elements/1.1/" xmlns:inkscape="http://www.inkscape.org/namespaces/inkscape" xmlns:rdf="http://www.w3.org/1999/02/22-rdf-syntax-ns#" xmlns:sodipodi="http://sodipodi.sourceforge.net/DTD/sodipodi-0.dtd" xmlns:svg="http://www.w3.org/2000/svg"
	 xmlns="http://www.w3.org/2000/svg" xmlns:xlink="http://www.w3.org/1999/xlink" x="0px" y="0px" viewBox="0 0 500 500"
	 style="enable-background:new 0 0 500 500;" xml:space="preserve">
<g>
	<path d="M185.7,357L185.7,357c-64.7,18.3,39.4,55.5,121.6,20.4c-13.4-4.9-23.2-11.2-23.2-11.2c-36.6,7-54.1,7.7-87.2,3.5
		C169.6,366.8,185.7,357,185.7,357z"/>
	<path d="M311.6,288.8c7.7-4.9,19-9.8,19-9.8s-31.6,5.6-63.3,8.4c-38.7,2.8-80.1,3.5-101.2,0.7c-49.2-6.3,27.4-24.6,27.4-24.6l0,0
		c0,0-30.2-2.1-66.8,15.5C83.8,300.1,233.5,309.2,311.6,288.8z"/>
	<path d="M330.5,340.1L330.5,340.1c-0.7,1.4-1.4,2.1-1.4,2.1c105.4-27.4,66.1-97.7,16.2-80.1c-4.9,1.4-7,5.6-7,5.6s2.8-1.4,9.1-2.8
		C372.7,260,409.3,299.4,330.5,340.1z"/>
	<polygon points="175.2,311.3 175.2,311.3 175.2,311.3 	"/>
	<polygon points="369.2,391.4 369.2,391.4 369.2,391.4 	"/>
	<path d="M333.4,437.1c-64.7,12-144.8,10.5-191.9,2.8c0,0,9.8,8.4,59.8,11.2l0,0c75.9,4.9,191.9-2.8,194.7-38.7
		C395.9,412.5,390.3,426.6,333.4,437.1z"/>
	<path d="M297.5,321.9c-48.5,9.8-76.6,9.1-112.5,5.6c-27.4-2.8-9.8-16.2-9.8-16.2c-71,23.9,40.1,50.6,139.2,21.1
		C303.8,328.9,297.5,321.9,297.5,321.9z"/>
	<path d="M369.2,391.4c0,0,11.9,9.9-13.4,17.6c-47.1,14.1-197.5,18.3-239.7,0c-14.8-6.3,13.4-15.5,22.5-16.9
		c9.1-2.1,14.1-2.1,14.1-2.1c-16.2-11.2-107.6,23.2-46.4,33C274.3,450.5,412.8,411.1,369.2,391.4z"/>
	<path d="M241.3,262.8c-15.5-35.1-68.2-66.1,0-120.2c85.1-66.8,41.5-111.1,41.5-111.1v0c17.6,69.6-61.9,90.7-90.7,134.3
		C172.4,195.3,201.2,227,241.3,262.8z"/>
	<path d="M260.3,233.3L260.3,233.3c20.4,23.2-5.6,44.3-5.6,44.3s52-26.7,28.1-59.8c-21.8-31.6-38.7-47.1,52.7-99.8
		C335.5,118,191.4,153.8,260.3,233.3z"/>
</g>
</svg>
