<?xml version="1.0" encoding="utf-8"?>
<!-- Generator: Adobe Illustrator 23.0.1, SVG Export Plug-In . SVG Version: 6.00 Build 0)  -->
<svg version="1.1" id="Ebene_1" xmlns="http://www.w3.org/2000/svg" xmlns:xlink="http://www.w3.org/1999/xlink" x="0px" y="0px"
	 viewBox="0 0 500 500" style="enable-background:new 0 0 500 500;" xml:space="preserve">
<path d="M134.9,429.2c-12.9,0.3-25.5-9.1-29.3-21.4c-1.5-4.7-0.6-10.6,0.9-15.2c4.4-15.2,10-30.2,14.7-45.2
	c1.2-3.8,1.2-8.5,1.2-12.6c0.3-8.8-2.6-14.7-11.7-18.2c-16.4-6.7-31.4-16.7-43.7-29.6c-25.5-27.3-29-62.5-8.8-93.8
	c20.8-32,51.9-48.4,88.3-55.4c29.9-5.9,70.4-10.3,111.7-2.6c1.8-2.6,3.5-5.3,5.3-7.6c20.2-28.4,54.8-36.4,84.8-18.8
	c17.9,10.3,30.2,25.8,39,44c2.3,4.7,4.7,6.2,9.7,4.7c5.6-1.8,11.4-2.6,17-3.8c7.9-1.8,14.1-4.1,18.8-12c6.7-11.7,23.2-14.1,34.3-6.5
	c11.4,7.6,15.2,22,8.5,34c-6.7,12-22,17.6-33.4,10.6c-7-4.4-13.2-4.1-19.9-1.8c-7.3,2.3-16.7,2.9-21.1,7.9
	c-3.5,4.1-1.5,13.8-1.5,20.8c-0.3,18.8-4.1,37-14.1,53.1c-19.4,32.3-56.3,41.9-88.6,22.6c-5-2.9-7.9-2.3-12.3,0.6
	c-13.2,7.9-26.7,15.2-40.5,21.7c-5,2.3-6.7,5-6.5,10c0.3,10.6,1.5,20.5,8.8,28.7c-16.1,12-26.1,5-41.1-27.9c-0.6,2.3-1.5,4.7-1.5,7
	c1.8,24.9,7,49.3,16.7,72.4c7.6,18.8,0.9,31.1-19.4,32.6L134.9,429.2z M181.3,252c-4.4-11.1-8.2-20.8-12.6-30.5
	c-2.3-5.3-1.8-9.1,2.1-13.5c5-5.9,9.4-12.3,15-19.6c-11.1,1.8-20.2,3.2-29.3,4.4c-2.6,0.3-6.2-0.9-7.9-2.9
	c-4.4-4.1-8.5-9.1-13.2-14.4c-3.2,6.5-6.2,11.4-8.2,16.7c-2.6,6.7-6.7,10.9-13.8,13.2c-7.6,2.6-15,6.2-23.2,10
	c6.7,3.8,12.3,7.6,18.2,10.3c4.7,2.3,7.3,5,7.3,10.9c0,8.5,0.9,17.3,1.2,24.9c6.7-6.2,13.8-12.3,20.2-18.8c3.2-3.2,5.9-4.1,10.3-2.3
	C158.1,244.4,169.2,247.9,181.3,252z M383,192.5c-34.3,13.8-46.9,48.7-73.6,69.5c21.7,13.8,45.7,4.4,57.2-9.4
	C381.3,235.3,384.8,215.1,383,192.5z M371.9,159.1c-10.9-22-31.4-37.2-51.3-37.5c-16.4-0.3-29.3,6.7-39.3,20.2
	C310.6,155.3,340.2,161.1,371.9,159.1z"/>
</svg>
