<?xml version="1.0" encoding="utf-8"?>
<!-- Generator: Adobe Illustrator 23.0.1, SVG Export Plug-In . SVG Version: 6.00 Build 0)  -->
<svg version="1.1" id="Layer_1" xmlns="http://www.w3.org/2000/svg" xmlns:xlink="http://www.w3.org/1999/xlink" x="0px" y="0px"
	 viewBox="0 0 500 500" style="enable-background:new 0 0 500 500;" xml:space="preserve">
<g>
	<path d="M379.2,55H120.8C81.7,55,50,86.7,50,125.8v248.3c0,39.2,31.7,70.8,70.8,70.8h258.3c39.2,0,70.8-31.7,70.8-70.8V125.8
		C450,86.7,418.3,55,379.2,55z M261,249.2c-6.7,9.3-16,16.3-26.8,20.3c-11.3,4.2-23.8,5.7-37.5,5.7c-4,0-6.7,0-8.3-0.2
		c-1.7-0.2-4-0.2-7.2-0.2v53.5c0.2,1.2-0.7,2.2-1.8,2.3c-0.2,0-0.3,0-0.7,0H147c-1.3,0-2-0.7-2-2.2V157c0-1.2,0.5-1.8,1.7-1.8
		c2.8,0,5.5,0,9.3-0.2c4-0.2,8.2-0.2,12.7-0.3c4.5-0.2,9.3-0.2,14.5-0.3c5.2-0.2,10.2-0.2,15.2-0.2c13.7,0,25,1.7,34.3,5.2
		c8.3,2.8,16,7.5,22.3,13.7c5.3,5.3,9.5,11.8,12.2,19c2.5,7,3.8,14.2,3.8,21.7C271,228,267.7,239.8,261,249.2z M374.7,196.7v32.5
		c0,1.3-0.8,1.8-2.7,1.8c-6-0.2-12.2,0.3-18,1.7c-4.8,1-9.5,2.5-14,4.5c-3.2,1.5-6.2,3.5-8.5,6.2v85c0,1.7-0.7,2.3-2.2,2.3h-32.8
		c-1.3,0.2-2.5-0.7-2.7-2c0-0.2,0-0.5,0-0.7v-92.3c0-4,0-8.2-0.2-12.5c-0.2-4.3-0.2-8.7-0.3-13c0-3.8-0.3-7.5-0.7-11.3
		c-0.2-0.8,0.3-1.7,1.2-1.8c0-0.2,0.3-0.2,0.5,0h29.2c1.7,0,3,1.2,3.5,2.7c0.5,1.3,0.8,2.7,1,4.2c0.3,1.7,0.7,3.5,0.8,5.2
		c0.2,1.8,0.3,3.8,0.3,6c5-5.8,11-10.7,17.8-14.3c7.7-4.3,16.5-6.5,25.3-6.5c1.2-0.2,2.2,0.7,2.3,1.8
		C374.7,196.2,374.7,196.3,374.7,196.7z"/>
	<path d="M219.2,190.3c-6.2-2.5-12.8-3.5-19.7-3.3c-4.3,0-8.2,0-11.3,0.2c-3.3-0.2-5.7,0-6.8,0.2v56c2.3,0.2,4.5,0.3,6.5,0.3h8.8
		c6.5,0,13-1,19.2-3c5.3-1.5,10-4.7,13.7-8.8c3.5-4.2,5.2-9.8,5.2-17.2c0.2-5.2-1.2-10.3-3.8-14.8C228,195.5,224,192.2,219.2,190.3z
		"/>
</g>
</svg>
