<?xml version="1.0" encoding="utf-8"?>
<!-- Generator: Adobe Illustrator 23.0.1, SVG Export Plug-In . SVG Version: 6.00 Build 0)  -->
<svg version="1.1" id="Ebene_1" xmlns="http://www.w3.org/2000/svg" xmlns:xlink="http://www.w3.org/1999/xlink" x="0px" y="0px"
	 viewBox="0 0 500 500" style="enable-background:new 0 0 500 500;" xml:space="preserve">
<g>
	<polygon points="336.2,254.9 347.7,254.9 349.3,240.8 337.7,240.8 	"/>
	<path d="M416.3,133.2l-148-85.4c-11.4-6.6-25.4-6.6-36.7,0l-148,85.4c-11.4,6.6-18.4,18.7-18.4,31.8v170.9c0,13.1,7,25.2,18.4,31.8
		l148,85.4c11.4,6.6,25.4,6.6,36.7,0l148-85.4c11.4-6.6,18.4-18.7,18.4-31.8V165C434.7,151.9,427.7,139.8,416.3,133.2z M126.5,250
		c-0.7-120.6,160.7-173.8,230.4-61.8l-53.4,30.9c-32.3-53.3-112.3-34.3-115.2,30.9c0.9,60,79.6,87.9,115.2,30.8l53.4,30.9
		C295.6,418.3,129.6,380,126.5,250z M369.7,240.8h-10.2l-1.5,14.1h8.8v9.8H357l-1.8,17.4h-10.4l1.9-17.4h-11.5l-1.8,17.4h-10.4
		l1.9-17.4h-9v-9.8h10l1.5-14.1h-8.7V231h9.7l1.7-15.9h10.2l-1.7,15.9h11.6L352,215h10.2l-1.7,15.9h9.2V240.8z"/>
</g>
</svg>
