<?xml version="1.0" encoding="utf-8"?>
<!-- Generator: Adobe Illustrator 23.0.1, SVG Export Plug-In . SVG Version: 6.00 Build 0)  -->
<svg version="1.1"
	 id="svg2" xmlns:cc="http://creativecommons.org/ns#" xmlns:dc="http://purl.org/dc/elements/1.1/" xmlns:inkscape="http://www.inkscape.org/namespaces/inkscape" xmlns:rdf="http://www.w3.org/1999/02/22-rdf-syntax-ns#" xmlns:sodipodi="http://sodipodi.sourceforge.net/DTD/sodipodi-0.dtd" xmlns:svg="http://www.w3.org/2000/svg"
	 xmlns="http://www.w3.org/2000/svg" xmlns:xlink="http://www.w3.org/1999/xlink" x="0px" y="0px" viewBox="0 0 500 500"
	 style="enable-background:new 0 0 500 500;" xml:space="preserve">
<g>
	<path d="M161.4,225.8c-14.4,0-26.1,11.7-26.1,26.1c0,14.4,11.7,26,26.1,26c14.4,0,26.1-11.7,26.1-26
		C187.5,237.4,175.8,225.8,161.4,225.8z"/>
	<path d="M365.6,361.2c-0.2,3.5-3,6.3-6.5,6.5l-69.4,5c-0.2,0-0.3,0-0.5,0c-3.4,0-6.4-2.5-6.9-6l-4-27h-56.6l-4,27
		c-0.5,3.6-3.8,6.2-7.4,6l-69.4-5c-3.5-0.3-6.3-3-6.5-6.5l-2-28.9l-58.6-5.6c0,6.3,0.1,13.2,0.1,14.6c0,61.9,78.5,91.6,176,91.9h0.1
		h0.1c97.5-0.3,176-30.1,176-91.9c0-1.4,0.1-8.3,0.1-14.6l-58.6,5.6L365.6,361.2z"/>
	<path d="M74.8,309.1l65.2,6.3c5.2,0.5,9.2,4.6,9.6,9.8l1.8,25.6l50.4,3.6l3.4-23.2c0.8-5.2,5.3-9.1,10.5-9.1h68.7
		c5.2,0,9.7,3.9,10.5,9.1l3.4,23.2l50.4-3.6l1.8-25.6c0.4-5.2,4.4-9.3,9.6-9.8l65.1-6.3c0.3,0,0.9-0.1,0.9-0.1v-4.9l0,0v-97.8h0.2
		c8.6-11,16.6-22.6,24.3-35c-10.2-17.3-22.6-32.8-36-47.1c-12.4,6.2-24.4,13.3-35.7,20.8c-5.7-5.6-12.1-10.2-18.3-15.1
		c-6.2-5-13.1-8.6-19.7-12.8c2-14.6,2.9-29,3.3-44c-17-8.6-35.1-14.2-53.5-18.3c-7.3,12.3-14,25.6-19.8,38.7
		c-6.9-1.2-13.9-1.6-20.8-1.7v0c0,0-0.1,0-0.1,0c0,0-0.1,0-0.1,0v0c-7,0.1-13.9,0.5-20.8,1.7c-5.8-13-12.5-26.4-19.9-38.7
		c-18.3,4.1-36.5,9.7-53.5,18.3c0.4,15,1.4,29.4,3.3,44c-6.6,4.2-13.5,7.9-19.7,12.8c-6.3,4.8-12.7,9.4-18.3,15.1
		c-11.3-7.5-23.3-14.5-35.7-20.8c-13.3,14.3-25.8,29.8-36,47.1c7.7,12.4,15.6,24,24.3,35h0.2v85.5v10.9v6.3 M157.6,288.8
		c-21.7,0-39.3-17.6-39.3-39.3c0-21.7,17.6-39.2,39.3-39.2c21.7,0,39.3,17.6,39.3,39.2C196.9,271.2,179.3,288.8,157.6,288.8z
		 M262.6,280.8c0,6.3-5.7,11.5-12.6,11.5c-7,0-12.6-5.1-12.6-11.5v-36.1c0-6.3,5.7-11.5,12.6-11.5c7,0,12.6,5.1,12.6,11.5V280.8z
		 M342.4,288.8c-21.7,0-39.3-17.6-39.3-39.3c0-21.7,17.6-39.2,39.3-39.2c21.7,0,39.3,17.6,39.3,39.2
		C381.6,271.2,364,288.8,342.4,288.8z"/>
	<path d="M338.6,225.8c-14.4,0-26,11.7-26,26.1c0,14.4,11.7,26,26,26c14.4,0,26.1-11.7,26.1-26C364.6,237.4,353,225.8,338.6,225.8z"
		/>
</g>
</svg>
