<?xml version="1.0" encoding="utf-8"?>
<!-- Generator: Adobe Illustrator 23.0.1, SVG Export Plug-In . SVG Version: 6.00 Build 0)  -->
<svg version="1.1" id="Layer_1" xmlns="http://www.w3.org/2000/svg" xmlns:xlink="http://www.w3.org/1999/xlink" x="0px" y="0px"
	 viewBox="0 0 500 500" style="enable-background:new 0 0 500 500;" xml:space="preserve">
<g>
	<path d="M292.2,320.2l-40-23.1c-2.5-1.4-5.9-1.4-8.4,0l-40,23.1c-2.6,1.5-4.2,4.3-4.2,7.3v46.2c0,3,1.6,5.8,4.2,7.3
		l10.5,6c5.1,2.5,6.9,2.5,9.2,2.5c7.5,0,11.8-4.6,11.8-12.5v-45.6c0-0.6-0.5-1.2-1.2-1.2h-5.1c-0.6,0-1.2,0.5-1.2,1.2V377
		c0,3.5-3.6,7-9.6,4l-11-6.3c-0.4-0.2-0.6-0.6-0.6-1.1v-46.2c0-0.4,0.2-0.9,0.6-1.1l40-23.1c0.4-0.2,0.9-0.2,1.2,0l40,23.1
		c0.4,0.2,0.6,0.7,0.6,1.1v46.2c0,0.4-0.2,0.9-0.6,1.1l-40,23.1c-0.3,0.2-0.9,0.2-1.2,0l-10.3-6.1c-0.3-0.2-0.7-0.2-1-0.1
		c-2.8,1.6-3.4,1.8-6,2.7c-0.7,0.2-1.6,0.6,0.4,1.7l13.4,7.9c1.3,0.7,2.7,1.1,4.2,1.1c1.5,0,2.9-0.4,4.2-1.1l40-23.1
		c2.6-1.5,4.2-4.3,4.2-7.3v-46.2C296.4,324.5,294.8,321.7,292.2,320.2z"/>
	<path d="M260.3,366.3c-10.6,0-12.9-2.7-13.7-7.9c-0.1-0.6-0.6-1-1.1-1h-5.2c-0.6,0-1.2,0.5-1.2,1.2
		c0,6.7,3.7,14.8,21.2,14.8c12.7,0,19.9-5,19.9-13.7c0-8.6-5.8-10.9-18.1-12.6c-12.4-1.6-13.7-2.5-13.7-5.4c0-2.4,1.1-5.6,10.3-5.6
		c8.2,0,11.2,1.8,12.5,7.3c0.1,0.5,0.6,0.9,1.1,0.9h5.2c0.3,0,0.6-0.1,0.8-0.4c0.2-0.2,0.3-0.6,0.3-0.9c-0.8-9.5-7.1-14-20-14
		c-11.4,0-18.2,4.8-18.2,12.9c0,8.8,6.8,11.2,17.7,12.3c13.1,1.3,14.1,3.2,14.1,5.8C272.3,364.4,268.7,366.3,260.3,366.3z"/>
	<path d="M311.8,325c0.6-0.2,1.6-0.5,1.6-2.1c0-2.3-2-2.3-3-2.3h-3v8.6h1.7v-3.5h1.5c0.6,0,0.8,0.2,0.9,0.7
		c0,0.1,0.3,2.3,0.3,2.7h1.8c-0.2-0.4-0.4-1.6-0.4-2.3C313,325.9,312.9,325.1,311.8,325z M310.4,324.4H309V322h1.4
		c0.4,0,1.3,0,1.3,1.2C311.7,323.6,311.5,324.4,310.4,324.4z"/>
	<path d="M310.3,317.2c-4.1,0-7.7,3.3-7.7,7.7c0,4.3,3.5,7.7,7.7,7.7c4.2,0,7.7-3.5,7.7-7.7
		C318,320.5,314.4,317.2,310.3,317.2z M310.3,331.4c-3.5,0-6.4-2.9-6.4-6.5c0-3.6,2.9-6.4,6.4-6.4c3.6,0,6.5,2.9,6.5,6.4
		C316.8,328.4,313.9,331.4,310.3,331.4z"/>
	<path d="M121.5,220l-42.4-24.4c-0.7-0.4-1.5-0.6-2.3-0.7c-0.1,0-0.4,0-0.4,0c-0.8,0-1.6,0.3-2.3,0.7L31.5,220
		c-1.6,0.9-2.6,2.6-2.6,4.5l0.1,65.7c0,0.9,0.5,1.8,1.3,2.2c0.8,0.5,1.8,0.5,2.5,0L58.1,278c1.6-0.9,2.6-2.6,2.6-4.4v-30.7
		c0-1.8,1-3.5,2.6-4.4l10.7-6.2c0.8-0.5,1.7-0.7,2.6-0.7c0.9,0,1.8,0.2,2.5,0.7l10.7,6.2c1.6,0.9,2.6,2.6,2.6,4.4v30.7
		c0,1.8,1,3.5,2.6,4.4l25.2,14.4c0.8,0.5,1.8,0.5,2.6,0c0.8-0.4,1.3-1.3,1.3-2.2l0.1-65.7C124.1,222.7,123.1,221,121.5,220z"/>
	<path d="M353.4,148.2l-25.3-14.1c-0.8-0.4-1.8-0.4-2.5,0c-0.8,0.5-1.3,1.3-1.3,2.2v65.1c0,0.6-0.3,1.2-0.9,1.6
		c-0.6,0.3-1.2,0.3-1.8,0l-10.6-6.1c-1.6-0.9-3.5-0.9-5.1,0l-42.4,24.5c-1.6,0.9-2.6,2.6-2.6,4.4v49c0,1.8,1,3.5,2.6,4.4l42.4,24.5
		c1.6,0.9,3.5,0.9,5.1,0l42.4-24.5c1.6-0.9,2.6-2.6,2.6-4.4V152.7C356,150.9,355,149.1,353.4,148.2z M324.2,258.7
		c0,0.5-0.2,0.9-0.6,1.1l-14.6,8.4c-0.4,0.2-0.9,0.2-1.3,0l-14.6-8.4c-0.4-0.2-0.6-0.7-0.6-1.1v-16.8c0-0.5,0.2-0.9,0.6-1.1
		l14.6-8.4c0.4-0.2,0.9-0.2,1.3,0l14.6,8.4c0.4,0.2,0.6,0.7,0.6,1.1V258.7z"/>
	<path d="M469.4,220.7l-42.2-24.5c-1.6-0.9-3.5-0.9-5.1,0l-42.4,24.5c-1.6,0.9-2.6,2.6-2.6,4.4v49c0,1.8,1,3.5,2.6,4.5
		l42.2,24c1.6,0.9,3.5,0.9,5,0l25.5-14.2c0.8-0.5,1.3-1.3,1.3-2.2c0-0.9-0.5-1.8-1.3-2.2l-42.7-24.5c-0.8-0.5-1.3-1.3-1.3-2.2v-15.3
		c0-0.9,0.5-1.8,1.3-2.2l13.3-7.7c0.8-0.5,1.8-0.5,2.6,0l13.3,7.7c0.8,0.5,1.3,1.3,1.3,2.2V254c0,0.9,0.5,1.8,1.3,2.2
		c0.8,0.5,1.8,0.5,2.6,0l25.4-14.8c1.6-0.9,2.5-2.6,2.5-4.4v-11.9C472,223.3,471,221.6,469.4,220.7z"/>
	<path d="M425.1,239.2c-0.3-0.2-0.7-0.2-1,0l-8.1,4.7c-0.3,0.2-0.5,0.5-0.5,0.9v9.4c0,0.4,0.2,0.7,0.5,0.9l8.1,4.7
		c0.3,0.2,0.7,0.2,1,0l8.1-4.7c0.3-0.2,0.5-0.5,0.5-0.9v-9.4c0-0.4-0.2-0.7-0.5-0.9L425.1,239.2z"/>
	<path d="M239.8,274v-48.7c0-1.8-1-3.5-2.5-4.4L195,196.5c-1.6-0.9-3.5-0.9-5.1,0l-42.2,24.3c-1.6,0.9-2.5,2.6-2.5,4.4
		V274c0,1.8,1,3.5,2.5,4.4l42.2,24.4c1.6,0.9,3.5,0.9,5.1,0l42.2-24.4C238.8,277.5,239.8,275.8,239.8,274z"/>
</g>
</svg>
