<?xml version="1.0" encoding="utf-8"?>
<!-- Generator: Adobe Illustrator 23.0.1, SVG Export Plug-In . SVG Version: 6.00 Build 0)  -->
<svg version="1.1" id="Layer_1" xmlns="http://www.w3.org/2000/svg" xmlns:xlink="http://www.w3.org/1999/xlink" x="0px" y="0px"
	 viewBox="0 0 500 500" style="enable-background:new 0 0 500 500;" xml:space="preserve">
<g>
	<path d="M350.7,222.3c-9.2-0.5-17.8,4.3-22.2,12.7c-1.8,3.5-3,7.2-3.5,11h35c4.3,0,7.5,0,9.5-0.2c1.3,0,2.7-0.2,3.8-0.3v-1.7
		c0-2.2-0.3-4.2-1-6.2C369.3,228.3,360.5,222,350.7,222.3z"/>
	<path d="M379.2,55H120.8C81.7,55,50,86.7,50,125.8v248.3c0,39.2,31.7,70.8,70.8,70.8h258.3c39.2,0,70.8-31.7,70.8-70.8V125.8
		C450,86.7,418.3,55,379.2,55z M278.5,330c-0.5,0.5-1,0.7-1.7,0.7h-33.2c-0.5,0-0.8-0.2-1.3-0.3c-0.3-0.3-0.5-1-0.5-1.5
		c0-9.2,0-18.7-0.2-28.7c-0.2-10-0.2-20-0.3-30.2c-0.2-10.2-0.2-19.8,0-29.2c0.2-9.3,0.3-17.8,0.3-25.8c0-7.8,0-14.7,0.2-20.5
		c0.2-5.8,0.2-10.2,0.2-13h-0.3c-1,4.5-2.3,10.3-4,17.5c-1.7,7.2-3.7,15.3-6,24.5c-2.3,9-4.8,18.3-7.3,28
		c-2.7,9.7-5.2,19.2-7.7,28.7s-4.8,18.3-7.2,26.5c-2.3,8.2-4.2,15.5-5.7,21.7c-0.3,1.3-1.5,2.2-2.8,2.2h-29.2
		c-1.5,0.2-2.8-0.7-3-2.2c-1.5-6.3-3.3-13.5-5.2-21.7c-2-8.2-4-16.8-6-25.8c-2-9-4.2-18.2-6.5-27.5c-2.3-9.3-4.5-18.5-6.5-27.2
		c-2-8.8-3.8-17-5.5-24.7c-1.7-7.7-3.2-14.5-4.5-20.3h-0.5v21.2c0,8.2-0.2,17.3-0.3,27.2c-0.3,10-0.5,20.3-0.8,31.2
		c-0.3,10.8-0.5,22-0.8,33.5c-0.3,11.5-0.8,23-1.3,34.2c0,1.5-0.7,2.2-2,2.2H99.3c-0.5,0-1.2-0.2-1.7-0.3c-0.5-0.3-0.5-1-0.3-2
		l9-171.7c0.2-1,1-1.7,2-1.7h46.8c1.3-0.2,2.5,0.7,2.8,1.8c1.2,4.7,2.7,10.2,4.3,16.8c1.7,6.5,3.5,13.7,5.5,21.7c2,7.8,4,16,6,24.2
		c2,8.2,4,16.2,6,24c2,7.8,3.7,15,5,21.5c1.3,6.5,2.5,12,3.3,16.2h0.3c0.7-3.8,1.8-8.8,3.5-15c1.7-6.3,3.7-13.3,5.8-21
		c2.2-7.8,4.5-15.8,6.8-24c2.3-8.2,4.5-16.3,6.8-24.5c2.2-8,4.3-15.5,6.2-22.3c2-6.8,3.5-12.7,4.7-17.3c0.2-1.2,1.2-2,2.3-1.8h45.7
		c1.2-0.2,2.2,0.7,2.3,1.7v0.2l6.2,171.5C279,329,278.8,329.7,278.5,330z M408.2,262c-0.3,3.2-0.5,5.5-0.7,7
		c-0.2,1.2-1.2,2.2-2.3,2.2c-1,0-2.8,0.2-5.5,0.3c-2.7,0.3-5.8,0.5-9.7,0.5c-3.8,0-8,0.2-12.2,0.2H325c0.7,5,2.3,9.8,5.2,14.2
		c3,4.5,7.2,8,12.2,10c5.5,2.5,12.5,3.8,21.3,3.8c5.8,0,11.7-0.5,17.3-1.5c5.3-1,10.7-2.5,15.7-4.7c0.8-0.7,1.3-0.3,1.3,1.3v25.5
		c0,0.7-0.2,1.3-0.3,2c-0.3,0.5-0.7,0.8-1.2,1.2c-5.5,2.7-11.3,4.5-17.5,5.8c-7.8,1.5-15.7,2.2-23.7,2c-12.7,0-23.3-2-32-5.8
		c-8.2-3.5-15.3-9-21-15.8c-5.3-6.5-9.2-13.8-11.5-21.8c-2.3-7.8-3.5-16-3.5-24.3c0-9,1.3-17.8,4.2-26.5c2.7-8.3,6.8-16,12.5-22.8
		c5.5-6.7,12.3-12,20.2-15.8c8.7-4,18.3-6,27.8-5.8c8.8-0.2,17.7,1.5,25.8,5.2c6.8,3.2,13,7.8,17.5,13.8c4.3,5.7,7.8,12,10,19
		c2.2,6.7,3.2,13.5,3.2,20.3C408.5,255.3,408.3,258.8,408.2,262z"/>
</g>
</svg>
