<?xml version="1.0" encoding="utf-8"?>
<!-- Generator: Adobe Illustrator 23.0.1, SVG Export Plug-In . SVG Version: 6.00 Build 0)  -->
<svg version="1.1" id="Layer_1" xmlns="http://www.w3.org/2000/svg" xmlns:xlink="http://www.w3.org/1999/xlink" x="0px" y="0px"
	 viewBox="0 0 500 500" style="enable-background:new 0 0 500 500;" xml:space="preserve">
<g>
	<path d="M225.5,228.8c-1.7-5.2-3.2-10.2-4.8-15.3c-1.7-5.2-3.2-10-4.5-14.8c-1.3-4.7-2.5-9-3.7-13h-0.3c-1.5,7.2-3.3,14.3-5.7,21.5
		c-2.5,8-5,16.3-7.7,24.7c-2.3,8.5-4.8,16.3-7.3,23.3h42.3c-1-3.5-2.3-7.7-3.8-12C228.5,238.7,227,233.8,225.5,228.8z"/>
	<path d="M379.2,55H120.8C81.7,55,50,86.7,50,125.8v248.3c0,39.2,31.7,70.8,70.8,70.8h258.3c39.2,0,70.8-31.7,70.8-70.8V125.8
		C450,86.7,418.3,55,379.2,55z M295,330.5h-34.8c-1.2,0.2-2.3-0.7-2.7-1.8L243.8,289h-62l-12.7,39.2c-0.3,1.5-1.7,2.5-3.2,2.3h-31.3
		c-1.8,0-2.3-1-1.8-3L186.5,173c0.5-1.7,1-3.5,1.7-5.5c0.7-3.5,1-7.2,1-10.8c-0.2-0.8,0.5-1.7,1.3-1.8c0.2,0,0.3,0,0.5,0h42.7
		c1.3,0,2,0.5,2.2,1.3l60.8,171.7C297.2,329.7,296.7,330.5,295,330.5z M351.7,328c0,1.8-0.7,2.7-2.2,2.7h-32.7c-1.7,0-2.5-1-2.5-2.7
		V199.7c0-1.7,0.7-2.3,2.2-2.3h33c1.5,0,2.2,0.8,2.2,2.3V328z M348.2,177.5c-3.8,4-9.5,6.2-15.2,5.8c-5.5,0.2-10.8-2-14.8-5.8
		c-3.8-4.2-5.8-9.7-5.7-15.3c-0.2-5.7,2-11,6-14.8c4-3.8,9.3-5.8,14.8-5.8c6.5,0,11.5,2,15.2,5.8c3.7,4,5.7,9.3,5.5,14.8
		C354.2,167.8,352.2,173.3,348.2,177.5z"/>
</g>
</svg>
