<?xml version="1.0" encoding="utf-8"?>
<!-- Generator: Adobe Illustrator 23.0.1, SVG Export Plug-In . SVG Version: 6.00 Build 0)  -->
<svg version="1.1" id="Layer_1" xmlns="http://www.w3.org/2000/svg" xmlns:xlink="http://www.w3.org/1999/xlink" x="0px" y="0px"
	 viewBox="0 0 500 500" style="enable-background:new 0 0 500 500;" xml:space="preserve">
<g id="XMLID_9_">
	<path id="XMLID_17_" d="M150,349.6c0,8.9,7.4,16.8,16.8,16.8h16.8v58.4c0,13.7,11,25.3,25.3,25.3c13.7,0,25.3-11,25.3-25.3v-58.4
		h33.1v58.4c0,13.7,11,25.3,24.7,25.3c13.7,0,25.3-11,25.3-25.3v-58.4h16.8c8.9,0,16.8-7.4,16.8-16.8V182.8H150V349.6z M108.5,182.8
		c-13.7,0-25.3,11-25.3,25.3v116.8c0,13.7,11,25.3,25.3,25.3c13.7,0,25.3-11,25.3-25.3V208C133.2,194.4,122.2,182.8,108.5,182.8z
		 M391.5,182.8c-13.7,0-25.3,11-25.3,25.3v116.8c0,13.7,11,25.3,25.3,25.3c13.7,0,25.3-11,25.3-25.3V208
		C416.8,194.4,405.2,182.8,391.5,182.8z M308.9,85.5l21.6-21.6c3.2-3.2,3.2-8.4,0-11.6c-3.2-3.2-8.4-3.2-11.6,0l-24.7,24.7
		C281,70.2,265.8,66.5,250,66.5s-31,3.7-44.2,10.5l-24.7-24.7c-3.2-3.2-8.4-3.2-11.6,0c-3.2,3.2-3.2,8.4,0,11.6l21.6,21.6
		c-24.7,18.4-41,47.3-41,80.5H350C350,133.3,333.6,103.9,308.9,85.5z M216.9,132.8H200V116h16.8V132.8z M300,132.8h-16.8V116H300
		V132.8z"/>
</g>
</svg>
